<svg version="1.1" fill="currentColor" xmlns="http://www.w3.org/2000/svg" xmlns:xlink="http://www.w3.org/1999/xlink" x="0px" y="0px" viewBox="0 0 512 512" style="width: 256px; height: 256px; opacity: 1;" xml:space="preserve">
<g>
	<path d="M407.526,285.339v-43.11c0-83.904-68.018-151.936-151.936-151.936S103.654,158.325,103.654,242.23v43.11
		c0,83.906,68.018,151.936,151.936,151.936S407.526,369.245,407.526,285.339z" style="fill: rgb(75, 75, 75);"></path>
	<path d="M486.364,182.083C459.644,78.825,365.99,2.315,254.479,2.288C142.571,2.315,48.678,79.354,22.301,183.154
		C9.207,188.775,0,201.779,0,216.938v91.908c0,20.291,16.482,36.76,36.747,36.76c20.318,0,36.773-16.468,36.773-36.76v-91.908
		c0-14.3-8.254-26.548-20.185-32.634c9.946-34.511,28.36-65.452,53.122-90.228c37.991-37.964,90.268-61.417,148.022-61.417
		c57.752,0,110.029,23.454,148.02,61.417c25.081,25.12,43.679,56.589,53.494,91.684c-10.476,6.468-17.513,17.962-17.513,31.178
		v91.908c0,14.564,8.519,27.05,20.821,32.99c-4.896,18.439-11.905,35.928-20.292,51.311c-8.2,15.094-17.646,28.123-27.408,38.096
		c-7.302-5.502-16.296-8.876-26.113-8.876c-24.127,0-43.678,19.551-43.678,43.666c0,24.114,19.552,43.679,43.678,43.679
		c24.102,0,43.68-19.565,43.68-43.679c0-5.37-1.112-10.464-2.884-15.226l2.222-2.09c24.207-24.723,44.42-62.21,54.923-104.103
		C499.777,340.87,512,326.306,512,308.846v-91.908C512,200.561,501.206,186.832,486.364,182.083z" style="fill: rgb(75, 75, 75);"></path>
</g>
</svg>
