<svg xmlns="http://www.w3.org/2000/svg" xmlns:xlink="http://www.w3.org/1999/xlink" width="500" zoomAndPan="magnify" viewBox="0 0 375 187.499995" height="250" preserveAspectRatio="xMidYMid meet" version="1.0"><defs><g/><clipPath id="14b3a50b11"><path d="M 0.5 0 L 374.5 0 L 374.5 187 L 0.5 187 Z M 0.5 0 " clip-rule="nonzero"/></clipPath><clipPath id="fa9898dc27"><path d="M 0.5 0 L 33.988281 0 L 33.988281 187 L 0.5 187 Z M 0.5 0 " clip-rule="nonzero"/></clipPath><clipPath id="35833822a5"><path d="M 33.988281 93.496094 L 0.492188 186.996094 L 0.492188 -0.00390625 Z M 33.988281 93.496094 " clip-rule="nonzero"/></clipPath><clipPath id="e72e0fcc2d"><path d="M 111.882812 6.804688 L 263 6.804688 L 263 134.414062 L 111.882812 134.414062 Z M 111.882812 6.804688 " clip-rule="nonzero"/></clipPath><clipPath id="86b366087e"><path d="M 341 0 L 374.496094 0 L 374.496094 187 L 341 187 Z M 341 0 " clip-rule="nonzero"/></clipPath><clipPath id="74de79148e"><path d="M 374.496094 93.496094 L 341 186.996094 L 341 -0.00390625 Z M 374.496094 93.496094 " clip-rule="nonzero"/></clipPath></defs><g clip-path="url(#14b3a50b11)"><path fill="#ffffff" d="M 0.5 0 L 374.5 0 L 374.5 187 L 0.5 187 Z M 0.5 0 " fill-opacity="1" fill-rule="nonzero"/><path fill="#ffffff" d="M 0.5 0 L 374.5 0 L 374.5 187 L 0.5 187 Z M 0.5 0 " fill-opacity="1" fill-rule="nonzero"/></g><g clip-path="url(#fa9898dc27)"><g clip-path="url(#35833822a5)"><path fill="#4b5563" d="M 33.988281 -0.00390625 L 33.988281 186.964844 L 0.492188 186.964844 L 0.492188 -0.00390625 Z M 33.988281 -0.00390625 " fill-opacity="1" fill-rule="nonzero"/></g></g><g clip-path="url(#e72e0fcc2d)"><path fill="#54c8d2" d="M 241.394531 45.195312 L 237.59375 45.195312 C 231.621094 22.941406 211.226562 6.421875 187.109375 6.421875 C 162.988281 6.421875 142.59375 22.941406 136.621094 45.195312 L 132.820312 45.195312 C 121.035156 45.195312 111.496094 54.734375 111.496094 66.523438 L 111.496094 74.277344 C 111.496094 86.066406 121.035156 95.605469 132.820312 95.605469 L 140.578125 95.605469 C 143.757812 95.605469 146.394531 92.96875 146.394531 89.789062 L 146.394531 58.769531 C 146.394531 36.277344 164.617188 18.054688 187.109375 18.054688 C 209.597656 18.054688 227.820312 36.277344 227.820312 58.769531 L 227.820312 89.789062 C 227.820312 102.273438 218.75 112.511719 206.804688 114.527344 C 204.554688 110.1875 200.058594 107.238281 194.863281 107.238281 L 179.351562 107.238281 C 171.90625 107.238281 165.78125 113.367188 165.78125 120.808594 C 165.78125 128.253906 171.90625 134.382812 179.351562 134.382812 L 194.863281 134.382812 C 200.445312 134.382812 205.253906 130.96875 207.347656 126.160156 C 223.480469 124.066406 236.351562 111.582031 238.910156 95.605469 L 241.472656 95.605469 C 253.257812 95.605469 262.796875 86.066406 262.796875 74.277344 L 262.796875 66.523438 C 262.796875 54.734375 253.257812 45.195312 241.472656 45.195312 Z M 123.128906 74.277344 L 123.128906 66.523438 C 123.128906 61.171875 127.46875 56.828125 132.820312 56.828125 L 134.835938 56.828125 C 134.835938 57.449219 134.761719 58.148438 134.761719 58.769531 L 134.761719 83.972656 L 132.820312 83.972656 C 127.46875 83.972656 123.128906 79.628906 123.128906 74.277344 Z M 194.863281 122.75 L 179.351562 122.75 C 178.265625 122.75 177.414062 121.894531 177.414062 120.808594 C 177.414062 119.722656 178.265625 118.871094 179.351562 118.871094 L 194.863281 118.871094 C 195.949219 118.871094 196.800781 119.722656 196.800781 120.808594 C 196.800781 121.894531 195.949219 122.75 194.863281 122.75 Z M 251.085938 74.277344 C 251.085938 79.628906 246.746094 83.972656 241.394531 83.972656 L 239.453125 83.972656 L 239.453125 58.769531 C 239.453125 58.148438 239.453125 57.449219 239.378906 56.828125 L 241.394531 56.828125 C 246.746094 56.828125 251.085938 61.171875 251.085938 66.523438 Z M 251.085938 74.277344 " fill-opacity="1" fill-rule="nonzero"/></g><g fill="#000000" fill-opacity="1"><g transform="translate(78.620824, 172.164601)"><g><path d="M 15.625 -4.1875 L 6.890625 -4.1875 L 5.4375 0 L 0.8125 0 L 8.703125 -21.96875 L 13.828125 -21.96875 L 21.71875 0 L 17.078125 0 Z M 14.4375 -7.703125 L 11.25 -16.875 L 8.078125 -7.703125 Z M 14.4375 -7.703125 "/></g></g></g><g fill="#000000" fill-opacity="1"><g transform="translate(101.127791, 172.164601)"><g><path d="M 6.578125 -21.9375 L 6.578125 0 L 2.171875 0 L 2.171875 -21.9375 Z M 6.578125 -21.9375 "/></g></g></g><g fill="#000000" fill-opacity="1"><g transform="translate(109.866536, 172.164601)"><g/></g></g><g fill="#000000" fill-opacity="1"><g transform="translate(117.347906, 172.164601)"><g><path d="M 1.09375 -11 C 1.09375 -13.15625 1.582031 -15.085938 2.5625 -16.796875 C 3.539062 -18.503906 4.867188 -19.832031 6.546875 -20.78125 C 8.234375 -21.738281 10.128906 -22.21875 12.234375 -22.21875 C 14.679688 -22.21875 16.828125 -21.585938 18.671875 -20.328125 C 20.515625 -19.078125 21.804688 -17.34375 22.546875 -15.125 L 17.484375 -15.125 C 16.972656 -16.164062 16.257812 -16.945312 15.34375 -17.46875 C 14.4375 -18 13.390625 -18.265625 12.203125 -18.265625 C 10.921875 -18.265625 9.78125 -17.960938 8.78125 -17.359375 C 7.789062 -16.765625 7.015625 -15.921875 6.453125 -14.828125 C 5.898438 -13.742188 5.625 -12.46875 5.625 -11 C 5.625 -9.550781 5.898438 -8.273438 6.453125 -7.171875 C 7.015625 -6.078125 7.789062 -5.226562 8.78125 -4.625 C 9.78125 -4.03125 10.921875 -3.734375 12.203125 -3.734375 C 13.390625 -3.734375 14.4375 -4 15.34375 -4.53125 C 16.257812 -5.070312 16.972656 -5.867188 17.484375 -6.921875 L 22.546875 -6.921875 C 21.804688 -4.671875 20.519531 -2.921875 18.6875 -1.671875 C 16.851562 -0.429688 14.703125 0.1875 12.234375 0.1875 C 10.128906 0.1875 8.234375 -0.285156 6.546875 -1.234375 C 4.867188 -2.191406 3.539062 -3.519531 2.5625 -5.21875 C 1.582031 -6.914062 1.09375 -8.84375 1.09375 -11 Z M 1.09375 -11 "/></g></g></g><g fill="#000000" fill-opacity="1"><g transform="translate(141.489459, 172.164601)"><g><path d="M 1.03125 -8.765625 C 1.03125 -10.523438 1.378906 -12.085938 2.078125 -13.453125 C 2.785156 -14.816406 3.742188 -15.863281 4.953125 -16.59375 C 6.160156 -17.332031 7.503906 -17.703125 8.984375 -17.703125 C 10.285156 -17.703125 11.421875 -17.4375 12.390625 -16.90625 C 13.367188 -16.382812 14.15625 -15.726562 14.75 -14.9375 L 14.75 -17.421875 L 19.171875 -17.421875 L 19.171875 0 L 14.75 0 L 14.75 -2.546875 C 14.175781 -1.734375 13.390625 -1.054688 12.390625 -0.515625 C 11.398438 0.015625 10.253906 0.28125 8.953125 0.28125 C 7.492188 0.28125 6.160156 -0.09375 4.953125 -0.84375 C 3.742188 -1.601562 2.785156 -2.664062 2.078125 -4.03125 C 1.378906 -5.40625 1.03125 -6.984375 1.03125 -8.765625 Z M 14.75 -8.703125 C 14.75 -9.773438 14.535156 -10.691406 14.109375 -11.453125 C 13.691406 -12.222656 13.125 -12.8125 12.40625 -13.21875 C 11.695312 -13.625 10.9375 -13.828125 10.125 -13.828125 C 9.300781 -13.828125 8.546875 -13.628906 7.859375 -13.234375 C 7.171875 -12.835938 6.609375 -12.253906 6.171875 -11.484375 C 5.742188 -10.722656 5.53125 -9.816406 5.53125 -8.765625 C 5.53125 -7.722656 5.742188 -6.804688 6.171875 -6.015625 C 6.609375 -5.234375 7.175781 -4.628906 7.875 -4.203125 C 8.570312 -3.785156 9.320312 -3.578125 10.125 -3.578125 C 10.9375 -3.578125 11.695312 -3.78125 12.40625 -4.1875 C 13.125 -4.601562 13.691406 -5.191406 14.109375 -5.953125 C 14.535156 -6.722656 14.75 -7.640625 14.75 -8.703125 Z M 14.75 -8.703125 "/></g></g></g><g fill="#000000" fill-opacity="1"><g transform="translate(162.801923, 172.164601)"><g><path d="M 6.578125 -23.265625 L 6.578125 0 L 2.171875 0 L 2.171875 -23.265625 Z M 6.578125 -23.265625 "/></g></g></g><g fill="#000000" fill-opacity="1"><g transform="translate(171.540668, 172.164601)"><g><path d="M 6.578125 -23.265625 L 6.578125 0 L 2.171875 0 L 2.171875 -23.265625 Z M 6.578125 -23.265625 "/></g></g></g><g fill="#000000" fill-opacity="1"><g transform="translate(180.279414, 172.164601)"><g/></g></g><g fill="#000000" fill-opacity="1"><g transform="translate(187.760783, 172.164601)"><g><path d="M 1.09375 -11 C 1.09375 -13.15625 1.582031 -15.085938 2.5625 -16.796875 C 3.539062 -18.503906 4.867188 -19.832031 6.546875 -20.78125 C 8.234375 -21.738281 10.128906 -22.21875 12.234375 -22.21875 C 14.679688 -22.21875 16.828125 -21.585938 18.671875 -20.328125 C 20.515625 -19.078125 21.804688 -17.34375 22.546875 -15.125 L 17.484375 -15.125 C 16.972656 -16.164062 16.257812 -16.945312 15.34375 -17.46875 C 14.4375 -18 13.390625 -18.265625 12.203125 -18.265625 C 10.921875 -18.265625 9.78125 -17.960938 8.78125 -17.359375 C 7.789062 -16.765625 7.015625 -15.921875 6.453125 -14.828125 C 5.898438 -13.742188 5.625 -12.46875 5.625 -11 C 5.625 -9.550781 5.898438 -8.273438 6.453125 -7.171875 C 7.015625 -6.078125 7.789062 -5.226562 8.78125 -4.625 C 9.78125 -4.03125 10.921875 -3.734375 12.203125 -3.734375 C 13.390625 -3.734375 14.4375 -4 15.34375 -4.53125 C 16.257812 -5.070312 16.972656 -5.867188 17.484375 -6.921875 L 22.546875 -6.921875 C 21.804688 -4.671875 20.519531 -2.921875 18.6875 -1.671875 C 16.851562 -0.429688 14.703125 0.1875 12.234375 0.1875 C 10.128906 0.1875 8.234375 -0.285156 6.546875 -1.234375 C 4.867188 -2.191406 3.539062 -3.519531 2.5625 -5.21875 C 1.582031 -6.914062 1.09375 -8.84375 1.09375 -11 Z M 1.09375 -11 "/></g></g></g><g fill="#000000" fill-opacity="1"><g transform="translate(211.902336, 172.164601)"><g><path d="M 18.359375 -9.078125 C 18.359375 -8.453125 18.316406 -7.890625 18.234375 -7.390625 L 5.5 -7.390625 C 5.601562 -6.128906 6.039062 -5.140625 6.8125 -4.421875 C 7.59375 -3.710938 8.550781 -3.359375 9.6875 -3.359375 C 11.320312 -3.359375 12.484375 -4.0625 13.171875 -5.46875 L 17.921875 -5.46875 C 17.421875 -3.789062 16.457031 -2.410156 15.03125 -1.328125 C 13.601562 -0.253906 11.851562 0.28125 9.78125 0.28125 C 8.101562 0.28125 6.597656 -0.0859375 5.265625 -0.828125 C 3.929688 -1.578125 2.890625 -2.628906 2.140625 -3.984375 C 1.398438 -5.347656 1.03125 -6.921875 1.03125 -8.703125 C 1.03125 -10.503906 1.394531 -12.085938 2.125 -13.453125 C 2.863281 -14.816406 3.894531 -15.863281 5.21875 -16.59375 C 6.539062 -17.332031 8.0625 -17.703125 9.78125 -17.703125 C 11.4375 -17.703125 12.914062 -17.34375 14.21875 -16.625 C 15.53125 -15.914062 16.546875 -14.90625 17.265625 -13.59375 C 17.992188 -12.28125 18.359375 -10.773438 18.359375 -9.078125 Z M 13.796875 -10.34375 C 13.773438 -11.476562 13.363281 -12.382812 12.5625 -13.0625 C 11.769531 -13.738281 10.800781 -14.078125 9.65625 -14.078125 C 8.5625 -14.078125 7.640625 -13.75 6.890625 -13.09375 C 6.148438 -12.4375 5.695312 -11.519531 5.53125 -10.34375 Z M 13.796875 -10.34375 "/></g></g></g><g fill="#000000" fill-opacity="1"><g transform="translate(231.297314, 172.164601)"><g><path d="M 11.828125 -17.671875 C 13.898438 -17.671875 15.570312 -17.015625 16.84375 -15.703125 C 18.125 -14.390625 18.765625 -12.5625 18.765625 -10.21875 L 18.765625 0 L 14.359375 0 L 14.359375 -9.625 C 14.359375 -11 14.015625 -12.054688 13.328125 -12.796875 C 12.640625 -13.546875 11.695312 -13.921875 10.5 -13.921875 C 9.28125 -13.921875 8.320312 -13.546875 7.625 -12.796875 C 6.925781 -12.054688 6.578125 -11 6.578125 -9.625 L 6.578125 0 L 2.171875 0 L 2.171875 -17.421875 L 6.578125 -17.421875 L 6.578125 -15.25 C 7.160156 -16 7.90625 -16.585938 8.8125 -17.015625 C 9.726562 -17.453125 10.734375 -17.671875 11.828125 -17.671875 Z M 11.828125 -17.671875 "/></g></g></g><g fill="#000000" fill-opacity="1"><g transform="translate(252.075399, 172.164601)"><g><path d="M 7.296875 -13.796875 L 7.296875 -5.375 C 7.296875 -4.789062 7.4375 -4.363281 7.71875 -4.09375 C 8 -3.832031 8.472656 -3.703125 9.140625 -3.703125 L 11.1875 -3.703125 L 11.1875 0 L 8.421875 0 C 4.710938 0 2.859375 -1.800781 2.859375 -5.40625 L 2.859375 -13.796875 L 0.78125 -13.796875 L 0.78125 -17.421875 L 2.859375 -17.421875 L 2.859375 -21.71875 L 7.296875 -21.71875 L 7.296875 -17.421875 L 11.1875 -17.421875 L 11.1875 -13.796875 Z M 7.296875 -13.796875 "/></g></g></g><g fill="#000000" fill-opacity="1"><g transform="translate(264.271908, 172.164601)"><g><path d="M 18.359375 -9.078125 C 18.359375 -8.453125 18.316406 -7.890625 18.234375 -7.390625 L 5.5 -7.390625 C 5.601562 -6.128906 6.039062 -5.140625 6.8125 -4.421875 C 7.59375 -3.710938 8.550781 -3.359375 9.6875 -3.359375 C 11.320312 -3.359375 12.484375 -4.0625 13.171875 -5.46875 L 17.921875 -5.46875 C 17.421875 -3.789062 16.457031 -2.410156 15.03125 -1.328125 C 13.601562 -0.253906 11.851562 0.28125 9.78125 0.28125 C 8.101562 0.28125 6.597656 -0.0859375 5.265625 -0.828125 C 3.929688 -1.578125 2.890625 -2.628906 2.140625 -3.984375 C 1.398438 -5.347656 1.03125 -6.921875 1.03125 -8.703125 C 1.03125 -10.503906 1.394531 -12.085938 2.125 -13.453125 C 2.863281 -14.816406 3.894531 -15.863281 5.21875 -16.59375 C 6.539062 -17.332031 8.0625 -17.703125 9.78125 -17.703125 C 11.4375 -17.703125 12.914062 -17.34375 14.21875 -16.625 C 15.53125 -15.914062 16.546875 -14.90625 17.265625 -13.59375 C 17.992188 -12.28125 18.359375 -10.773438 18.359375 -9.078125 Z M 13.796875 -10.34375 C 13.773438 -11.476562 13.363281 -12.382812 12.5625 -13.0625 C 11.769531 -13.738281 10.800781 -14.078125 9.65625 -14.078125 C 8.5625 -14.078125 7.640625 -13.75 6.890625 -13.09375 C 6.148438 -12.4375 5.695312 -11.519531 5.53125 -10.34375 Z M 13.796875 -10.34375 "/></g></g></g><g fill="#000000" fill-opacity="1"><g transform="translate(283.666886, 172.164601)"><g><path d="M 6.578125 -14.71875 C 7.140625 -15.632812 7.875 -16.351562 8.78125 -16.875 C 9.695312 -17.40625 10.742188 -17.671875 11.921875 -17.671875 L 11.921875 -13.046875 L 10.75 -13.046875 C 9.363281 -13.046875 8.320312 -12.71875 7.625 -12.0625 C 6.925781 -11.414062 6.578125 -10.285156 6.578125 -8.671875 L 6.578125 0 L 2.171875 0 L 2.171875 -17.421875 L 6.578125 -17.421875 Z M 6.578125 -14.71875 "/></g></g></g><g clip-path="url(#86b366087e)"><g clip-path="url(#74de79148e)"><path fill="#4b5563" d="M 374.496094 -0.00390625 L 374.496094 186.964844 L 341 186.964844 L 341 -0.00390625 Z M 374.496094 -0.00390625 " fill-opacity="1" fill-rule="nonzero"/></g></g></svg>