<svg xmlns="http://www.w3.org/2000/svg" xmlns:xlink="http://www.w3.org/1999/xlink" width="256" zoomAndPan="magnify" viewBox="0 0 192 191.999996" height="256" preserveAspectRatio="xMidYMid meet" version="1.0"><defs><clipPath id="8e9f014eef"><path d="M 164 55 L 191.25 55 L 191.25 156 L 164 156 Z M 164 55 " clip-rule="nonzero"/></clipPath><clipPath id="44944eb016"><path d="M 119 7 L 146 7 L 146 34 L 119 34 Z M 119 7 " clip-rule="nonzero"/></clipPath><clipPath id="97956ee6aa"><path d="M 104.570312 23.265625 L 144.34375 -16.511719 L 184.117188 23.265625 L 144.34375 63.039062 Z M 104.570312 23.265625 " clip-rule="nonzero"/></clipPath><clipPath id="2ec295c25b"><path d="M 104.570312 23.265625 L 144.34375 -16.511719 L 184.117188 23.265625 L 144.34375 63.039062 Z M 104.570312 23.265625 " clip-rule="nonzero"/></clipPath><clipPath id="b66fab918d"><path d="M 104.570312 23.265625 L 144.34375 -16.511719 L 184.117188 23.265625 L 144.34375 63.039062 Z M 104.570312 23.265625 " clip-rule="nonzero"/></clipPath><clipPath id="4a1a528452"><path d="M 150 11 L 168 11 L 168 29 L 150 29 Z M 150 11 " clip-rule="nonzero"/></clipPath><clipPath id="006445fb4b"><path d="M 104.570312 23.265625 L 144.34375 -16.511719 L 184.117188 23.265625 L 144.34375 63.039062 Z M 104.570312 23.265625 " clip-rule="nonzero"/></clipPath><clipPath id="9de82567a3"><path d="M 104.570312 23.265625 L 144.34375 -16.511719 L 184.117188 23.265625 L 144.34375 63.039062 Z M 104.570312 23.265625 " clip-rule="nonzero"/></clipPath><clipPath id="7a02d1a761"><path d="M 104.570312 23.265625 L 144.34375 -16.511719 L 184.117188 23.265625 L 144.34375 63.039062 Z M 104.570312 23.265625 " clip-rule="nonzero"/></clipPath><clipPath id="d5a52dcfe8"><path d="M 142 37 L 157 37 L 157 52 L 142 52 Z M 142 37 " clip-rule="nonzero"/></clipPath><clipPath id="a1482862a5"><path d="M 104.570312 23.265625 L 144.34375 -16.511719 L 184.117188 23.265625 L 144.34375 63.039062 Z M 104.570312 23.265625 " clip-rule="nonzero"/></clipPath><clipPath id="06559a45c5"><path d="M 104.570312 23.265625 L 144.34375 -16.511719 L 184.117188 23.265625 L 144.34375 63.039062 Z M 104.570312 23.265625 " clip-rule="nonzero"/></clipPath><clipPath id="1f11f28b13"><path d="M 104.570312 23.265625 L 144.34375 -16.511719 L 184.117188 23.265625 L 144.34375 63.039062 Z M 104.570312 23.265625 " clip-rule="nonzero"/></clipPath></defs><rect x="-19.2" width="230.4" fill="#ffffff" y="-19.2" height="230.399995" fill-opacity="1"/><rect x="-19.2" width="230.4" fill="#ffffff" y="-19.2" height="230.399995" fill-opacity="1"/><path fill="#4b4b4b" d="M 112.242188 44.96875 C 110.191406 43.789062 107.902344 43.199219 105.613281 43.199219 C 103.304688 43.199219 100.996094 43.800781 98.929688 45 L 55.078125 70.503906 L 26.972656 70.503906 C 12.101562 70.503906 0 82.585938 0 97.433594 L 0 112.964844 C 0 127.816406 12.101562 139.898438 26.972656 139.898438 L 55.078125 139.898438 L 98.929688 165.402344 C 100.996094 166.601562 103.304688 167.199219 105.613281 167.199219 C 107.902344 167.199219 110.191406 166.609375 112.242188 165.429688 C 116.363281 163.054688 118.90625 158.664062 118.90625 153.90625 L 118.90625 56.492188 C 118.910156 51.738281 116.363281 47.339844 112.242188 44.96875 Z M 50.90625 126.605469 L 26.972656 126.605469 C 19.417969 126.605469 13.296875 120.496094 13.296875 112.964844 L 13.296875 97.433594 C 13.296875 89.90625 19.417969 83.796875 26.972656 83.796875 L 50.90625 83.796875 Z M 105.613281 153.90625 L 58.660156 126.605469 L 58.660156 83.796875 L 58.664062 83.796875 L 105.613281 56.492188 Z M 105.613281 153.90625 " fill-opacity="1" fill-rule="nonzero"/><path fill="#4b4b4b" d="M 155.09375 72.585938 C 153.328125 70.621094 150.300781 70.464844 148.339844 72.234375 C 146.375 74 146.214844 77.027344 147.984375 78.992188 C 154.675781 86.417969 158.015625 95.789062 158.015625 105.195312 C 158.015625 114.605469 154.675781 123.980469 147.988281 131.402344 C 146.214844 133.363281 146.375 136.390625 148.339844 138.160156 C 150.300781 139.929688 153.328125 139.769531 155.09375 137.808594 C 163.421875 128.570312 167.59375 116.867188 167.589844 105.195312 C 167.59375 93.53125 163.421875 81.824219 155.09375 72.585938 Z M 155.09375 72.585938 " fill-opacity="1" fill-rule="nonzero"/><g clip-path="url(#8e9f014eef)"><path fill="#4b4b4b" d="M 172.6875 56.746094 C 170.921875 54.78125 167.898438 54.628906 165.933594 56.398438 C 163.964844 58.164062 163.8125 61.191406 165.578125 63.15625 C 176.316406 75.066406 181.675781 90.113281 181.679688 105.195312 C 181.675781 120.277344 176.316406 135.324219 165.578125 147.242188 C 163.8125 149.203125 163.964844 152.226562 165.933594 154 C 167.898438 155.769531 170.921875 155.613281 172.695312 153.644531 C 185.0625 139.914062 191.253906 122.539062 191.25 105.195312 C 191.253906 87.855469 185.0625 70.480469 172.6875 56.746094 Z M 172.6875 56.746094 " fill-opacity="1" fill-rule="nonzero"/></g><path fill="#4b4b4b" d="M 130.726562 88.089844 C 128.761719 89.855469 128.601562 92.882812 130.371094 94.84375 C 133.023438 97.792969 134.339844 101.476562 134.347656 105.195312 C 134.339844 108.914062 133.023438 112.601562 130.371094 115.550781 C 128.601562 117.511719 128.761719 120.539062 130.726562 122.308594 C 132.6875 124.078125 135.714844 123.917969 137.480469 121.957031 C 141.765625 117.203125 143.921875 111.183594 143.917969 105.195312 C 143.921875 99.210938 141.765625 93.195312 137.480469 88.441406 C 135.714844 86.476562 132.6875 86.316406 130.726562 88.089844 Z M 130.726562 88.089844 " fill-opacity="1" fill-rule="nonzero"/><g clip-path="url(#44944eb016)"><g clip-path="url(#97956ee6aa)"><g clip-path="url(#2ec295c25b)"><g clip-path="url(#b66fab918d)"><path fill="#4b4b4b" d="M 145.308594 9.265625 C 145.621094 8.777344 145.554688 8.136719 145.144531 7.726562 C 144.734375 7.316406 144.089844 7.246094 143.601562 7.5625 C 141.902344 8.664062 139.972656 9.6875 138.058594 10.421875 C 136.140625 11.160156 134.238281 11.601562 132.625 11.597656 C 131.011719 11.601562 129.109375 11.160156 127.195312 10.421875 C 125.277344 9.6875 123.347656 8.667969 121.648438 7.5625 C 121.160156 7.25 120.519531 7.316406 120.109375 7.726562 C 119.699219 8.136719 119.628906 8.78125 119.945312 9.265625 C 121.046875 10.96875 122.070312 12.898438 122.804688 14.8125 C 123.542969 16.730469 123.984375 18.632812 123.980469 20.246094 C 123.984375 21.859375 123.542969 23.761719 122.804688 25.675781 C 122.070312 27.59375 121.046875 29.523438 119.945312 31.222656 C 119.632812 31.710938 119.699219 32.355469 120.109375 32.765625 C 120.519531 33.175781 121.164062 33.242188 121.648438 32.925781 C 123.351562 31.824219 125.28125 30.800781 127.195312 30.066406 C 129.113281 29.332031 131.015625 28.886719 132.628906 28.890625 C 134.242188 28.886719 136.144531 29.332031 138.058594 30.066406 C 139.976562 30.800781 141.90625 31.824219 143.605469 32.925781 C 144.09375 33.242188 144.734375 33.171875 145.148438 32.761719 C 145.558594 32.351562 145.625 31.707031 145.308594 31.222656 C 144.207031 29.519531 143.183594 27.589844 142.449219 25.675781 C 141.710938 23.761719 141.269531 21.855469 141.269531 20.242188 C 141.269531 18.632812 141.710938 16.726562 142.449219 14.8125 C 143.183594 12.898438 144.203125 10.96875 145.308594 9.265625 Z M 138.808594 20.246094 C 138.8125 22.292969 139.339844 24.449219 140.148438 26.558594 C 140.429688 27.285156 140.75 28 141.089844 28.707031 C 140.382812 28.367188 139.667969 28.046875 138.941406 27.769531 C 136.832031 26.960938 134.675781 26.429688 132.628906 26.425781 C 130.578125 26.429688 128.425781 26.960938 126.3125 27.765625 C 125.589844 28.046875 124.871094 28.367188 124.164062 28.707031 C 124.503906 28 124.824219 27.285156 125.105469 26.558594 C 125.910156 24.449219 126.441406 22.292969 126.445312 20.246094 C 126.441406 18.195312 125.910156 16.042969 125.105469 13.929688 C 124.824219 13.203125 124.5 12.488281 124.164062 11.78125 C 124.871094 12.121094 125.585938 12.441406 126.3125 12.722656 C 128.421875 13.53125 130.578125 14.058594 132.625 14.0625 C 134.675781 14.058594 136.828125 13.53125 138.941406 12.722656 C 139.664062 12.441406 140.378906 12.121094 141.089844 11.78125 C 140.75 12.488281 140.429688 13.203125 140.148438 13.929688 C 139.339844 16.039062 138.8125 18.195312 138.808594 20.246094 Z M 138.808594 20.246094 " fill-opacity="1" fill-rule="nonzero"/></g></g></g></g><g clip-path="url(#4a1a528452)"><g clip-path="url(#006445fb4b)"><g clip-path="url(#9de82567a3)"><g clip-path="url(#7a02d1a761)"><path fill="#4b4b4b" d="M 165.472656 12.039062 C 164.484375 12.679688 163.359375 13.277344 162.253906 13.703125 C 161.148438 14.128906 160.0625 14.375 159.183594 14.371094 C 158.308594 14.375 157.226562 14.128906 156.121094 13.703125 C 155.015625 13.277344 153.886719 12.683594 152.898438 12.039062 C 152.410156 11.726562 151.765625 11.792969 151.355469 12.203125 C 150.945312 12.613281 150.878906 13.257812 151.195312 13.742188 C 151.835938 14.734375 152.429688 15.859375 152.855469 16.964844 C 153.28125 18.070312 153.53125 19.15625 153.527344 20.035156 C 153.53125 20.910156 153.28125 21.996094 152.855469 23.101562 C 152.433594 24.207031 151.835938 25.332031 151.195312 26.324219 C 150.878906 26.808594 150.945312 27.453125 151.359375 27.863281 C 151.769531 28.273438 152.410156 28.339844 152.898438 28.023438 C 153.890625 27.382812 155.015625 26.785156 156.121094 26.363281 C 157.226562 25.9375 158.3125 25.691406 159.1875 25.695312 C 160.0625 25.691406 161.148438 25.9375 162.253906 26.363281 C 163.359375 26.785156 164.488281 27.382812 165.476562 28.023438 C 165.964844 28.339844 166.605469 28.273438 167.015625 27.863281 C 167.425781 27.453125 167.496094 26.808594 167.179688 26.320312 C 166.539062 25.332031 165.941406 24.203125 165.519531 23.097656 C 165.089844 21.996094 164.84375 20.910156 164.847656 20.03125 C 164.84375 19.15625 165.089844 18.070312 165.519531 16.964844 C 165.941406 15.859375 166.535156 14.734375 167.179688 13.742188 C 167.492188 13.253906 167.425781 12.613281 167.015625 12.203125 C 166.605469 11.792969 165.960938 11.722656 165.472656 12.039062 Z M 163.21875 16.082031 C 162.722656 17.382812 162.386719 18.71875 162.382812 20.03125 C 162.386719 21.34375 162.722656 22.683594 163.21875 23.980469 C 163.238281 24.027344 163.257812 24.074219 163.277344 24.125 C 163.230469 24.105469 163.183594 24.082031 163.136719 24.0625 C 161.835938 23.566406 160.5 23.234375 159.1875 23.230469 C 157.875 23.234375 156.539062 23.566406 155.238281 24.066406 C 155.191406 24.082031 155.144531 24.105469 155.09375 24.125 C 155.113281 24.074219 155.136719 24.03125 155.15625 23.984375 C 155.652344 22.683594 155.988281 21.34375 155.988281 20.035156 C 155.988281 18.71875 155.652344 17.382812 155.15625 16.082031 C 155.136719 16.035156 155.113281 15.988281 155.09375 15.941406 C 155.144531 15.960938 155.1875 15.984375 155.238281 16 C 156.539062 16.5 157.875 16.832031 159.183594 16.835938 C 160.5 16.832031 161.835938 16.496094 163.136719 16 C 163.183594 15.984375 163.230469 15.960938 163.277344 15.941406 C 163.257812 15.988281 163.234375 16.035156 163.21875 16.082031 Z M 163.21875 16.082031 " fill-opacity="1" fill-rule="nonzero"/></g></g></g></g><g clip-path="url(#d5a52dcfe8)"><g clip-path="url(#a1482862a5)"><g clip-path="url(#06559a45c5)"><g clip-path="url(#1f11f28b13)"><path fill="#4b4b4b" d="M 154.542969 37.707031 C 153.722656 38.238281 152.789062 38.734375 151.875 39.085938 C 150.964844 39.4375 150.074219 39.636719 149.371094 39.632812 C 148.671875 39.636719 147.78125 39.4375 146.871094 39.085938 C 145.957031 38.734375 145.019531 38.242188 144.199219 37.707031 C 143.714844 37.390625 143.070312 37.460938 142.660156 37.871094 C 142.25 38.28125 142.179688 38.925781 142.496094 39.410156 C 143.027344 40.234375 143.523438 41.167969 143.875 42.082031 C 144.226562 42.992188 144.425781 43.882812 144.421875 44.585938 C 144.425781 45.28125 144.226562 46.175781 143.875 47.089844 C 143.523438 48 143.03125 48.933594 142.496094 49.757812 C 142.183594 50.242188 142.25 50.886719 142.660156 51.296875 C 143.070312 51.707031 143.714844 51.773438 144.199219 51.460938 C 145.023438 50.925781 145.957031 50.433594 146.871094 50.082031 C 147.78125 49.730469 148.671875 49.53125 149.375 49.535156 C 150.074219 49.53125 150.964844 49.730469 151.878906 50.082031 C 152.792969 50.433594 153.726562 50.925781 154.546875 51.460938 C 155.035156 51.773438 155.675781 51.707031 156.085938 51.296875 C 156.496094 50.886719 156.566406 50.242188 156.25 49.753906 C 155.71875 48.933594 155.222656 48 154.875 47.085938 C 154.519531 46.175781 154.320312 45.285156 154.324219 44.582031 C 154.320312 43.882812 154.519531 42.992188 154.875 42.078125 C 155.222656 41.167969 155.71875 40.230469 156.246094 39.410156 C 156.5625 38.921875 156.496094 38.28125 156.085938 37.871094 C 155.675781 37.460938 155.03125 37.390625 154.542969 37.707031 Z M 151.859375 44.582031 C 151.863281 45.621094 152.109375 46.667969 152.476562 47.683594 C 151.457031 47.320312 150.414062 47.074219 149.375 47.070312 C 148.332031 47.074219 147.289062 47.320312 146.273438 47.683594 C 146.636719 46.667969 146.882812 45.625 146.886719 44.585938 C 146.882812 43.542969 146.636719 42.5 146.273438 41.484375 C 147.289062 41.847656 148.335938 42.09375 149.371094 42.097656 C 150.410156 42.09375 151.457031 41.847656 152.476562 41.480469 C 152.109375 42.5 151.863281 43.542969 151.859375 44.582031 Z M 151.859375 44.582031 " fill-opacity="1" fill-rule="nonzero"/></g></g></g></g></svg>