<svg xmlns="http://www.w3.org/2000/svg" xmlns:xlink="http://www.w3.org/1999/xlink" width="256" zoomAndPan="magnify" viewBox="0 0 192 191.999996" height="256" preserveAspectRatio="xMidYMid meet" version="1.0"><defs><clipPath id="9367d83665"><path d="M 12 40.984375 L 150 40.984375 L 150 192 L 12 192 Z M 12 40.984375 " clip-rule="nonzero"/></clipPath><clipPath id="4cecf4d472"><path d="M 58 49 L 134 49 L 134 158 L 58 158 Z M 58 49 " clip-rule="nonzero"/></clipPath><clipPath id="d0c45b408b"><path d="M 54.65625 34.082031 L 160.523438 69.144531 L 125.457031 175.015625 L 19.589844 139.949219 Z M 54.65625 34.082031 " clip-rule="nonzero"/></clipPath><clipPath id="f520527c49"><path d="M 54.65625 34.082031 L 160.523438 69.144531 L 125.457031 175.015625 L 19.589844 139.949219 Z M 54.65625 34.082031 " clip-rule="nonzero"/></clipPath><clipPath id="36a74350f7"><path d="M 54.65625 34.082031 L 160.523438 69.144531 L 125.457031 175.015625 L 19.589844 139.949219 Z M 54.65625 34.082031 " clip-rule="nonzero"/></clipPath></defs><rect x="-19.2" width="230.4" fill="#ffffff" y="-19.2" height="230.399995" fill-opacity="1"/><rect x="-19.2" width="230.4" fill="#ffffff" y="-19.2" height="230.399995" fill-opacity="1"/><g clip-path="url(#9367d83665)"><path fill="#4b4b4b" d="M 149.070312 98.882812 C 147.863281 66.703125 121.414062 40.984375 88.941406 40.984375 C 55.699219 40.984375 28.753906 67.925781 28.746094 101.164062 C 24.261719 109.800781 13.503906 131.730469 13.503906 131.730469 C 12.679688 133.378906 12.648438 135.316406 13.421875 136.996094 C 14.195312 138.675781 15.6875 139.910156 17.476562 140.359375 L 27.316406 142.820312 C 27.316406 142.820312 32.324219 165.445312 33.46875 170.695312 C 35.199219 178.644531 37.769531 180.367188 45.289062 180.367188 C 52.816406 180.367188 61.710938 177.929688 61.710938 177.929688 L 61.710938 192.191406 L 126.199219 192.191406 L 126.199219 169.621094 C 126.199219 161.449219 128.449219 151.199219 134.796875 143.535156 C 147.566406 128.121094 150.050781 111.636719 149.070312 98.882812 Z M 149.070312 98.882812 " fill-opacity="1" fill-rule="nonzero"/></g><g clip-path="url(#4cecf4d472)"><g clip-path="url(#d0c45b408b)"><g clip-path="url(#f520527c49)"><g clip-path="url(#36a74350f7)"><path fill="#ffffff" d="M 131.402344 99.015625 C 134.660156 89.191406 133.625 78.953125 129.3125 70.382812 C 125.011719 61.8125 117.414062 54.867188 107.589844 51.613281 C 97.765625 48.359375 87.523438 49.394531 78.957031 53.707031 C 70.382812 58.007812 63.4375 65.601562 60.183594 75.429688 C 58.007812 82 57.757812 88.765625 59.125 95.082031 C 59.125 95.089844 59.128906 95.097656 59.132812 95.105469 C 59.136719 95.121094 59.136719 95.136719 59.140625 95.152344 L 59.144531 95.152344 C 60.082031 99.921875 62.285156 104.160156 63.851562 107.917969 C 64.644531 109.800781 65.277344 111.546875 65.582031 113.082031 C 65.890625 114.628906 65.878906 115.914062 65.519531 117.085938 L 58.984375 136.816406 C 56.96875 142.902344 60.269531 149.46875 66.355469 151.488281 L 67.9375 152.011719 C 68.316406 154.472656 70 156.644531 72.523438 157.480469 C 75.050781 158.316406 77.699219 157.578125 79.472656 155.832031 L 81.050781 156.355469 C 87.140625 158.371094 93.707031 155.070312 95.722656 148.984375 L 102.257812 129.253906 C 102.667969 128.097656 103.425781 127.0625 104.597656 126.003906 C 106.339844 124.421875 108.964844 122.929688 111.835938 121.308594 C 114.683594 119.6875 117.773438 117.917969 120.46875 115.464844 C 120.480469 115.457031 120.488281 115.445312 120.5 115.4375 C 120.507812 115.429688 120.515625 115.425781 120.523438 115.417969 C 125.390625 111.167969 129.230469 105.589844 131.402344 99.015625 Z M 87.507812 150.917969 C 86.070312 151.640625 84.382812 151.8125 82.734375 151.269531 L 68.042969 146.402344 C 66.394531 145.855469 65.144531 144.707031 64.421875 143.273438 C 63.699219 141.835938 63.527344 140.148438 64.070312 138.5 L 64.4375 137.398438 L 87.527344 150.90625 C 87.519531 150.910156 87.515625 150.914062 87.507812 150.917969 Z M 90.636719 147.300781 C 90.515625 147.660156 90.355469 147.996094 90.179688 148.320312 L 65.585938 133.933594 L 67.882812 127 L 92.574219 141.445312 Z M 93.722656 137.976562 L 69.03125 123.53125 L 69.78125 121.261719 L 96.347656 130.058594 Z M 116.953125 111.421875 L 116.921875 111.453125 L 116.898438 111.46875 C 114.085938 114.074219 110.117188 116.074219 106.347656 118.277344 C 104.460938 119.394531 102.625 120.570312 101.007812 122.023438 C 100.023438 122.914062 99.136719 123.9375 98.398438 125.09375 L 71.101562 116.050781 C 71.199219 114.683594 71.097656 113.332031 70.835938 112.03125 C 70.191406 108.839844 68.792969 105.828125 67.484375 102.835938 C 66.164062 99.851562 64.921875 96.902344 64.390625 94.078125 L 64.382812 94.046875 L 64.375 94.007812 C 63.1875 88.578125 63.394531 82.78125 65.273438 77.113281 C 68.066406 68.675781 74 62.195312 81.359375 58.492188 C 88.722656 54.796875 97.464844 53.910156 105.902344 56.699219 C 114.339844 59.496094 120.824219 65.429688 124.523438 72.789062 C 128.21875 80.152344 129.109375 88.894531 126.316406 97.332031 C 124.4375 103 121.144531 107.773438 116.953125 111.421875 Z M 116.953125 111.421875 " fill-opacity="1" fill-rule="nonzero"/></g></g></g></g><path stroke-linecap="round" transform="matrix(0.451627, 0.598776, -0.598776, 0.451627, 43.097939, 14.771689)" fill="none" stroke-linejoin="miter" d="M 2.501109 2.500167 L 22.813676 2.503234 " stroke="#4b4b4b" stroke-width="5" stroke-opacity="1" stroke-miterlimit="4"/><path stroke-linecap="round" transform="matrix(0.219597, 0.717131, -0.717131, 0.219597, 68.735681, 3.638528)" fill="none" stroke-linejoin="miter" d="M 2.500285 2.499613 L 22.812524 2.499025 " stroke="#4b4b4b" stroke-width="5" stroke-opacity="1" stroke-miterlimit="4"/><path stroke-linecap="round" transform="matrix(-0.0389192, 0.74899, -0.74899, -0.0389192, 98.906737, 4.095111)" fill="none" stroke-linejoin="miter" d="M 2.501038 2.499232 L 22.81503 2.50239 " stroke="#4b4b4b" stroke-width="5" stroke-opacity="1" stroke-miterlimit="4"/><path stroke-linecap="round" transform="matrix(-0.292742, 0.690509, -0.690509, -0.292742, 130.906986, 13.846002)" fill="none" stroke-linejoin="miter" d="M 2.499106 2.499859 L 22.812786 2.497911 " stroke="#4b4b4b" stroke-width="5" stroke-opacity="1" stroke-miterlimit="4"/><path stroke-linecap="round" transform="matrix(-0.511255, 0.548742, -0.548742, -0.511255, 156.720681, 33.110257)" fill="none" stroke-linejoin="miter" d="M 2.499511 2.501139 L 22.81575 2.501032 " stroke="#4b4b4b" stroke-width="5" stroke-opacity="1" stroke-miterlimit="4"/><path stroke-linecap="round" transform="matrix(-0.668103, 0.34079, -0.34079, -0.668103, 173.185069, 56.704208)" fill="none" stroke-linejoin="miter" d="M 2.499024 2.498313 L 22.815271 2.500848 " stroke="#4b4b4b" stroke-width="5" stroke-opacity="1" stroke-miterlimit="4"/><path stroke-linecap="round" transform="matrix(-0.744369, 0.0917328, -0.0917328, -0.744369, 181.568619, 83.375539)" fill="none" stroke-linejoin="miter" d="M 2.502097 2.502624 L 22.810878 2.502221 " stroke="#4b4b4b" stroke-width="5" stroke-opacity="1" stroke-miterlimit="4"/></svg>