<svg version="1.1" fill="currentColor" xmlns="http://www.w3.org/2000/svg" xmlns:xlink="http://www.w3.org/1999/xlink" x="0px" y="0px" width="512px" height="512px" viewBox="0 0 512 512" style="width: 256px; height: 256px; opacity: 1;" xml:space="preserve">
<g>
	<path d="M44,45.344v421.313C44,491.688,64.313,512,89.375,512H112V0H89.375C64.313,0,44,20.313,44,45.344z" style="fill: rgb(75, 75, 75);"></path>
	<path d="M422.625,0H136v512h286.625C447.688,512,468,491.688,468,466.656V45.344C468,20.313,447.688,0,422.625,0z
		 M293.625,363.125h-94.344L201.219,338c1.75-9.547,8.031-17.656,16.844-21.688L256,300.797c6.313-2.906,10.375-9.234,10.375-16.203
		v-5.578c0-2.641-0.438-5.266-1.281-7.766c0,0-23.875-31.844-23.875-61.203c0-36.703,23.469-60.297,52.406-60.297
		c28.969,0,52.438,23.594,52.438,60.297c0,29.359-23.875,61.203-23.875,61.203c-0.875,2.5-1.281,5.125-1.281,7.766v5.578
		c0,6.969,4.031,13.297,10.375,16.203l37.938,15.516c8.813,4.031,15.094,12.141,16.844,21.688L388,363.125H293.625z" style="fill: rgb(75, 75, 75);"></path>
</g>
</svg>
