<svg xmlns="http://www.w3.org/2000/svg" width="454.8" height="317.874" viewBox="0 0 454.8 317.874"><defs><style>.a{fill:#fce0cd;}.b{fill:#fff;}.c{fill:#d9d9d9;}.d{fill:#7a7473;}.e{fill:#efc0a0;}.f{fill:#645d5c;}</style></defs><path class="a" d="M282.8,194.174a.987.987,0,0,0,1.491.766,6.733,6.733,0,0,1,3.173-.806,5.985,5.985,0,0,1,5.486,2.778c1.946,3.095,2.093,8.93,1.007,12.585-.769,2.589-2.041,6.553-5.359,9.488a7.107,7.107,0,0,1-5.415,1.791l-.529-.068a41.6,41.6,0,0,1-1.688,5.186c-1.241,3.815-8.367,17.257-17.838,22.847a40.378,40.378,0,0,0,.964,7.5,6.545,6.545,0,0,0,3.038,4.024c2.234,1.488,6.72,2.614,10.325,3.241-.072.073-.107.111-.107.111-6.7,7.249-19.287,11.268-32.324,11.809-13.31.47-27.415-3.194-33.517-9.687,3.112-.923,6.878-1.837,9.45-3.4a8.406,8.406,0,0,0,3.268-4.942,61.72,61.72,0,0,0,.054-7.185,38.02,38.02,0,0,1-11.833-9.248,49.036,49.036,0,0,1-9.972-17.183,6.975,6.975,0,0,1-5.982-1.258c-3.534-2.671-5.1-6.526-6.071-9.048-1.364-3.562-1.665-9.391.039-12.626a5.981,5.981,0,0,1,5.256-3.19,6.728,6.728,0,0,1,3.206.551.989.989,0,0,0,1.365-.97c-.428-8.526.49-42.184,41.673-42.184C277.91,155.056,282.269,186.2,282.8,194.174Z"/><path class="b" d="M160.83,315.485c1-5.394,2.325-11.07,4.123-17.545,3.214-7.937,6.911-13.468,13.013-17.682,8.089-5.585,16.6-9.675,33.129-14.976,5.857,6.778,20.307,10.624,33.925,10.143,13.385-.555,26.3-4.777,32.847-12.4,10.032,2.18,20.359,4.685,29.273,9.873a37.715,37.715,0,0,1,9.69,7.483,50,50,0,0,1,7,10.1c4.141,7.828,6.139,16.337,7.456,25Z"/><path class="c" d="M163.144,316.12q.784-4.2,1.76-8.366a93.26,93.26,0,0,1,2.36-9.174,35.691,35.691,0,0,1,7.339-12.27,43.027,43.027,0,0,1,9.9-7.385,92.46,92.46,0,0,1,10.866-5.421c5.722-2.423,11.631-4.407,17.549-6.288,2.933-.932,1.68-5.568-1.276-4.629-9.787,3.112-19.637,6.525-28.59,11.631a53.739,53.739,0,0,0-10.627,7.467,40.069,40.069,0,0,0-8.663,12.956,60.34,60.34,0,0,0-3.129,10.339q-1.188,4.9-2.117,9.864a2.465,2.465,0,0,0,1.676,2.952,2.422,2.422,0,0,0,2.952-1.676Z"/><path class="c" d="M274.608,264.773c10.436,2.247,21.159,4.5,30.562,9.769a38.719,38.719,0,0,1,11.535,9.377,49.937,49.937,0,0,1,7.781,13.826,91.3,91.3,0,0,1,4.487,18.378,2.417,2.417,0,0,0,2.953,1.676,2.46,2.46,0,0,0,1.676-2.952c-1.755-11.437-4.913-22.859-11.914-32.273a41.524,41.524,0,0,0-11.886-10.88,71.62,71.62,0,0,0-15.44-6.916c-6.05-1.949-12.27-3.3-18.478-4.634-3.012-.648-4.3,3.978-1.276,4.629Z"/><path class="d" d="M287.756,162.6c-2.281-6.16-5.837-11.547-10.847-15.252h0l-5.7-5.535h0c-6.53-7.955-16.805-12.009-31.262-12.088-18.284.084-31.59,8.536-37.675,16.415a.938.938,0,0,0,.1,1.248h0a.936.936,0,0,1,0,1.347c-11.755,11.635-15.354,31.175-8.592,49.292h0a7.937,7.937,0,0,1,1.925-.37,6.563,6.563,0,0,1,4.166,1.089.925.925,0,0,0,1.14-.092s18.948-19.6,24.931-23.04c.7-.4,1.645.07,1.982,1.259a7.89,7.89,0,0,1,.3,2.865,1.5,1.5,0,0,0,2.193,1.524c4.159-2.523,11.457-7.5,16.852-10.1a6.527,6.527,0,0,1,2.714-.561,28.509,28.509,0,0,1,5.835,1.021.987.987,0,0,1,.273.064,26.378,26.378,0,0,1,7.592,4.4c5.135,4.087,10.127,9.771,12.442,15,0,0,.442,1.118.861,2.333a2.006,2.006,0,0,0,1.333,1.274l4.541,1.321h0a6.452,6.452,0,0,1,4.59-1.882,7.751,7.751,0,0,1,2.19.288C291.8,184.317,291.409,172.469,287.756,162.6Z"/><path class="a" d="M211.907,266.008a27.267,27.267,0,0,1,4.7-9.218,39.653,39.653,0,0,1,5.894-6.49,17.01,17.01,0,0,1,8.667-3.326,70.067,70.067,0,0,1,14.141-.421,3.793,3.793,0,0,1,3.629,3.771,3.706,3.706,0,0,1-3.141,3.451c-2.151.333-5.12.428-8.694,1.077-4.09.743-4.2,1.123-6.218,3l-.187.28c4.018-.082,8.8.152,10.922,1.121.8.363,3.7,2.051,4.419,2.549,3.389,2.344,5.154,4.05,6.208,6.237a4.982,4.982,0,0,1-.209,3.69c-.417.847-1.825,1.961-4.044,1.264a4.664,4.664,0,0,1,1.4,4.562,4.443,4.443,0,0,1-4.086,3.131c.9.851.407,3.124-.293,4.107-.732,1.028-2.811,1.111-3.9.722a18.4,18.4,0,0,0-2.824-.9c-.061.314-.095.494-.095.494-.214,1.113-.65,3.7-1.007,4.774-1.006,3.135-2.449,6.608-5.317,8.291a46.65,46.65,0,0,1-4.382,1.764c-1.239.58-2.34,3.417-3,5.408a.08.08,0,0,1-.1.051c-6.222-2.044-13.511-4.54-19.345-6.42a.745.745,0,0,1-.471-.963c.957-2.689,1.579-4.139,2.171-5.923a85.392,85.392,0,0,0,2-9.052c1.178-7.994,1.541-11.135,2.591-15.139C211.527,267.232,211.716,266.6,211.907,266.008Z"/><path class="c" d="M0,2.318A75.362,75.362,0,0,0,8.07,36.952,63.4,63.4,0,0,0,30.053,61.01,66.885,66.885,0,0,0,47.3,68.774L45.539,66.46c.05,12.592,3.306,25.307,10.591,35.7a55.477,55.477,0,0,0,28.117,20.748,63.9,63.9,0,0,0,21.443,3.111l-2.073-1.188a63.643,63.643,0,0,0,21,22.03,69.593,69.593,0,0,0,30,10.138,83.007,83.007,0,0,0,21.677-.634,2.416,2.416,0,0,0,1.676-2.952,2.458,2.458,0,0,0-2.952-1.676c-20.511,3.218-42.632-1.851-57.63-16.737a59.151,59.151,0,0,1-9.622-12.592,2.4,2.4,0,0,0-2.072-1.189,56.421,56.421,0,0,1-32.82-9.144,50.316,50.316,0,0,1-19.261-25.41,62.83,62.83,0,0,1-3.27-20.2,2.452,2.452,0,0,0-1.762-2.314A60.228,60.228,0,0,1,22.346,48.6,61.132,61.132,0,0,1,7.265,21.676,75.11,75.11,0,0,1,4.8,2.318C4.793-.77-.007-.776,0,2.318Z"/><path class="c" d="M307.85,157c19.208-.046,38.39-7.135,50.607-22.442a60.686,60.686,0,0,0,8.026-13.151l-2.072,1.189c19.164-.069,38.528-4.924,54.315-16.08A84.047,84.047,0,0,0,449.82,63.708a106.43,106.43,0,0,0,4.98-32.831c0-3.089-4.8-3.093-4.8,0-.027,18.215-4.4,36.469-14.546,51.738a77.518,77.518,0,0,1-39.632,30.179,98.474,98.474,0,0,1-31.411,5,2.356,2.356,0,0,0-2.072,1.188,55.382,55.382,0,0,1-15.214,20.26A56.477,56.477,0,0,1,324.042,150.4a71.239,71.239,0,0,1-16.192,1.8c-3.088.008-3.094,4.808,0,4.8Z"/><path class="e" d="M239.364,232.52c.3-.172.593-.34.9-.493a3.54,3.54,0,0,0,.546-.255c-.385.3-.351.144-.065.036.116-.044.234-.086.351-.126a13.3,13.3,0,0,1,1.789-.47c.2-.039.407-.071.611-.1-.362.06-.056.007.138-.014q.677-.072,1.357-.1a17.527,17.527,0,0,1,2.457.068c.266.027.4.064.055,0,.181.033.363.06.545.1.273.055.544.119.813.194s.51.159.763.247c.446.156-.132,0-.155-.072a2.352,2.352,0,0,0,.318.148,6.159,6.159,0,0,1,.868.521,2.411,2.411,0,0,0,3.284-.861,2.467,2.467,0,0,0-.861-3.284c-2.255-1.622-5.4-1.96-8.087-1.859a17.079,17.079,0,0,0-8.049,2.179,2.4,2.4,0,1,0,2.423,4.145Z"/><path class="e" d="M243.088,211.6c.205.676.4,1.357.576,2.039a18.3,18.3,0,0,1,.5,2.175l-.086-.638a2.222,2.222,0,0,1,.009.439l.085-.638a1.24,1.24,0,0,1-.065.262l.242-.573a.941.941,0,0,1-.1.167l.376-.486a.629.629,0,0,1-.094.092l.485-.375a2.629,2.629,0,0,1-.4.224l.573-.242a2.247,2.247,0,0,1-.526.152l.638-.085a2.359,2.359,0,0,1-.557,0l.638.086c-.368-.05-.733-.116-1.1-.151a2.4,2.4,0,0,0-1.7.7,2.4,2.4,0,0,0,0,3.394,2.722,2.722,0,0,0,1.7.7l.1.01-.638-.085a8.489,8.489,0,0,0,1.364.161,4.637,4.637,0,0,0,2.1-.578,3.115,3.115,0,0,0,1.585-2.029,4.984,4.984,0,0,0-.073-2.183c-.27-1.286-.619-2.558-1-3.815a2.509,2.509,0,0,0-1.1-1.434,2.4,2.4,0,0,0-3.525,2.71Z"/><path class="f" d="M221.348,200.852c-.6,2.244.044,7.329,4.262,7.6,5.552-.247,5.611-6.427,3.63-9.255C227.618,196.883,223.079,196.068,221.348,200.852Z"/><path class="f" d="M265.821,199.144c.768,2.191.519,7.311-3.666,7.906-5.555.18-6.087-5.977-4.329-8.949C259.265,195.667,263.728,194.507,265.821,199.144Z"/><path class="f" d="M220.244,187.486a9.7,9.7,0,0,1-1.255,1.114l.485-.376a15.421,15.421,0,0,1-3.26,2.051l.574-.242a3,3,0,0,1-.344.123,2.486,2.486,0,0,0-1.434,1.1,2.4,2.4,0,0,0,.861,3.283,2.484,2.484,0,0,0,1.849.242,7.88,7.88,0,0,0,1.616-.71c.494-.272.971-.575,1.437-.891.628-.426,1.234-.885,1.826-1.36a8.6,8.6,0,0,0,1.039-.943,2.526,2.526,0,0,0,.7-1.7,2.439,2.439,0,0,0-.7-1.7,2.4,2.4,0,0,0-3.394,0Z"/><path class="e" d="M225.9,260.808a60.032,60.032,0,0,1,8.438-.26,32.98,32.98,0,0,1,4.118.333c.592.1,1.165.243,1.745.392.139.043.277.089.413.139q-.369-.166-.076-.029c.215.1.425.218.635.332a30.316,30.316,0,0,1,7.149,4.958c.746.745,1.772,1.8,1.791,2.841a3.375,3.375,0,0,1-.156.977c-.127.467.143-.085-.046.125a.359.359,0,0,1-.19.13,1.557,1.557,0,0,1-.843,0c-3.012-.653-4.3,3.973-1.277,4.629,3.887.843,6.924-1.366,7.283-5.308.3-3.347-2.241-6.148-4.661-8.121a38.4,38.4,0,0,0-7.109-4.631,19.636,19.636,0,0,0-7.761-1.523,59.441,59.441,0,0,0-9.453.216,2.47,2.47,0,0,0-2.4,2.4,2.417,2.417,0,0,0,2.4,2.4Z"/><path class="e" d="M231.679,269.07a18.686,18.686,0,0,1,6.86,1.217c-.078-.03.834.34.433.17.238.1.474.207.709.315q.741.338,1.468.7c1.02.515,2.023,1.066,3,1.665.425.262.846.534,1.256.82.066.047.587.429.391.278s.261.218.31.261a3.048,3.048,0,0,1,.736.844,2.307,2.307,0,0,1,.284.8c.01.122-.006.694.008.582.031-.237-.117.4-.112.425q-.085.246.081-.173c-.039.083-.082.165-.129.244-.04.057-.388.54-.2.321s-.263.241-.32.291q-.186.16.047-.032c-.1.066-.194.127-.3.184a3.029,3.029,0,0,1-.884.3,2.468,2.468,0,0,0-2.4,2.4,2.416,2.416,0,0,0,2.4,2.4c2.872-.285,5.637-1.939,6.4-4.893.869-3.364-.9-6.188-3.517-8.1a28.654,28.654,0,0,0-16.518-5.816c-3.089-.015-3.093,4.785,0,4.8Z"/><path class="e" d="M233.28,277.878c.089.011.475.061.019,0l.324.046c.249.037.5.077.747.12.526.091,1.049.2,1.567.322q.723.176,1.432.4.359.115.711.246c.1.037.2.076.3.116.158.062.447.194.135.053a25.183,25.183,0,0,1,4.753,2.933c.043.032.416.316.214.162-.185-.142.127.1.131.1.094.041.36.547-.153-.2.041.06.157.3-.016-.057s-.043-.086-.025.029c.04.25-.026-.305-.034-.291a2.12,2.12,0,0,0,0,.6c0,.359-.093-.128.029-.175a1.5,1.5,0,0,0-.045.231c-.048.174-.083.351-.138.524-.023.071-.057.143-.074.214-.071.3.239-.416.075-.173-.071.106-.371.581-.106.261.241-.291.081-.1.024-.045-.276.282.135-.138.169-.125a1.279,1.279,0,0,0-.183.1c-.262.143.473-.119.172-.073-.168.026-.35.094-.515.133-.07.017-.35.066.01,0,.4-.072-.084-.009-.148-.008-.176,0-.363-.029-.536-.015-.243.02.253.034.273.044a1.471,1.471,0,0,0-.273-.051,6.828,6.828,0,0,1-.866-.291,14.264,14.264,0,0,0-3.487-.879,5.858,5.858,0,0,0-3.694.97,2.4,2.4,0,0,0,2.422,4.145c.108-.067.221-.128.328-.2.383-.242.008-.043-.053,0a4.046,4.046,0,0,1,.678-.2c.026.087-.622-.038-.2.045.126.024.287.019.412.03-.1-.009-.471-.094-.022.008.167.038.336.071.5.113.881.22,1.7.624,2.571.858,2.242.6,5.074.1,6.409-1.948,1.13-1.733,1.56-4.481.416-6.3a6.575,6.575,0,0,0-1.758-1.614c-.485-.367-.976-.727-1.477-1.073a22.168,22.168,0,0,0-2.647-1.59,25.281,25.281,0,0,0-8.381-2.3,2.4,2.4,0,0,0-2.4,2.4,2.473,2.473,0,0,0,2.4,2.4Z"/><path class="e" d="M232.587,259.549c.394-.369.788-.738,1.185-1.1.082-.075.17-.141.252-.215-.053.048-.452.285-.114.089.2-.114.4-.239.6-.361.445-.281-.333.082.231-.095.274-.085.546-.17.824-.242.845-.219,1.708-.376,2.567-.525,1.679-.29,3.371-.454,5.065-.621a13.442,13.442,0,0,0,4.815-.947,5.97,5.97,0,0,0,1.777-9.295c-2.175-2.438-5.694-2.223-8.681-2.259a56.98,56.98,0,0,0-12.7,1.055,2.4,2.4,0,0,0,1.276,4.628,49.125,49.125,0,0,1,9.686-.881q1.956-.029,3.91.059c.6.025,1.192.083,1.787.1.514.013.16.009.036-.015.109.021.216.046.322.074.059.015.5.165.244.063-.213-.086.187.106.226.129s.425.308.232.146c-.176-.149.1.117.109.122.171.187.145.118.179.226a1.372,1.372,0,0,1,.029,1.067c.089-.2-.139.147-.131.136a1.767,1.767,0,0,1-.274.266c.235-.189-.092.047-.123.065,0,0-.358.189-.15.095.226-.1-.213.065-.267.078-.111.026-.221.048-.332.07-.725.149.238-.025-.207.032-3.166.405-6.34.6-9.477,1.237a11.583,11.583,0,0,0-3.669,1.242,15.977,15.977,0,0,0-2.616,2.187c-2.262,2.113,1.138,5.5,3.394,3.394Z"/></svg>