<svg xmlns="http://www.w3.org/2000/svg" width="454.8" height="317.874" viewBox="0 0 454.8 317.874"><defs><style>.a{fill:#211715;}</style></defs><path class="a" d="M0,2.318A75.362,75.362,0,0,0,8.07,36.952,63.4,63.4,0,0,0,30.053,61.01,66.885,66.885,0,0,0,47.3,68.774L45.539,66.46c.05,12.592,3.306,25.307,10.591,35.7a55.477,55.477,0,0,0,28.117,20.748,63.9,63.9,0,0,0,21.443,3.111l-2.073-1.188a63.643,63.643,0,0,0,21,22.03,69.593,69.593,0,0,0,30,10.138,83.007,83.007,0,0,0,21.677-.634,2.416,2.416,0,0,0,1.676-2.952,2.458,2.458,0,0,0-2.952-1.676c-20.511,3.218-42.632-1.851-57.63-16.737a59.151,59.151,0,0,1-9.622-12.592,2.4,2.4,0,0,0-2.072-1.189,56.421,56.421,0,0,1-32.82-9.144,50.316,50.316,0,0,1-19.261-25.41,62.83,62.83,0,0,1-3.27-20.2,2.452,2.452,0,0,0-1.762-2.314A60.228,60.228,0,0,1,22.346,48.6,61.132,61.132,0,0,1,7.265,21.676,75.11,75.11,0,0,1,4.8,2.318C4.793-.77-.007-.776,0,2.318Z"/><path class="a" d="M307.85,157c19.208-.046,38.39-7.135,50.607-22.442a60.686,60.686,0,0,0,8.026-13.151l-2.072,1.189c19.164-.069,38.528-4.924,54.315-16.08A84.047,84.047,0,0,0,449.82,63.708a106.43,106.43,0,0,0,4.98-32.831c0-3.089-4.8-3.093-4.8,0-.027,18.215-4.4,36.469-14.546,51.738a77.518,77.518,0,0,1-39.632,30.179,98.474,98.474,0,0,1-31.411,5,2.356,2.356,0,0,0-2.072,1.188,55.382,55.382,0,0,1-15.214,20.26A56.477,56.477,0,0,1,324.042,150.4a71.239,71.239,0,0,1-16.192,1.8c-3.088.008-3.094,4.808,0,4.8Z"/><path class="a" d="M196.02,197.175c-4.6-12.643-4.572-27.271,2.241-39.142a36.043,36.043,0,0,1,6.514-8.274c2.248-2.128-1.15-5.518-3.394-3.394-10.478,9.924-14.68,25-13.036,39.113a57.134,57.134,0,0,0,3.047,12.973,2.463,2.463,0,0,0,2.952,1.676,2.42,2.42,0,0,0,1.676-2.952Z"/><path class="a" d="M275.7,149.423c10.04,7.522,13.084,21.626,12.853,33.492a58.653,58.653,0,0,1-1.166,10.636,2.459,2.459,0,0,0,1.677,2.952,2.422,2.422,0,0,0,2.952-1.676c2.765-13.5,1.71-29.225-5.955-41.044a32.912,32.912,0,0,0-7.939-8.5,2.414,2.414,0,0,0-3.283.861,2.456,2.456,0,0,0,.861,3.283Z"/><path class="a" d="M202.132,197.488a9.429,9.429,0,0,0-10.3-1.228,9.022,9.022,0,0,0-4.558,6.533,23.353,23.353,0,0,0,4.25,18.018c2.706,3.63,6.443,6.2,11.139,5.4a2.419,2.419,0,0,0,1.676-2.952,2.455,2.455,0,0,0-2.952-1.677c-3.013.517-5.48-2.578-6.825-4.847a19.817,19.817,0,0,1-2.744-7.593c-.3-2.43-.362-5.5,1.03-7.62.306-.465-.09.067.234-.285.039-.043.5-.473.286-.3a4.022,4.022,0,0,1,1.6-.739,4.328,4.328,0,0,1,3.774.691,2.468,2.468,0,0,0,3.394,0,2.418,2.418,0,0,0,0-3.394Z"/><path class="a" d="M284.565,197.715a4.359,4.359,0,0,1,3.782-1.135,3.431,3.431,0,0,1,2.48,1.436c-.237-.3-.056-.081.046.107.147.27.313.522.439.8a10.258,10.258,0,0,1,.593,1.98,17.169,17.169,0,0,1,.3,4.514,19.556,19.556,0,0,1-2.044,7.479c-1.358,2.759-3.556,5.8-6.978,5.476a2.417,2.417,0,0,0-2.4,2.4,2.451,2.451,0,0,0,2.4,2.4c7.364.688,11.558-7.335,13.174-13.342a22.139,22.139,0,0,0,.217-10.027,10.1,10.1,0,0,0-4.262-6.822,9.363,9.363,0,0,0-11.137,1.336c-2.223,2.153,1.173,5.546,3.394,3.394Z"/><path class="a" d="M281,217.014a40.186,40.186,0,0,1-1.313,5.328c-.432,1.385-.8,2.321-1.174,3.312-.058.151-.117.3-.174.454-.17.455-.009.032-.033.088-.19.427-.381.853-.583,1.274-.464.968-.964,1.918-1.486,2.856a51.115,51.115,0,0,1-10.488,13.532,20.273,20.273,0,0,1-7.925,4.565c-2.976.812-1.713,5.444,1.276,4.628,6.271-1.711,11.345-6.442,15.3-11.412a57.954,57.954,0,0,0,8.454-13.972c.139-.339.272-.681.392-1.027-.241.7.258-.653.342-.876.144-.379.277-.762.406-1.146a41.27,41.27,0,0,0,1.637-6.328,2.472,2.472,0,0,0-1.677-2.952A2.419,2.419,0,0,0,281,217.014Z"/><path class="a" d="M199.216,221.29c3.29,12.327,11.375,24.436,22.843,30.494,2.729,1.442,5.158-2.7,2.422-4.145-10.416-5.5-17.65-16.435-20.637-27.625-.8-2.982-5.427-1.717-4.628,1.276Z"/><path class="a" d="M239.364,232.52c.3-.172.593-.34.9-.493a3.54,3.54,0,0,0,.546-.255c-.385.3-.351.144-.065.036.116-.044.234-.086.351-.126a13.3,13.3,0,0,1,1.789-.47c.2-.039.407-.071.611-.1-.362.06-.056.007.138-.014q.677-.072,1.357-.1a17.527,17.527,0,0,1,2.457.068c.266.027.4.064.055,0,.181.033.363.06.545.1.273.055.544.119.813.194s.51.159.763.247c.446.156-.132,0-.155-.072a2.352,2.352,0,0,0,.318.148,6.159,6.159,0,0,1,.868.521,2.411,2.411,0,0,0,3.284-.861,2.467,2.467,0,0,0-.861-3.284c-2.255-1.622-5.4-1.96-8.087-1.859a17.079,17.079,0,0,0-8.049,2.179,2.4,2.4,0,1,0,2.423,4.145Z"/><path class="a" d="M243.088,211.6c.205.676.4,1.357.576,2.039a18.3,18.3,0,0,1,.5,2.175l-.086-.638a2.222,2.222,0,0,1,.009.439l.085-.638a1.24,1.24,0,0,1-.065.262l.242-.573a.941.941,0,0,1-.1.167l.376-.486a.629.629,0,0,1-.094.092l.485-.375a2.629,2.629,0,0,1-.4.224l.573-.242a2.247,2.247,0,0,1-.526.152l.638-.085a2.359,2.359,0,0,1-.557,0l.638.086c-.368-.05-.733-.116-1.1-.151a2.4,2.4,0,0,0-1.7.7,2.4,2.4,0,0,0,0,3.394,2.722,2.722,0,0,0,1.7.7l.1.01-.638-.085a8.489,8.489,0,0,0,1.364.161,4.637,4.637,0,0,0,2.1-.578,3.115,3.115,0,0,0,1.585-2.029,4.984,4.984,0,0,0-.073-2.183c-.27-1.286-.619-2.558-1-3.815a2.509,2.509,0,0,0-1.1-1.434,2.4,2.4,0,0,0-3.525,2.71Z"/><path class="a" d="M221.348,200.852c-.6,2.244.044,7.329,4.262,7.6,5.552-.247,5.611-6.427,3.63-9.255C227.618,196.883,223.079,196.068,221.348,200.852Z"/><path class="a" d="M265.821,199.144c.768,2.191.519,7.311-3.666,7.906-5.555.18-6.087-5.977-4.329-8.949C259.265,195.667,263.728,194.507,265.821,199.144Z"/><path class="a" d="M220.244,187.486a9.7,9.7,0,0,1-1.255,1.114l.485-.376a15.421,15.421,0,0,1-3.26,2.051l.574-.242a3,3,0,0,1-.344.123,2.486,2.486,0,0,0-1.434,1.1,2.4,2.4,0,0,0,.861,3.283,2.484,2.484,0,0,0,1.849.242,7.88,7.88,0,0,0,1.616-.71c.494-.272.971-.575,1.437-.891.628-.426,1.234-.885,1.826-1.36a8.6,8.6,0,0,0,1.039-.943,2.526,2.526,0,0,0,.7-1.7,2.439,2.439,0,0,0-.7-1.7,2.4,2.4,0,0,0-3.394,0Z"/><path class="a" d="M211.412,263.257c-.874.264-1.749.526-2.61.83a2.69,2.69,0,0,0-1.434,1.1,1.778,1.778,0,0,0-.285.893,1.812,1.812,0,0,0,.043.957,2.429,2.429,0,0,0,1.1,1.434,2.38,2.38,0,0,0,1.849.242c.861-.3,1.736-.567,2.61-.83a2.51,2.51,0,0,0,1.434-1.1,1.774,1.774,0,0,0,.285-.892,1.812,1.812,0,0,0-.043-.957,2.431,2.431,0,0,0-1.1-1.435,2.457,2.457,0,0,0-1.849-.242Z"/><path class="a" d="M278.057,261.185a51.871,51.871,0,0,1-5.55-1.264c-.883-.258-1.751-.552-2.606-.889.384.151,0,0-.161-.075s-.342-.161-.509-.247a9.215,9.215,0,0,1-.893-.518c-.162-.107-.319-.221-.476-.335.442.322-.077-.08-.132-.129-.152-.135-.3-.276-.439-.422-.04-.042-.475-.554-.158-.142a5.246,5.246,0,0,1-.348-.521c-.026-.045-.33-.657-.132-.191a7.575,7.575,0,0,1-.365-1.349q-.162-.733-.289-1.473c-.041-.243-.078-.487-.117-.73a1.779,1.779,0,0,1-.046-.342c-.126-1.118-.219-2.237-.286-3.36a2.4,2.4,0,0,0-4.8,0,46.372,46.372,0,0,0,.909,7.181A9.225,9.225,0,0,0,265.44,262a17.463,17.463,0,0,0,5.24,2.383,49.971,49.971,0,0,0,6.1,1.43,2.456,2.456,0,0,0,2.952-1.676,2.431,2.431,0,0,0-1.676-2.953Z"/><path class="a" d="M255.326,173.947a32.852,32.852,0,0,1,10.515,7.233,37.176,37.176,0,0,1,8.218,11.12,2.416,2.416,0,0,0,3.283.861,2.457,2.457,0,0,0,.861-3.283,41.074,41.074,0,0,0-9.226-12.342,48.107,48.107,0,0,0-6.238-5.121,30.852,30.852,0,0,0-6.137-3.1A2.418,2.418,0,0,0,253.649,171a2.456,2.456,0,0,0,1.677,2.952Z"/><path class="a" d="M208.508,195.1a92.31,92.31,0,0,1,15.8-15.525c.644-.471,1.3-.927,1.976-1.352.2-.126.737-.329.879-.532,1.059-1.509-1.814.615-1.569-.228-.039.132.143.487.176.669.159.858-.035,1.731.156,2.585a4.073,4.073,0,0,0,1.9,2.645c1.934,1.106,3.646.1,5.3-.94,1.486-.932,2.961-1.881,4.443-2.82a106.9,106.9,0,0,1,11.387-6.585,2.422,2.422,0,0,0,.861-3.284,2.455,2.455,0,0,0-3.284-.861,97.306,97.306,0,0,0-10.084,5.763c-1.6,1.006-3.193,2.028-4.79,3.04-.654.414-1.308.827-1.967,1.232-.058.035-.474.28-.471.288a7.072,7.072,0,0,1,1.158.144c.3.131.068.532.269.246.1-.15.017-.615.008-.813-.09-2.1-.709-4.571-2.869-5.42-1.93-.759-3.565.444-5.092,1.5a72.03,72.03,0,0,0-8.9,7.522,120.026,120.026,0,0,0-8.67,9.328,2.467,2.467,0,0,0,0,3.394,2.42,2.42,0,0,0,3.4,0Z"/><path class="a" d="M203.842,148.021a33.33,33.33,0,0,1,3.511-3.895,36.979,36.979,0,0,1,4.811-3.836,47.043,47.043,0,0,1,13.17-6.1c10.391-3.009,22.418-3.01,32.577.94a28.419,28.419,0,0,1,11.6,8.381,2.418,2.418,0,0,0,3.394,0,2.453,2.453,0,0,0,0-3.394c-6.913-8.333-17.439-11.79-27.935-12.592-11.819-.9-24.051,1.546-34.146,7.914A40.161,40.161,0,0,0,199.7,145.6a2.416,2.416,0,0,0,.861,3.283,2.453,2.453,0,0,0,3.283-.861Z"/><path class="a" d="M163.144,316.12q.784-4.2,1.76-8.366a93.26,93.26,0,0,1,2.36-9.174,35.691,35.691,0,0,1,7.339-12.27,43.027,43.027,0,0,1,9.9-7.385,92.46,92.46,0,0,1,10.866-5.421c5.722-2.423,11.631-4.407,17.549-6.288,2.933-.932,1.68-5.568-1.276-4.629-9.787,3.112-19.637,6.525-28.59,11.631a53.739,53.739,0,0,0-10.627,7.467,40.069,40.069,0,0,0-8.663,12.956,60.34,60.34,0,0,0-3.129,10.339q-1.188,4.9-2.117,9.864a2.465,2.465,0,0,0,1.676,2.952,2.422,2.422,0,0,0,2.952-1.676Z"/><path class="a" d="M274.608,264.773c10.436,2.247,21.159,4.5,30.562,9.769a38.719,38.719,0,0,1,11.535,9.377,49.937,49.937,0,0,1,7.781,13.826,91.3,91.3,0,0,1,4.487,18.378,2.417,2.417,0,0,0,2.953,1.676,2.46,2.46,0,0,0,1.676-2.952c-1.755-11.437-4.913-22.859-11.914-32.273a41.524,41.524,0,0,0-11.886-10.88,71.62,71.62,0,0,0-15.44-6.916c-6.05-1.949-12.27-3.3-18.478-4.634-3.012-.648-4.3,3.978-1.276,4.629Z"/><path class="a" d="M249.35,277.512c10.556-1.1,22.181-4.2,29.687-12.2,2.112-2.252-1.276-5.653-3.394-3.394-6.6,7.04-17,9.825-26.293,10.8a2.468,2.468,0,0,0-2.4,2.4,2.417,2.417,0,0,0,2.4,2.4Z"/><path class="a" d="M225.9,260.808a60.032,60.032,0,0,1,8.438-.26,32.98,32.98,0,0,1,4.118.333c.592.1,1.165.243,1.745.392.139.043.277.089.413.139q-.369-.166-.076-.029c.215.1.425.218.635.332a30.316,30.316,0,0,1,7.149,4.958c.746.745,1.772,1.8,1.791,2.841a3.375,3.375,0,0,1-.156.977c-.127.467.143-.085-.046.125a.359.359,0,0,1-.19.13,1.557,1.557,0,0,1-.843,0c-3.012-.653-4.3,3.973-1.277,4.629,3.887.843,6.924-1.366,7.283-5.308.3-3.347-2.241-6.148-4.661-8.121a38.4,38.4,0,0,0-7.109-4.631,19.636,19.636,0,0,0-7.761-1.523,59.441,59.441,0,0,0-9.453.216,2.47,2.47,0,0,0-2.4,2.4,2.417,2.417,0,0,0,2.4,2.4Z"/><path class="a" d="M231.679,269.07a18.686,18.686,0,0,1,6.86,1.217c-.078-.03.834.34.433.17.238.1.474.207.709.315q.741.338,1.468.7c1.02.515,2.023,1.066,3,1.665.425.262.846.534,1.256.82.066.047.587.429.391.278s.261.218.31.261a3.048,3.048,0,0,1,.736.844,2.307,2.307,0,0,1,.284.8c.01.122-.006.694.008.582.031-.237-.117.4-.112.425q-.085.246.081-.173c-.039.083-.082.165-.129.244-.04.057-.388.54-.2.321s-.263.241-.32.291q-.186.16.047-.032c-.1.066-.194.127-.3.184a3.029,3.029,0,0,1-.884.3,2.468,2.468,0,0,0-2.4,2.4,2.416,2.416,0,0,0,2.4,2.4c2.872-.285,5.637-1.939,6.4-4.893.869-3.364-.9-6.188-3.517-8.1a28.654,28.654,0,0,0-16.518-5.816c-3.089-.015-3.093,4.785,0,4.8Z"/><path class="a" d="M233.28,277.878c.089.011.475.061.019,0l.324.046c.249.037.5.077.747.12.526.091,1.049.2,1.567.322q.723.176,1.432.4.359.115.711.246c.1.037.2.076.3.116.158.062.447.194.135.053a25.183,25.183,0,0,1,4.753,2.933c.043.032.416.316.214.162-.185-.142.127.1.131.1.094.041.36.547-.153-.2.041.06.157.3-.016-.057s-.043-.086-.025.029c.04.25-.026-.305-.034-.291a2.12,2.12,0,0,0,0,.6c0,.359-.093-.128.029-.175a1.5,1.5,0,0,0-.045.231c-.048.174-.083.351-.138.524-.023.071-.057.143-.074.214-.071.3.239-.416.075-.173-.071.106-.371.581-.106.261.241-.291.081-.1.024-.045-.276.282.135-.138.169-.125a1.279,1.279,0,0,0-.183.1c-.262.143.473-.119.172-.073-.168.026-.35.094-.515.133-.07.017-.35.066.01,0,.4-.072-.084-.009-.148-.008-.176,0-.363-.029-.536-.015-.243.02.253.034.273.044a1.471,1.471,0,0,0-.273-.051,6.828,6.828,0,0,1-.866-.291,14.264,14.264,0,0,0-3.487-.879,5.858,5.858,0,0,0-3.694.97,2.4,2.4,0,0,0,2.422,4.145c.108-.067.221-.128.328-.2.383-.242.008-.043-.053,0a4.046,4.046,0,0,1,.678-.2c.026.087-.622-.038-.2.045.126.024.287.019.412.03-.1-.009-.471-.094-.022.008.167.038.336.071.5.113.881.22,1.7.624,2.571.858,2.242.6,5.074.1,6.409-1.948,1.13-1.733,1.56-4.481.416-6.3a6.575,6.575,0,0,0-1.758-1.614c-.485-.367-.976-.727-1.477-1.073a22.168,22.168,0,0,0-2.647-1.59,25.281,25.281,0,0,0-8.381-2.3,2.4,2.4,0,0,0-2.4,2.4,2.473,2.473,0,0,0,2.4,2.4Z"/><path class="a" d="M235.886,284.474c-.725,3.728-1.368,8.213-4.307,10.941-1.744,1.621-4.417,1.512-6.173,3.084-1.717,1.538-2.522,4.1-3.23,6.215l1.1-1.435-.1.05,1.849-.242c-3.278-1.079-6.549-2.178-9.821-3.273q-2.407-.806-4.816-1.605-1.2-.4-2.411-.794a11.218,11.218,0,0,1-1.991-.656l.861.861-.008.056v1.276c.249-1.79,1.307-3.643,1.913-5.353.544-1.532.893-3.157,1.281-4.736,1-4.048,1.448-8.2,2.067-12.316,1-6.618,2.442-13.107,6.579-18.544a2.415,2.415,0,0,0-.861-3.284,2.459,2.459,0,0,0-3.283.861c-3.585,4.711-5.453,10.381-6.49,16.155-1.1,6.117-1.714,12.256-3.265,18.289a37.324,37.324,0,0,1-1.246,3.9c-.558,1.479-1.706,3.425-1.323,5.031.511,2.142,2.691,2.5,4.49,3.092q2.664.872,5.322,1.762c3.574,1.192,7.145,2.4,10.723,3.579a3.32,3.32,0,0,0,2.9.064c.984-.568,1.2-1.644,1.562-2.63a14.094,14.094,0,0,1,.8-1.811,2.868,2.868,0,0,1,.691-.994,26.9,26.9,0,0,1,2.939-1.082,10.83,10.83,0,0,0,2.559-1.475,12.964,12.964,0,0,0,3.449-4.312,34.011,34.011,0,0,0,2.866-9.395,2.464,2.464,0,0,0-1.676-2.953,2.422,2.422,0,0,0-2.952,1.677Z"/><path class="a" d="M232.587,259.549c.284-.265.564-.534.85-.8.09-.083.832-.693.366-.353a7.093,7.093,0,0,1,.632-.4c.362-.212.071-.053-.022-.013a6.558,6.558,0,0,1,.667-.229,35.531,35.531,0,0,1,6.707-1.139c2.065-.211,4.46-.135,6.331-1.138a5.924,5.924,0,0,0,3.16-5.868,6.161,6.161,0,0,0-4.25-5.143,19.867,19.867,0,0,0-5.8-.489c-4.886-.068-10.274.062-14.932,1.645-5.135,1.746-8.594,5.73-11.762,9.957a2.416,2.416,0,0,0,.861,3.284,2.457,2.457,0,0,0,3.283-.861c2.1-2.808,4.595-5.946,7.89-7.373,3.777-1.636,8.248-1.755,12.305-1.843,1.728-.038,3.457,0,5.182.088.987.053,2.111-.065,2.43,1.044.338,1.172-.946,1.493-1.778,1.6-2.039.261-4.089.4-6.127.685a23.069,23.069,0,0,0-5.928,1.355,12.394,12.394,0,0,0-3.463,2.6c-2.261,2.114,1.138,5.5,3.394,3.394Z"/></svg>