<svg xmlns="http://www.w3.org/2000/svg" xmlns:xlink="http://www.w3.org/1999/xlink" width="500" zoomAndPan="magnify" viewBox="0 0 375 225" height="300" preserveAspectRatio="xMidYMid meet" version="1.0"><defs><clipPath id="279a141687"><path d="M 158 57 L 237 57 L 237 152 L 158 152 Z M 158 57 " clip-rule="nonzero"/></clipPath><clipPath id="aea994444e"><path d="M 179.394531 -16.425781 L 352.550781 7.117188 L 283.335938 516.183594 L 110.179688 492.640625 Z M 179.394531 -16.425781 " clip-rule="nonzero"/></clipPath><clipPath id="86fe0fd915"><path d="M 179.394531 -16.425781 L 352.550781 7.117188 L 316.984375 268.710938 L 143.828125 245.167969 Z M 179.394531 -16.425781 " clip-rule="nonzero"/></clipPath><clipPath id="4ee92f9940"><path d="M 179.394531 -16.425781 L 352.550781 7.117188 L 283.335938 516.183594 L 110.179688 492.640625 Z M 179.394531 -16.425781 " clip-rule="nonzero"/></clipPath><clipPath id="eb1893be3d"><path d="M 189 53 L 207 53 L 207 68 L 189 68 Z M 189 53 " clip-rule="nonzero"/></clipPath><clipPath id="5eecacf2c3"><path d="M 179.394531 -16.425781 L 352.550781 7.117188 L 283.335938 516.183594 L 110.179688 492.640625 Z M 179.394531 -16.425781 " clip-rule="nonzero"/></clipPath><clipPath id="0e770db97c"><path d="M 179.394531 -16.425781 L 352.550781 7.117188 L 316.984375 268.710938 L 143.828125 245.167969 Z M 179.394531 -16.425781 " clip-rule="nonzero"/></clipPath><clipPath id="e82c537ef1"><path d="M 179.394531 -16.425781 L 352.550781 7.117188 L 283.335938 516.183594 L 110.179688 492.640625 Z M 179.394531 -16.425781 " clip-rule="nonzero"/></clipPath><clipPath id="b2769578f1"><path d="M 158 134 L 211 134 L 211 152 L 158 152 Z M 158 134 " clip-rule="nonzero"/></clipPath><clipPath id="8be464e1d1"><path d="M 179.394531 -16.425781 L 352.550781 7.117188 L 283.335938 516.183594 L 110.179688 492.640625 Z M 179.394531 -16.425781 " clip-rule="nonzero"/></clipPath><clipPath id="a4912c2c9e"><path d="M 179.394531 -16.425781 L 352.550781 7.117188 L 316.984375 268.710938 L 143.828125 245.167969 Z M 179.394531 -16.425781 " clip-rule="nonzero"/></clipPath><clipPath id="2f31a1bd57"><path d="M 179.394531 -16.425781 L 352.550781 7.117188 L 283.335938 516.183594 L 110.179688 492.640625 Z M 179.394531 -16.425781 " clip-rule="nonzero"/></clipPath><clipPath id="71c574ad1b"><path d="M 192 31 L 213 31 L 213 62 L 192 62 Z M 192 31 " clip-rule="nonzero"/></clipPath><clipPath id="c6090d3379"><path d="M 179.394531 -16.425781 L 352.550781 7.117188 L 283.335938 516.183594 L 110.179688 492.640625 Z M 179.394531 -16.425781 " clip-rule="nonzero"/></clipPath><clipPath id="cc991068eb"><path d="M 179.394531 -16.425781 L 352.550781 7.117188 L 316.984375 268.710938 L 143.828125 245.167969 Z M 179.394531 -16.425781 " clip-rule="nonzero"/></clipPath><clipPath id="89e5036187"><path d="M 179.394531 -16.425781 L 352.550781 7.117188 L 283.335938 516.183594 L 110.179688 492.640625 Z M 179.394531 -16.425781 " clip-rule="nonzero"/></clipPath><clipPath id="43700ef9f2"><path d="M 206 89 L 321 89 L 321 225 L 206 225 Z M 206 89 " clip-rule="nonzero"/></clipPath><clipPath id="f1ed55acf6"><path d="M 179.394531 -16.425781 L 352.550781 7.117188 L 283.335938 516.183594 L 110.179688 492.640625 Z M 179.394531 -16.425781 " clip-rule="nonzero"/></clipPath><clipPath id="735334340d"><path d="M 179.394531 -16.425781 L 352.550781 7.117188 L 316.984375 268.710938 L 143.828125 245.167969 Z M 179.394531 -16.425781 " clip-rule="nonzero"/></clipPath><clipPath id="20a6bf3a9d"><path d="M 179.394531 -16.425781 L 352.550781 7.117188 L 283.335938 516.183594 L 110.179688 492.640625 Z M 179.394531 -16.425781 " clip-rule="nonzero"/></clipPath><clipPath id="7c31ed991e"><path d="M 273 107 L 312 107 L 312 170 L 273 170 Z M 273 107 " clip-rule="nonzero"/></clipPath><clipPath id="c63f54309c"><path d="M 179.394531 -16.425781 L 352.550781 7.117188 L 283.335938 516.183594 L 110.179688 492.640625 Z M 179.394531 -16.425781 " clip-rule="nonzero"/></clipPath><clipPath id="b3216a44f4"><path d="M 179.394531 -16.425781 L 352.550781 7.117188 L 316.984375 268.710938 L 143.828125 245.167969 Z M 179.394531 -16.425781 " clip-rule="nonzero"/></clipPath><clipPath id="b4d3d6579f"><path d="M 179.394531 -16.425781 L 352.550781 7.117188 L 283.335938 516.183594 L 110.179688 492.640625 Z M 179.394531 -16.425781 " clip-rule="nonzero"/></clipPath><clipPath id="a607f7cf40"><path d="M 229 89 L 273 89 L 273 176 L 229 176 Z M 229 89 " clip-rule="nonzero"/></clipPath><clipPath id="ea79c13956"><path d="M 179.394531 -16.425781 L 352.550781 7.117188 L 283.335938 516.183594 L 110.179688 492.640625 Z M 179.394531 -16.425781 " clip-rule="nonzero"/></clipPath><clipPath id="c4e1810194"><path d="M 179.394531 -16.425781 L 352.550781 7.117188 L 316.984375 268.710938 L 143.828125 245.167969 Z M 179.394531 -16.425781 " clip-rule="nonzero"/></clipPath><clipPath id="2271b270df"><path d="M 179.394531 -16.425781 L 352.550781 7.117188 L 283.335938 516.183594 L 110.179688 492.640625 Z M 179.394531 -16.425781 " clip-rule="nonzero"/></clipPath><clipPath id="91ad0efbe0"><path d="M 236 71 L 270 71 L 270 118 L 236 118 Z M 236 71 " clip-rule="nonzero"/></clipPath><clipPath id="49b254047a"><path d="M 179.394531 -16.425781 L 352.550781 7.117188 L 283.335938 516.183594 L 110.179688 492.640625 Z M 179.394531 -16.425781 " clip-rule="nonzero"/></clipPath><clipPath id="41b731dbe0"><path d="M 179.394531 -16.425781 L 352.550781 7.117188 L 316.984375 268.710938 L 143.828125 245.167969 Z M 179.394531 -16.425781 " clip-rule="nonzero"/></clipPath><clipPath id="f5f983bd31"><path d="M 179.394531 -16.425781 L 352.550781 7.117188 L 283.335938 516.183594 L 110.179688 492.640625 Z M 179.394531 -16.425781 " clip-rule="nonzero"/></clipPath><clipPath id="7f26e3699b"><path d="M 209 22 L 270 22 L 270 102 L 209 102 Z M 209 22 " clip-rule="nonzero"/></clipPath><clipPath id="c39caaf2a7"><path d="M 179.394531 -16.425781 L 352.550781 7.117188 L 283.335938 516.183594 L 110.179688 492.640625 Z M 179.394531 -16.425781 " clip-rule="nonzero"/></clipPath><clipPath id="a9ca41d163"><path d="M 179.394531 -16.425781 L 352.550781 7.117188 L 316.984375 268.710938 L 143.828125 245.167969 Z M 179.394531 -16.425781 " clip-rule="nonzero"/></clipPath><clipPath id="5ee06ccebf"><path d="M 179.394531 -16.425781 L 352.550781 7.117188 L 283.335938 516.183594 L 110.179688 492.640625 Z M 179.394531 -16.425781 " clip-rule="nonzero"/></clipPath><clipPath id="59b7c6517b"><path d="M 195 8 L 276 8 L 276 79 L 195 79 Z M 195 8 " clip-rule="nonzero"/></clipPath><clipPath id="72d5bdb1c3"><path d="M 179.394531 -16.425781 L 352.550781 7.117188 L 283.335938 516.183594 L 110.179688 492.640625 Z M 179.394531 -16.425781 " clip-rule="nonzero"/></clipPath><clipPath id="549df129a5"><path d="M 179.394531 -16.425781 L 352.550781 7.117188 L 316.984375 268.710938 L 143.828125 245.167969 Z M 179.394531 -16.425781 " clip-rule="nonzero"/></clipPath><clipPath id="0689c0c7ab"><path d="M 179.394531 -16.425781 L 352.550781 7.117188 L 283.335938 516.183594 L 110.179688 492.640625 Z M 179.394531 -16.425781 " clip-rule="nonzero"/></clipPath><clipPath id="03c3474f90"><path d="M 236 88 L 271 88 L 271 123 L 236 123 Z M 236 88 " clip-rule="nonzero"/></clipPath><clipPath id="bbced43e05"><path d="M 179.394531 -16.425781 L 352.550781 7.117188 L 283.335938 516.183594 L 110.179688 492.640625 Z M 179.394531 -16.425781 " clip-rule="nonzero"/></clipPath><clipPath id="38b3e4026d"><path d="M 179.394531 -16.425781 L 352.550781 7.117188 L 316.984375 268.710938 L 143.828125 245.167969 Z M 179.394531 -16.425781 " clip-rule="nonzero"/></clipPath><clipPath id="fc969a3fde"><path d="M 179.394531 -16.425781 L 352.550781 7.117188 L 283.335938 516.183594 L 110.179688 492.640625 Z M 179.394531 -16.425781 " clip-rule="nonzero"/></clipPath><clipPath id="5cdad96d46"><path d="M 232 113 L 243 113 L 243 176 L 232 176 Z M 232 113 " clip-rule="nonzero"/></clipPath><clipPath id="d5c5e66779"><path d="M 179.394531 -16.425781 L 352.550781 7.117188 L 283.335938 516.183594 L 110.179688 492.640625 Z M 179.394531 -16.425781 " clip-rule="nonzero"/></clipPath><clipPath id="630fca47fb"><path d="M 179.394531 -16.425781 L 352.550781 7.117188 L 316.984375 268.710938 L 143.828125 245.167969 Z M 179.394531 -16.425781 " clip-rule="nonzero"/></clipPath><clipPath id="af5402f5c2"><path d="M 179.394531 -16.425781 L 352.550781 7.117188 L 283.335938 516.183594 L 110.179688 492.640625 Z M 179.394531 -16.425781 " clip-rule="nonzero"/></clipPath><clipPath id="210baaa5df"><path d="M 286 0 L 294 0 L 294 8 L 286 8 Z M 286 0 " clip-rule="nonzero"/></clipPath><clipPath id="218ec13fd3"><path d="M 179.394531 -16.425781 L 352.550781 7.117188 L 283.335938 516.183594 L 110.179688 492.640625 Z M 179.394531 -16.425781 " clip-rule="nonzero"/></clipPath><clipPath id="97350a895e"><path d="M 179.394531 -16.425781 L 352.550781 7.117188 L 316.984375 268.710938 L 143.828125 245.167969 Z M 179.394531 -16.425781 " clip-rule="nonzero"/></clipPath><clipPath id="3fd3c5f646"><path d="M 179.394531 -16.425781 L 352.550781 7.117188 L 283.335938 516.183594 L 110.179688 492.640625 Z M 179.394531 -16.425781 " clip-rule="nonzero"/></clipPath><clipPath id="fb7a83328d"><path d="M 285 16 L 295 16 L 295 25 L 285 25 Z M 285 16 " clip-rule="nonzero"/></clipPath><clipPath id="48166fd2eb"><path d="M 179.394531 -16.425781 L 352.550781 7.117188 L 283.335938 516.183594 L 110.179688 492.640625 Z M 179.394531 -16.425781 " clip-rule="nonzero"/></clipPath><clipPath id="8703065784"><path d="M 179.394531 -16.425781 L 352.550781 7.117188 L 316.984375 268.710938 L 143.828125 245.167969 Z M 179.394531 -16.425781 " clip-rule="nonzero"/></clipPath><clipPath id="e4cd2df6e9"><path d="M 179.394531 -16.425781 L 352.550781 7.117188 L 283.335938 516.183594 L 110.179688 492.640625 Z M 179.394531 -16.425781 " clip-rule="nonzero"/></clipPath><clipPath id="841461bea6"><path d="M 300 1 L 311 1 L 311 9 L 300 9 Z M 300 1 " clip-rule="nonzero"/></clipPath><clipPath id="7e6d737b9b"><path d="M 179.394531 -16.425781 L 352.550781 7.117188 L 283.335938 516.183594 L 110.179688 492.640625 Z M 179.394531 -16.425781 " clip-rule="nonzero"/></clipPath><clipPath id="c5e60651e7"><path d="M 179.394531 -16.425781 L 352.550781 7.117188 L 316.984375 268.710938 L 143.828125 245.167969 Z M 179.394531 -16.425781 " clip-rule="nonzero"/></clipPath><clipPath id="6bac1d8ded"><path d="M 179.394531 -16.425781 L 352.550781 7.117188 L 283.335938 516.183594 L 110.179688 492.640625 Z M 179.394531 -16.425781 " clip-rule="nonzero"/></clipPath><clipPath id="d9408b9735"><path d="M 245 28 L 282 28 L 282 73 L 245 73 Z M 245 28 " clip-rule="nonzero"/></clipPath><clipPath id="99ab50fabd"><path d="M 179.394531 -16.425781 L 352.550781 7.117188 L 283.335938 516.183594 L 110.179688 492.640625 Z M 179.394531 -16.425781 " clip-rule="nonzero"/></clipPath><clipPath id="6bc75e5d53"><path d="M 179.394531 -16.425781 L 352.550781 7.117188 L 316.984375 268.710938 L 143.828125 245.167969 Z M 179.394531 -16.425781 " clip-rule="nonzero"/></clipPath><clipPath id="8310c14001"><path d="M 179.394531 -16.425781 L 352.550781 7.117188 L 283.335938 516.183594 L 110.179688 492.640625 Z M 179.394531 -16.425781 " clip-rule="nonzero"/></clipPath><clipPath id="565c51790d"><path d="M 266 63 L 287 63 L 287 83 L 266 83 Z M 266 63 " clip-rule="nonzero"/></clipPath><clipPath id="b78adc1b4c"><path d="M 179.394531 -16.425781 L 352.550781 7.117188 L 283.335938 516.183594 L 110.179688 492.640625 Z M 179.394531 -16.425781 " clip-rule="nonzero"/></clipPath><clipPath id="a8518ad375"><path d="M 179.394531 -16.425781 L 352.550781 7.117188 L 316.984375 268.710938 L 143.828125 245.167969 Z M 179.394531 -16.425781 " clip-rule="nonzero"/></clipPath><clipPath id="9752f876be"><path d="M 179.394531 -16.425781 L 352.550781 7.117188 L 283.335938 516.183594 L 110.179688 492.640625 Z M 179.394531 -16.425781 " clip-rule="nonzero"/></clipPath><clipPath id="f3eb2035d0"><path d="M 200 26 L 212 26 L 212 36 L 200 36 Z M 200 26 " clip-rule="nonzero"/></clipPath><clipPath id="5ff9faa3d3"><path d="M 179.394531 -16.425781 L 352.550781 7.117188 L 283.335938 516.183594 L 110.179688 492.640625 Z M 179.394531 -16.425781 " clip-rule="nonzero"/></clipPath><clipPath id="921601cf85"><path d="M 179.394531 -16.425781 L 352.550781 7.117188 L 316.984375 268.710938 L 143.828125 245.167969 Z M 179.394531 -16.425781 " clip-rule="nonzero"/></clipPath><clipPath id="83d3215aa1"><path d="M 179.394531 -16.425781 L 352.550781 7.117188 L 283.335938 516.183594 L 110.179688 492.640625 Z M 179.394531 -16.425781 " clip-rule="nonzero"/></clipPath><clipPath id="7051daa96d"><path d="M 205 22 L 216 22 L 216 31 L 205 31 Z M 205 22 " clip-rule="nonzero"/></clipPath><clipPath id="2508b51f9e"><path d="M 179.394531 -16.425781 L 352.550781 7.117188 L 283.335938 516.183594 L 110.179688 492.640625 Z M 179.394531 -16.425781 " clip-rule="nonzero"/></clipPath><clipPath id="37668106a9"><path d="M 179.394531 -16.425781 L 352.550781 7.117188 L 316.984375 268.710938 L 143.828125 245.167969 Z M 179.394531 -16.425781 " clip-rule="nonzero"/></clipPath><clipPath id="23277b7300"><path d="M 179.394531 -16.425781 L 352.550781 7.117188 L 283.335938 516.183594 L 110.179688 492.640625 Z M 179.394531 -16.425781 " clip-rule="nonzero"/></clipPath><clipPath id="13d19953ea"><path d="M 210 17 L 222 17 L 222 26 L 210 26 Z M 210 17 " clip-rule="nonzero"/></clipPath><clipPath id="b90af3a30a"><path d="M 179.394531 -16.425781 L 352.550781 7.117188 L 283.335938 516.183594 L 110.179688 492.640625 Z M 179.394531 -16.425781 " clip-rule="nonzero"/></clipPath><clipPath id="4d7d4648aa"><path d="M 179.394531 -16.425781 L 352.550781 7.117188 L 316.984375 268.710938 L 143.828125 245.167969 Z M 179.394531 -16.425781 " clip-rule="nonzero"/></clipPath><clipPath id="a081f8bd34"><path d="M 179.394531 -16.425781 L 352.550781 7.117188 L 283.335938 516.183594 L 110.179688 492.640625 Z M 179.394531 -16.425781 " clip-rule="nonzero"/></clipPath><clipPath id="69dfe5ce71"><path d="M 266 67 L 310 67 L 310 162 L 266 162 Z M 266 67 " clip-rule="nonzero"/></clipPath><clipPath id="76975a80b4"><path d="M 179.394531 -16.425781 L 352.550781 7.117188 L 283.335938 516.183594 L 110.179688 492.640625 Z M 179.394531 -16.425781 " clip-rule="nonzero"/></clipPath><clipPath id="1701d6b3c5"><path d="M 179.394531 -16.425781 L 352.550781 7.117188 L 316.984375 268.710938 L 143.828125 245.167969 Z M 179.394531 -16.425781 " clip-rule="nonzero"/></clipPath><clipPath id="6289be8d2c"><path d="M 179.394531 -16.425781 L 352.550781 7.117188 L 283.335938 516.183594 L 110.179688 492.640625 Z M 179.394531 -16.425781 " clip-rule="nonzero"/></clipPath><clipPath id="5fbe92d4f3"><path d="M 52 13 L 158 13 L 158 173 L 52 173 Z M 52 13 " clip-rule="nonzero"/></clipPath><clipPath id="ccc2a552a5"><path d="M 58.800781 179.1875 L 44.191406 19.355469 L 170.414062 7.816406 L 185.023438 167.648438 Z M 58.800781 179.1875 " clip-rule="nonzero"/></clipPath><clipPath id="9b958b2095"><path d="M 58.800781 179.1875 L 44.191406 19.355469 L 170.414062 7.816406 L 185.023438 167.648438 Z M 58.800781 179.1875 " clip-rule="nonzero"/></clipPath><clipPath id="380c1a040d"><path d="M 58.800781 179.1875 L 44.191406 19.355469 L 170.414062 7.816406 L 185.023438 167.648438 Z M 58.800781 179.1875 " clip-rule="nonzero"/></clipPath><clipPath id="5894f9224f"><path d="M 62 32 L 143 32 L 143 157 L 62 157 Z M 62 32 " clip-rule="nonzero"/></clipPath><clipPath id="51c43e4020"><path d="M 58.800781 179.1875 L 44.191406 19.355469 L 170.414062 7.816406 L 185.023438 167.648438 Z M 58.800781 179.1875 " clip-rule="nonzero"/></clipPath><clipPath id="125089fc79"><path d="M 58.800781 179.1875 L 44.191406 19.355469 L 170.414062 7.816406 L 185.023438 167.648438 Z M 58.800781 179.1875 " clip-rule="nonzero"/></clipPath><clipPath id="ad3b338ce8"><path d="M 58.800781 179.1875 L 44.191406 19.355469 L 170.414062 7.816406 L 185.023438 167.648438 Z M 58.800781 179.1875 " clip-rule="nonzero"/></clipPath><clipPath id="9a37c8ffca"><path d="M 150 66 L 161 66 L 161 78 L 150 78 Z M 150 66 " clip-rule="nonzero"/></clipPath><clipPath id="a6e6d0f745"><path d="M 58.800781 179.1875 L 44.191406 19.355469 L 170.414062 7.816406 L 185.023438 167.648438 Z M 58.800781 179.1875 " clip-rule="nonzero"/></clipPath><clipPath id="2a6d55b523"><path d="M 58.800781 179.1875 L 44.191406 19.355469 L 170.414062 7.816406 L 185.023438 167.648438 Z M 58.800781 179.1875 " clip-rule="nonzero"/></clipPath><clipPath id="9215ad07ce"><path d="M 58.800781 179.1875 L 44.191406 19.355469 L 170.414062 7.816406 L 185.023438 167.648438 Z M 58.800781 179.1875 " clip-rule="nonzero"/></clipPath><clipPath id="c1ab277a04"><path d="M 160 61 L 170 61 L 170 70 L 160 70 Z M 160 61 " clip-rule="nonzero"/></clipPath><clipPath id="152bb7b2cf"><path d="M 58.800781 179.1875 L 44.191406 19.355469 L 170.414062 7.816406 L 185.023438 167.648438 Z M 58.800781 179.1875 " clip-rule="nonzero"/></clipPath><clipPath id="12389f61c9"><path d="M 58.800781 179.1875 L 44.191406 19.355469 L 170.414062 7.816406 L 185.023438 167.648438 Z M 58.800781 179.1875 " clip-rule="nonzero"/></clipPath><clipPath id="337cb6622b"><path d="M 58.800781 179.1875 L 44.191406 19.355469 L 170.414062 7.816406 L 185.023438 167.648438 Z M 58.800781 179.1875 " clip-rule="nonzero"/></clipPath><clipPath id="139e0f2e8a"><path d="M 167 56 L 175 56 L 175 63 L 167 63 Z M 167 56 " clip-rule="nonzero"/></clipPath><clipPath id="b13d95c85c"><path d="M 58.800781 179.1875 L 44.191406 19.355469 L 170.414062 7.816406 L 185.023438 167.648438 Z M 58.800781 179.1875 " clip-rule="nonzero"/></clipPath><clipPath id="487ffe3cfa"><path d="M 58.800781 179.1875 L 44.191406 19.355469 L 170.414062 7.816406 L 185.023438 167.648438 Z M 58.800781 179.1875 " clip-rule="nonzero"/></clipPath><clipPath id="1306797de2"><path d="M 58.800781 179.1875 L 44.191406 19.355469 L 170.414062 7.816406 L 185.023438 167.648438 Z M 58.800781 179.1875 " clip-rule="nonzero"/></clipPath><clipPath id="6ad110dc30"><path d="M 279 0 L 320 0 L 320 26.738281 L 279 26.738281 Z M 279 0 " clip-rule="nonzero"/></clipPath><clipPath id="4101e7e1d0"><path d="M 278.847656 0 L 320.097656 0 L 320.097656 26.738281 L 278.847656 26.738281 Z M 278.847656 0 " clip-rule="nonzero"/></clipPath></defs><rect x="-37.5" width="450" fill="#ffffff" y="-22.5" height="270" fill-opacity="1"/><rect x="-37.5" width="450" fill="#ffffff" y="-22.5" height="270" fill-opacity="1"/><g clip-path="url(#279a141687)"><g clip-path="url(#aea994444e)"><g clip-path="url(#86fe0fd915)"><g clip-path="url(#4ee92f9940)"><path fill="#0c3b6b" d="M 236.351562 92.246094 L 218.136719 138.371094 C 218.136719 138.371094 215.058594 139.410156 210.492188 140.914062 C 202.230469 143.679688 189.09375 148.003906 180.203125 150.640625 C 170.671875 153.496094 160.304688 146.679688 158.863281 138.492188 C 158.585938 136.953125 158.636719 135.382812 159.054688 133.800781 C 161.589844 124.265625 187.050781 60.601562 188.171875 58.753906 C 189.457031 56.621094 194.351562 56.699219 199.257812 58.941406 C 204.710938 61.464844 207.332031 64.878906 206.5625 67.101562 L 190.039062 115.117188 Z M 236.351562 92.246094 " fill-opacity="1" fill-rule="nonzero"/></g></g></g></g><g clip-path="url(#eb1893be3d)"><g clip-path="url(#5eecacf2c3)"><g clip-path="url(#0e770db97c)"><g clip-path="url(#e82c537ef1)"><path fill="#e4e4e4" d="M 189.113281 59.789062 C 188.917969 60.308594 189.046875 60.890625 189.4375 61.289062 C 190.410156 62.28125 192.464844 64.136719 195.265625 65.375 C 197.742188 66.472656 200.664062 66.984375 202.519531 67.214844 C 203.605469 67.351562 204.636719 66.734375 205.027344 65.714844 L 206.664062 61.449219 C 207.015625 60.535156 206.769531 59.507812 206.042969 58.851562 C 204.808594 57.746094 202.628906 56.0625 199.597656 54.761719 C 196.859375 53.589844 194.636719 53.378906 193.207031 53.421875 C 192.164062 53.453125 191.253906 54.097656 190.886719 55.070312 Z M 189.113281 59.789062 " fill-opacity="1" fill-rule="nonzero"/></g></g></g></g><g clip-path="url(#b2769578f1)"><g clip-path="url(#8be464e1d1)"><g clip-path="url(#a4912c2c9e)"><g clip-path="url(#2f31a1bd57)"><path fill="#092e54" d="M 210.492188 140.914062 C 202.230469 143.675781 189.09375 148.003906 180.199219 150.640625 C 170.667969 153.496094 160.304688 146.679688 158.863281 138.492188 C 164.199219 143.992188 170.683594 145.179688 177.601562 144.257812 C 186.371094 143.121094 206.484375 134.761719 206.484375 134.761719 Z M 210.492188 140.914062 " fill-opacity="1" fill-rule="nonzero"/></g></g></g></g><g clip-path="url(#71c574ad1b)"><g clip-path="url(#c6090d3379)"><g clip-path="url(#cc991068eb)"><g clip-path="url(#89e5036187)"><path fill="#f3a66f" d="M 192.902344 55.929688 L 194.613281 51.175781 C 194.613281 51.175781 197.21875 41.289062 198.5625 38.433594 C 199.910156 35.574219 203.449219 31.835938 203.449219 31.835938 C 203.449219 31.835938 208.078125 35.210938 210.101562 38.140625 C 212.125 41.074219 214.222656 46.457031 211.507812 51.671875 C 208.789062 56.886719 205.214844 57.328125 204.574219 58.78125 C 203.933594 60.234375 203.703125 61.03125 203.703125 61.03125 C 203.703125 61.03125 198.535156 62.007812 193.597656 58.195312 C 192.902344 57.664062 192.605469 56.753906 192.902344 55.929688 Z M 192.902344 55.929688 " fill-opacity="1" fill-rule="nonzero"/></g></g></g></g><g clip-path="url(#43700ef9f2)"><g clip-path="url(#f1ed55acf6)"><g clip-path="url(#735334340d)"><g clip-path="url(#20a6bf3a9d)"><path fill="#0c3b6b" d="M 222.691406 225.425781 L 220.730469 237.847656 C 219.546875 242.382812 221.523438 243.96875 222.816406 247.117188 C 226.625 256.371094 234.621094 263.757812 244.273438 269.375 C 245.070312 269.839844 246.101562 269.472656 246.4375 268.617188 C 248.527344 263.3125 250.753906 258.238281 251.695312 257.925781 C 252.625 257.621094 255.054688 264.988281 257.171875 272.90625 C 257.65625 274.722656 258.988281 276.214844 260.761719 276.839844 C 273.378906 281.265625 286.4375 283.289062 295.855469 283.082031 L 296.222656 283.070312 C 299.785156 282.96875 302.863281 282.535156 305.21875 281.78125 C 308.882812 280.601562 312.039062 280.058594 313.339844 277.199219 C 313.410156 277.007812 313.496094 276.816406 313.566406 276.601562 C 313.699219 276.214844 313.695312 275.777344 313.855469 275.347656 C 330.390625 231.210938 312.527344 141.925781 308.898438 130.242188 C 306.992188 124.0625 303.21875 116.285156 292.308594 108.953125 C 286.644531 105.15625 281.164062 102.128906 273.542969 97.726562 C 273.261719 97.554688 272.984375 97.402344 272.683594 97.230469 C 272.167969 96.917969 271.652344 96.628906 271.113281 96.300781 C 269.457031 95.320312 267.695312 94.292969 265.804688 93.175781 C 254.078125 86.1875 246.933594 89.761719 233.984375 94.417969 C 233.398438 94.617188 232.570312 95.003906 231.613281 95.507812 C 231.496094 95.558594 231.363281 95.632812 231.230469 95.707031 C 227.585938 97.550781 222.238281 100.722656 219.914062 102.269531 C 206.761719 111.015625 205.394531 124.621094 206.683594 137.132812 C 206.683594 137.132812 218.707031 181.066406 221.347656 189.886719 C 223.992188 198.726562 224.390625 214.671875 222.691406 225.425781 Z M 222.691406 225.425781 " fill-opacity="1" fill-rule="nonzero"/></g></g></g></g><g clip-path="url(#7c31ed991e)"><g clip-path="url(#c63f54309c)"><g clip-path="url(#b3216a44f4)"><g clip-path="url(#b4d3d6579f)"><path fill="#092e54" d="M 273.871094 107.804688 C 273.871094 107.804688 272.277344 151.425781 276.84375 160.148438 C 281.414062 168.867188 291.621094 171.363281 299.707031 168.316406 C 307.792969 165.273438 310.722656 154.292969 310.722656 154.292969 L 311.628906 141.519531 Z M 273.871094 107.804688 " fill-opacity="1" fill-rule="nonzero"/></g></g></g></g><g clip-path="url(#a607f7cf40)"><g clip-path="url(#ea79c13956)"><g clip-path="url(#c4e1810194)"><g clip-path="url(#2271b270df)"><path fill="#e4e4e4" d="M 272.675781 97.230469 C 264.367188 107.519531 256.671875 127.867188 250.457031 142.214844 C 249.402344 144.703125 244.8125 156.421875 241.246094 165.316406 C 239.050781 170.847656 237.226562 175.285156 236.910156 175.722656 C 236 176.90625 234.191406 168.742188 232.9375 162.277344 C 232.511719 160.082031 232.160156 158.0625 231.917969 156.695312 C 229.074219 140.449219 227.554688 111.8125 233.980469 94.417969 C 246.929688 89.761719 254.070312 86.191406 265.796875 93.175781 C 267.6875 94.292969 269.449219 95.320312 271.105469 96.300781 C 271.644531 96.628906 272.160156 96.917969 272.675781 97.230469 Z M 272.675781 97.230469 " fill-opacity="1" fill-rule="nonzero"/></g></g></g></g><g clip-path="url(#91ad0efbe0)"><g clip-path="url(#49b254047a)"><g clip-path="url(#41b731dbe0)"><g clip-path="url(#f5f983bd31)"><path fill="#f3a66f" d="M 266.003906 73.652344 L 269.535156 93.25 C 269.644531 93.847656 269.566406 94.449219 269.308594 95 C 267.886719 97.984375 262.714844 108.207031 255.820312 114.34375 C 249.851562 119.648438 240.527344 118.371094 239.1875 110.941406 C 238.730469 108.414062 236.964844 95.964844 236.355469 92.238281 C 236.242188 91.550781 236.382812 90.851562 236.746094 90.253906 L 246.953125 73.609375 C 247.445312 72.808594 248.296875 72.292969 249.234375 72.226562 L 262.929688 71.261719 C 264.414062 71.160156 265.742188 72.1875 266.003906 73.652344 Z M 266.003906 73.652344 " fill-opacity="1" fill-rule="nonzero"/></g></g></g></g><g clip-path="url(#7f26e3699b)"><g clip-path="url(#c39caaf2a7)"><g clip-path="url(#a9ca41d163)"><g clip-path="url(#5ee06ccebf)"><path fill="#f3a66f" d="M 265.933594 56.972656 L 265.75 53.53125 C 265.261719 36.0625 258.636719 23.953125 238.191406 22.574219 C 225.859375 21.746094 213.457031 32.050781 210.71875 43.222656 C 209.582031 47.847656 209.347656 54.378906 210.679688 58.949219 L 215.183594 74.441406 C 219.921875 92.792969 230.203125 101.609375 240.925781 101.0625 C 254.289062 100.378906 258.769531 93.9375 263.527344 82.40625 C 264.019531 81.214844 265.328125 77.988281 266.09375 74.457031 C 268.320312 72.015625 269.386719 64.90625 269.15625 61.105469 C 269.015625 58.851562 267.570312 57.445312 265.933594 56.972656 Z M 265.933594 56.972656 " fill-opacity="1" fill-rule="nonzero"/></g></g></g></g><g clip-path="url(#59b7c6517b)"><g clip-path="url(#72d5bdb1c3)"><g clip-path="url(#549df129a5)"><g clip-path="url(#0689c0c7ab)"><path fill="#321e12" d="M 216.070312 48.691406 C 218.242188 42.457031 225.785156 39.734375 231.613281 45.464844 C 237.441406 51.191406 241.164062 57.9375 254.277344 56.949219 L 257.523438 66.433594 C 257.523438 66.433594 261.558594 55.226562 264.6875 55.519531 C 267.816406 55.8125 269.4375 65.84375 265.347656 69.992188 C 265.347656 69.992188 267.230469 79.03125 267.089844 78.351562 C 266.949219 77.675781 270.558594 53.121094 271.945312 50.710938 C 273.328125 48.304688 276.054688 43.257812 275.140625 36.613281 C 274.226562 29.96875 267.171875 14.082031 250.988281 13.433594 C 249.988281 13.171875 242.859375 3.167969 220.066406 13.878906 C 212.621094 17.375 209.613281 26.371094 201.835938 33.421875 C 189.863281 38.625 195.621094 53.183594 208.050781 56.671875 C 212.941406 56.363281 216.070312 48.691406 216.070312 48.691406 Z M 216.070312 48.691406 " fill-opacity="1" fill-rule="nonzero"/></g></g></g></g><g clip-path="url(#03c3474f90)"><g clip-path="url(#bbced43e05)"><g clip-path="url(#38b3e4026d)"><g clip-path="url(#fc969a3fde)"><path fill="#e4e4e4" d="M 242.148438 112.949219 C 239.40625 113.742188 238.675781 106.636719 237.234375 102.59375 C 237.234375 102.59375 235.21875 109.050781 237.914062 115.695312 C 239.820312 120.386719 245.789062 122.699219 245.789062 122.699219 C 245.789062 122.699219 253.019531 117.035156 258.601562 113.226562 C 265.914062 108.234375 270.5 97.847656 270.5 97.847656 L 269.664062 88.941406 L 269.371094 88.480469 C 268.503906 91.183594 256.976562 104.957031 242.148438 112.949219 Z M 242.148438 112.949219 " fill-opacity="1" fill-rule="nonzero"/></g></g></g></g><g clip-path="url(#5cdad96d46)"><g clip-path="url(#d5c5e66779)"><g clip-path="url(#630fca47fb)"><g clip-path="url(#af5402f5c2)"><path fill="#e62722" d="M 242.878906 118.148438 C 242.914062 117.757812 241.792969 113.621094 241.769531 113.390625 C 241.746094 113.160156 238.242188 112.980469 238.011719 113.003906 C 237.78125 113.027344 236.53125 117.40625 236.53125 117.40625 C 236.53125 117.40625 236.800781 118.5625 237.257812 118.707031 C 235.957031 126.359375 233.953125 146.726562 232.9375 162.277344 C 234.191406 168.742188 236 176.90625 236.910156 175.722656 C 237.226562 175.285156 239.050781 170.84375 241.246094 165.316406 C 241.507812 148.136719 241.921875 124.101562 242.007812 119.019531 C 242.335938 118.800781 242.851562 118.417969 242.878906 118.148438 Z M 242.878906 118.148438 " fill-opacity="1" fill-rule="nonzero"/></g></g></g></g><g clip-path="url(#210baaa5df)"><g clip-path="url(#218ec13fd3)"><g clip-path="url(#97350a895e)"><g clip-path="url(#3fd3c5f646)"><path fill="#dbdcdc" d="M 292.804688 3.472656 C 291.832031 4.816406 286.742188 7.722656 286.257812 7.371094 C 285.773438 7.019531 286.953125 1.289062 287.929688 -0.0585938 C 288.90625 -1.402344 290.789062 -1.699219 292.136719 -0.726562 C 293.480469 0.25 293.78125 2.128906 292.804688 3.472656 Z M 292.804688 3.472656 " fill-opacity="1" fill-rule="nonzero"/></g></g></g></g><g clip-path="url(#fb7a83328d)"><g clip-path="url(#48166fd2eb)"><g clip-path="url(#8703065784)"><g clip-path="url(#e4cd2df6e9)"><path fill="#dbdcdc" d="M 293.234375 22.480469 C 291.863281 23.421875 286.097656 24.472656 285.757812 23.980469 C 285.417969 23.488281 288.441406 18.472656 289.808594 17.53125 C 291.179688 16.585938 293.054688 16.929688 294 18.296875 C 294.945312 19.664062 294.601562 21.535156 293.234375 22.480469 Z M 293.234375 22.480469 " fill-opacity="1" fill-rule="nonzero"/></g></g></g></g><g clip-path="url(#841461bea6)"><g clip-path="url(#7e6d737b9b)"><g clip-path="url(#c5e60651e7)"><g clip-path="url(#6bac1d8ded)"><path fill="#dbdcdc" d="M 308.464844 7.453125 C 306.984375 8.214844 301.128906 8.507812 300.855469 7.976562 C 300.582031 7.445312 304.230469 2.863281 305.710938 2.105469 C 307.1875 1.347656 309.003906 1.929688 309.765625 3.40625 C 310.523438 4.882812 309.941406 6.695312 308.464844 7.453125 Z M 308.464844 7.453125 " fill-opacity="1" fill-rule="nonzero"/></g></g></g></g><g clip-path="url(#d9408b9735)"><g clip-path="url(#99ab50fabd)"><g clip-path="url(#6bc75e5d53)"><g clip-path="url(#8310c14001)"><path fill="#f3a66f" d="M 252.355469 29.769531 L 259.066406 28.933594 C 259.9375 28.828125 260.789062 29.230469 261.257812 29.96875 L 262.371094 31.734375 L 263.117188 31.589844 C 264.613281 31.300781 266.15625 31.589844 267.4375 32.410156 C 269.902344 33.984375 273.859375 36.65625 274.84375 38.1875 C 276.300781 40.449219 277.515625 56.546875 277.515625 56.546875 L 281.761719 66.039062 C 281.761719 66.039062 281.140625 69.367188 276.757812 71.15625 C 272.375 72.941406 270.429688 71.953125 270.429688 71.953125 C 270.429688 71.953125 268.136719 67.167969 266.328125 65.234375 C 258.726562 61.171875 256.703125 54.191406 256.164062 50.609375 C 255.941406 49.125 255.050781 47.832031 253.738281 47.101562 L 250.210938 45.136719 L 247.757812 45 C 247.292969 44.976562 246.328125 44.707031 245.960938 43.761719 L 245.835938 43.363281 C 245.671875 42.820312 246.132812 42.601562 246.460938 42.535156 L 250.691406 41.675781 C 252.144531 41.464844 253.621094 41.820312 254.820312 42.664062 L 260.359375 45.050781 L 254.113281 39.214844 L 248.320312 38.457031 C 247.945312 38.410156 247.140625 38.101562 246.769531 37.003906 L 246.625 36.253906 C 246.421875 35.621094 247.054688 35.417969 247.523438 35.398438 L 255.753906 35.101562 C 256.316406 35.191406 256.847656 35.433594 257.289062 35.800781 L 263.210938 39.226562 L 258.070312 33.023438 L 253.019531 32.5 C 252.59375 32.453125 251.910156 31.871094 251.914062 31.3125 L 251.859375 30.40625 C 251.839844 29.824219 252.128906 29.796875 252.355469 29.769531 Z M 252.355469 29.769531 " fill-opacity="1" fill-rule="nonzero"/></g></g></g></g><g clip-path="url(#565c51790d)"><g clip-path="url(#b78adc1b4c)"><g clip-path="url(#a8518ad375)"><g clip-path="url(#9752f876be)"><path fill="#e4e4e4" d="M 267.808594 77.949219 C 267.726562 77.519531 266.941406 70.960938 266.910156 71.183594 C 266.882812 71.410156 267.386719 67.019531 274.925781 64.277344 C 282.464844 61.539062 284.777344 65.058594 285.253906 65.683594 C 285.726562 66.304688 286.328125 72.15625 286.328125 72.15625 C 286.328125 72.15625 278.285156 82.023438 277.238281 82.019531 C 276.191406 82.015625 267.808594 77.949219 267.808594 77.949219 Z M 267.808594 77.949219 " fill-opacity="1" fill-rule="nonzero"/></g></g></g></g><g clip-path="url(#f3eb2035d0)"><g clip-path="url(#5ff9faa3d3)"><g clip-path="url(#921601cf85)"><g clip-path="url(#83d3215aa1)"><path fill="#f3a66f" d="M 201.039062 31.707031 L 203.28125 27.585938 C 203.695312 26.820312 204.609375 26.480469 205.425781 26.78125 L 210.121094 28.515625 C 210.121094 28.515625 211.175781 28.910156 211.234375 29.484375 C 211.292969 30.097656 211.039062 31.058594 209.535156 31.789062 C 208.480469 32.304688 206.136719 31.019531 206.136719 31.019531 L 202.027344 35.390625 C 202.027344 35.390625 200.238281 33.179688 201.039062 31.707031 Z M 201.039062 31.707031 " fill-opacity="1" fill-rule="nonzero"/></g></g></g></g><g clip-path="url(#7051daa96d)"><g clip-path="url(#2508b51f9e)"><g clip-path="url(#37668106a9)"><g clip-path="url(#23277b7300)"><path fill="#f3a66f" d="M 205.296875 27.027344 L 207.921875 23.132812 C 208.40625 22.414062 209.347656 22.160156 210.132812 22.535156 L 214.644531 24.707031 C 214.644531 24.707031 215.65625 25.203125 215.65625 25.777344 C 215.660156 26.394531 215.316406 27.328125 213.75 27.910156 C 212.648438 28.324219 210.441406 26.824219 210.441406 26.824219 L 205.933594 30.785156 C 205.933594 30.785156 204.363281 28.414062 205.296875 27.027344 Z M 205.296875 27.027344 " fill-opacity="1" fill-rule="nonzero"/></g></g></g></g><g clip-path="url(#13d19953ea)"><g clip-path="url(#b90af3a30a)"><g clip-path="url(#4d7d4648aa)"><g clip-path="url(#a081f8bd34)"><path fill="#f3a66f" d="M 210.839844 21.800781 L 213.460938 17.910156 C 213.949219 17.191406 214.890625 16.933594 215.675781 17.3125 L 220.1875 19.484375 C 220.1875 19.484375 221.199219 19.980469 221.199219 20.554688 C 221.203125 21.171875 220.855469 22.105469 219.292969 22.6875 C 218.191406 23.101562 215.984375 21.601562 215.984375 21.601562 L 211.476562 25.5625 C 211.476562 25.5625 209.90625 23.191406 210.839844 21.800781 Z M 210.839844 21.800781 " fill-opacity="1" fill-rule="nonzero"/></g></g></g></g><g clip-path="url(#69dfe5ce71)"><g clip-path="url(#76975a80b4)"><g clip-path="url(#1701d6b3c5)"><g clip-path="url(#6289be8d2c)"><path fill="#0c3b6b" d="M 287.980469 70.523438 L 300.300781 122.164062 C 300.300781 122.164062 303.957031 120.238281 304.6875 121.082031 C 311.53125 129.015625 309.480469 144.109375 309.480469 144.109375 C 309.480469 144.109375 306.691406 160.035156 294.558594 161.714844 C 283.574219 163.234375 279.445312 157.28125 277.316406 148.433594 C 275.1875 139.585938 266.847656 81.285156 266.847656 81.285156 C 266.179688 76.945312 269.519531 72.441406 276.519531 68.964844 C 283.519531 65.492188 287.632812 69.0625 287.980469 70.523438 Z M 287.980469 70.523438 " fill-opacity="1" fill-rule="nonzero"/></g></g></g></g><g clip-path="url(#5fbe92d4f3)"><g clip-path="url(#ccc2a552a5)"><g clip-path="url(#9b958b2095)"><g clip-path="url(#380c1a040d)"><path fill="#000000" d="M 92.007812 140.898438 C 84.167969 141.03125 76.171875 141.429688 68.859375 138.984375 C 67.25 138.445312 65.792969 137.65625 64.261719 136.988281 C 61.4375 135.285156 58.273438 133.417969 57.929688 130.28125 C 57.6875 128.082031 59.660156 126.101562 61.042969 124.347656 C 64.417969 120.320312 69.410156 117.5625 74.089844 114.617188 C 75.671875 113.519531 77.425781 112.574219 79.289062 111.824219 C 80.714844 111.25 81.488281 111.179688 81.375 111.171875 C 81.019531 111.144531 80.667969 111.28125 80.3125 111.339844 C 74.230469 111.867188 67.609375 111.75 62.015625 109.78125 C 60.714844 109.324219 59.546875 108.65625 58.308594 108.097656 C 57.335938 107.441406 56.253906 106.882812 55.382812 106.136719 C 52.28125 103.472656 51.960938 99.746094 53.453125 96.292969 C 53.890625 95.28125 54.535156 94.332031 55.078125 93.351562 C 57.855469 89.898438 62.5 83.253906 68.050781 82.546875 C 68.15625 82.625 68.414062 82.671875 68.363281 82.785156 C 68.132812 83.300781 66.972656 82.960938 66.351562 82.777344 C 63.203125 81.855469 61.046875 79.988281 58.789062 78.109375 C 54.550781 73.304688 51.945312 67.082031 54.363281 61.027344 C 54.859375 59.792969 55.734375 58.671875 56.417969 57.492188 C 59.820312 54.09375 64.339844 52.128906 69.234375 50.554688 C 70.285156 50.214844 71.382812 50 72.441406 49.679688 C 73.003906 49.511719 73.667969 49.4375 74.089844 49.085938 C 74.320312 48.894531 74.105469 48.558594 74.113281 48.296875 C 70.007812 44.851562 68.027344 40.226562 69.382812 35.320312 C 69.738281 34.039062 70.464844 32.828125 71.003906 31.582031 C 71.878906 30.5 72.585938 29.320312 73.625 28.335938 C 77.21875 24.945312 82.964844 23.363281 88.148438 24.535156 C 89.105469 24.75 89.960938 25.179688 90.867188 25.5 C 92.308594 25.1875 92.332031 26.777344 93.332031 27.019531 C 93.878906 27.148438 93.113281 26.105469 92.941406 25.664062 C 92.273438 23.9375 92.351562 23.695312 92.054688 21.800781 C 92.449219 21.050781 92.667969 20.230469 93.234375 19.554688 C 96.523438 15.648438 103.0625 14.417969 108.394531 14.125 C 109.957031 14.039062 111.519531 14.15625 113.082031 14.171875 C 114.503906 14.554688 116.023438 14.773438 117.355469 15.324219 C 124.683594 18.359375 126.03125 24.589844 126.363281 30.703125 C 126.316406 31.554688 126.285156 32.40625 126.222656 33.257812 C 126.167969 34.019531 125.972656 35.195312 126.132812 35.207031 C 126.484375 35.226562 126.78125 34.949219 127.101562 34.816406 C 127.625 34.597656 128.109375 34.304688 128.667969 34.152344 C 129.394531 33.953125 130.167969 33.894531 130.917969 33.765625 C 131.859375 33.828125 132.832031 33.757812 133.738281 33.957031 C 141.773438 35.695312 145.070312 44.042969 147.316406 49.632812 C 148.511719 54.65625 151.179688 63.863281 146.441406 68.511719 C 145.957031 68.980469 145.226562 69.238281 144.617188 69.601562 C 142.632812 69.984375 143.351562 70.011719 141.703125 69.839844 C 141.53125 69.820312 141.199219 69.625 141.191406 69.765625 C 141.179688 70 141.503906 70.15625 141.679688 70.339844 C 142.152344 70.84375 142.6875 71.3125 143.136719 71.828125 C 143.886719 72.691406 144.5625 73.597656 145.273438 74.480469 C 151.023438 82.582031 155.601562 91.625 156.210938 101.207031 C 156.3125 102.824219 156.035156 104.449219 155.945312 106.074219 C 155.449219 107.316406 155.273438 108.667969 154.449219 109.800781 C 150.933594 114.664062 144.003906 112.367188 139.527344 110.554688 C 139.261719 110.402344 139.011719 109.941406 138.730469 110.09375 C 138.46875 110.238281 139.042969 110.523438 139.207031 110.730469 C 139.675781 111.324219 140.179688 111.898438 140.636719 112.496094 C 143.34375 116.03125 145.53125 119.679688 147.636719 123.480469 C 150.148438 129.015625 153.605469 135.742188 150.050781 141.730469 C 149.570312 142.542969 148.808594 143.230469 148.1875 143.980469 C 143.414062 147.679688 136.769531 148.59375 130.542969 147.742188 C 129.292969 147.574219 128.109375 147.195312 126.894531 146.925781 C 126.414062 146.742188 121.628906 144.796875 122.082031 143.726562 C 122.152344 143.558594 122.539062 143.71875 122.726562 143.800781 C 124.5 144.597656 124.832031 145.277344 126.199219 146.648438 C 129.695312 151.535156 132.863281 159.347656 130.273438 165.074219 C 129.769531 166.183594 128.839844 167.148438 128.125 168.183594 C 127.09375 168.9375 126.214844 169.859375 125.035156 170.449219 C 119.472656 173.234375 112.066406 172.542969 106.460938 170.828125 C 104.949219 170.367188 103.539062 169.714844 102.078125 169.160156 C 96.285156 166.449219 90.695312 162.667969 90.222656 156.8125 C 90.15625 155.996094 90.328125 155.167969 90.378906 154.347656 C 90.589844 153.738281 90.660156 153.085938 91.007812 152.511719 C 91.46875 151.761719 92.277344 151.574219 92.855469 152.34375 C 94.644531 154.734375 93.863281 157.640625 93.328125 160.246094 C 91.941406 163.996094 88.90625 167.753906 83.402344 167.328125 C 80.375 167.09375 79.070312 166.003906 76.695312 164.703125 C 72.191406 161.113281 69.957031 156.210938 72 151.03125 C 72.308594 150.246094 72.828125 149.515625 73.246094 148.757812 C 75.585938 145.34375 79.421875 142.972656 83.539062 141.066406 C 84.546875 140.570312 85.632812 140.226562 86.679688 139.792969 C 86.691406 139.792969 86.632812 139.679688 86.625 139.683594 C 85.574219 140.113281 84.492188 140.464844 83.46875 140.941406 C 79.238281 142.777344 75.355469 145.164062 72.957031 148.609375 C 72.527344 149.378906 71.988281 150.121094 71.660156 150.921875 C 69.460938 156.257812 71.789062 161.355469 76.476562 165.023438 C 78.96875 166.359375 80.273438 167.441406 83.433594 167.652344 C 89.074219 168.027344 92.292969 164.238281 93.753906 160.367188 C 94.234375 157.65625 94.742188 156.742188 93.96875 154.144531 C 93.789062 153.550781 92.25 150.328125 90.773438 152.417969 C 90.371094 152.988281 90.28125 153.660156 90.035156 154.277344 C 89.980469 155.167969 89.800781 156.0625 89.867188 156.945312 C 90.320312 162.914062 95.957031 166.824219 101.867188 169.585938 C 103.347656 170.152344 104.777344 170.816406 106.316406 171.285156 C 112.109375 173.042969 119.597656 173.625 125.304688 170.75 C 126.523438 170.136719 127.441406 169.199219 128.511719 168.421875 C 129.265625 167.359375 130.261719 166.382812 130.777344 165.234375 C 133.480469 159.195312 130.308594 151.460938 126.441406 146.429688 C 125.75 145.800781 125.136719 145.113281 124.371094 144.546875 C 123.175781 143.664062 122.125 143.410156 121.949219 143.796875 C 121.394531 145.035156 126.1875 147.027344 126.789062 147.269531 C 128.027344 147.550781 129.230469 147.9375 130.503906 148.113281 C 136.875 149.003906 143.59375 147.9375 148.464844 144.179688 C 149.109375 143.414062 149.894531 142.710938 150.402344 141.882812 C 154.164062 135.765625 150.792969 128.835938 148.191406 123.148438 C 145.824219 119.019531 145.894531 118.832031 143.082031 115.070312 C 142.378906 114.132812 141.621094 113.226562 140.855469 112.324219 C 140.363281 111.746094 139.863281 111.171875 139.308594 110.636719 C 139.125 110.460938 138.484375 110.015625 138.648438 110.199219 C 138.847656 110.425781 139.160156 110.570312 139.417969 110.757812 C 144.109375 112.867188 151.0625 114.996094 154.925781 110.007812 C 155.816406 108.859375 156.058594 107.476562 156.625 106.210938 C 156.75 104.453125 157.089844 102.6875 157 100.933594 C 156.511719 91.304688 151.722656 82.164062 145.601562 74.222656 C 144.171875 72.617188 143.390625 71.574219 141.773438 70.238281 C 141.601562 70.097656 141.230469 70.082031 141.167969 69.886719 C 141.121094 69.75 141.507812 69.941406 141.683594 69.960938 C 143.464844 70.183594 142.5625 70.164062 144.742188 69.78125 C 145.398438 69.414062 146.175781 69.160156 146.703125 68.675781 C 151.855469 63.96875 149.238281 54.519531 147.941406 49.316406 C 147.261719 47.6875 146.722656 46.011719 145.898438 44.429688 C 143.660156 40.128906 139.867188 34.886719 133.765625 33.695312 C 132.832031 33.511719 131.835938 33.605469 130.875 33.5625 C 130.113281 33.710938 129.328125 33.789062 128.589844 34.007812 C 128.035156 34.171875 127.53125 34.445312 127.03125 34.707031 C 126.757812 34.851562 126.601562 35.183594 126.28125 35.226562 C 126.15625 35.242188 127.253906 30.664062 126.832031 30.765625 C 126.78125 29.582031 126.855469 28.386719 126.675781 27.214844 C 125.914062 22.230469 123.238281 17.269531 117.5 14.914062 C 116.128906 14.351562 114.566406 14.128906 113.097656 13.738281 C 111.511719 13.722656 109.925781 13.59375 108.335938 13.6875 C 102.960938 13.992188 96.113281 15.363281 92.9375 19.410156 C 92.347656 20.164062 92.160156 21.070312 91.773438 21.898438 C 92.164062 24.03125 91.996094 23.84375 92.8125 25.738281 C 92.847656 25.8125 93.453125 26.9375 93.421875 26.917969 C 93.160156 26.753906 92.972656 26.523438 92.746094 26.328125 C 92.160156 25.964844 91.578125 25.601562 90.992188 25.238281 C 90.0625 24.894531 89.191406 24.445312 88.207031 24.214844 C 82.886719 22.964844 76.949219 24.589844 73.226562 28.058594 C 72.152344 29.058594 71.425781 30.265625 70.523438 31.371094 C 69.972656 32.648438 69.207031 33.886719 68.867188 35.203125 C 67.582031 40.164062 69.507812 44.984375 73.960938 48.273438 C 74.078125 49.382812 74.300781 48.90625 72.351562 49.386719 C 66.082031 50.929688 60.191406 52.871094 55.972656 57.253906 C 55.273438 58.464844 54.386719 59.617188 53.878906 60.878906 C 51.382812 67.097656 54.066406 73.515625 58.511719 78.402344 C 60.855469 80.269531 63.0625 82.105469 66.324219 82.921875 C 66.382812 82.9375 68.316406 83.484375 68.449219 82.679688 C 68.472656 82.535156 68.175781 82.507812 68.039062 82.421875 C 62.304688 82.8125 57.417969 89.648438 54.707031 93.164062 C 54.175781 94.167969 53.542969 95.140625 53.109375 96.171875 C 51.597656 99.769531 51.953125 103.648438 55.136719 106.441406 C 56.011719 107.207031 57.109375 107.789062 58.097656 108.460938 C 59.355469 109.035156 60.542969 109.71875 61.875 110.183594 C 67.523438 112.160156 74.242188 112.257812 80.351562 111.457031 C 80.679688 111.320312 81.105469 111.28125 81.339844 111.054688 C 81.511719 110.886719 80.828125 111.164062 80.578125 111.238281 C 78.15625 111.953125 75.9375 113.09375 73.925781 114.402344 C 69.171875 117.304688 64.234375 120.179688 60.792969 124.179688 C 59.324219 126.066406 57.410156 128.074219 57.636719 130.414062 C 57.953125 133.652344 61.105469 135.65625 64.007812 137.441406 C 65.570312 138.125 67.042969 138.945312 68.6875 139.496094 C 76.03125 141.957031 84.152344 141.519531 92.019531 141.039062 C 92.035156 141.035156 92.019531 140.898438 92.007812 140.898438 Z M 92.007812 140.898438 " fill-opacity="1" fill-rule="nonzero"/></g></g></g></g><g clip-path="url(#5894f9224f)"><g clip-path="url(#51c43e4020)"><g clip-path="url(#125089fc79)"><g clip-path="url(#ad3b338ce8)"><path fill="#000000" d="M 114.523438 130.351562 C 108.34375 129.417969 102.367188 126.714844 98.796875 122.148438 C 97.660156 120.695312 96.496094 119.125 96.179688 117.375 C 95.878906 115.710938 96.738281 114.011719 97.015625 112.328125 C 98.421875 110.824219 99.453125 108.988281 101.226562 107.8125 C 108.644531 102.886719 122.316406 102.902344 127.257812 110.425781 C 128.277344 111.980469 128.207031 113.925781 128.679688 115.675781 C 128.019531 117.421875 128.03125 119.476562 126.695312 120.917969 C 121.195312 126.878906 109.347656 126.414062 102.304688 124.078125 C 99.3125 123.085938 96.511719 121.613281 94.066406 119.839844 C 91.789062 118.1875 90.238281 115.902344 88.324219 113.933594 C 87.5625 111.820312 86.222656 109.8125 86.035156 107.589844 C 85.449219 100.660156 91.90625 97.410156 98.945312 97.085938 C 105.976562 96.761719 107.71875 98.199219 113.835938 100.566406 C 115.546875 101.980469 117.640625 103.109375 118.96875 104.804688 C 120.148438 106.316406 120.941406 108.125 121.167969 109.953125 C 121.691406 114.167969 119.910156 116.804688 115.074219 118.238281 C 108.851562 120.082031 104.683594 118.324219 98.777344 117.050781 C 95.160156 115.339844 89.976562 113.742188 87.941406 110.125 C 87.558594 109.441406 87.617188 108.109375 88.464844 107.847656 C 90.046875 107.363281 91.851562 107.949219 93.398438 108.453125 C 99.878906 110.554688 103.710938 113.664062 109.183594 117.246094 C 110.054688 117.824219 121.648438 127.941406 116.027344 130.394531 C 113.246094 131.605469 108.34375 128.960938 106.6875 127.933594 C 105.101562 126.949219 103.84375 125.621094 102.425781 124.46875 C 101.710938 123.359375 100.605469 122.390625 100.28125 121.144531 C 100.117188 120.523438 100.386719 119.585938 101.074219 119.332031 C 103.589844 118.40625 108.316406 121.632812 109.292969 122.375 C 113.9375 125.90625 114.714844 127.941406 117.746094 132.507812 C 118.226562 134.242188 119.359375 135.921875 119.183594 137.714844 C 118.847656 141.125 114.890625 142.355469 111.628906 142.09375 C 107.871094 141.789062 103.082031 139.175781 101.074219 136.460938 C 100.515625 135.703125 100.964844 134.648438 100.910156 133.742188 C 102.09375 133.425781 103.242188 132.695312 104.464844 132.789062 C 113.085938 133.460938 122.007812 143.21875 120.339844 150.753906 C 119.984375 152.351562 118.421875 153.578125 117.460938 154.988281 C 115.613281 155.433594 113.820312 156.394531 111.917969 156.328125 C 102.699219 156.011719 94.664062 146.136719 99.074219 138.492188 C 100.027344 136.839844 102.003906 135.796875 103.46875 134.449219 C 105.59375 133.964844 107.660156 132.96875 109.839844 132.996094 C 116.925781 133.089844 122.839844 138.425781 122.808594 144.554688 C 122.800781 146.292969 122.304688 148.21875 121.003906 149.574219 C 119.648438 150.980469 117.300781 151.335938 115.449219 152.21875 C 109.265625 151.894531 106.382812 152.667969 101.527344 148.609375 C 96.441406 144.355469 96.308594 137.105469 102.324219 133.121094 C 104.1875 131.886719 106.667969 131.632812 108.839844 130.886719 C 113.4375 131.300781 117.542969 130.691406 120.519531 134.523438 C 122.789062 137.445312 120.878906 141.003906 117.96875 142.929688 C 112.46875 146.566406 109.835938 145.09375 103.660156 144.378906 C 98.519531 140.980469 94.960938 140.15625 94.496094 133.6875 C 93.921875 125.707031 102.101562 117.941406 109.957031 114.816406 C 112.554688 113.785156 115.492188 113.671875 118.257812 113.097656 C 120.433594 113.644531 122.886719 113.6875 124.785156 114.742188 C 127.878906 116.460938 129.65625 119.972656 127.722656 123.074219 C 126.777344 124.597656 125.195312 126.078125 123.292969 126.582031 C 117.121094 128.21875 113.390625 124.800781 108.828125 122.320312 C 107.710938 120.082031 105.976562 118.015625 105.476562 115.605469 C 104.371094 110.246094 107.246094 101.046875 114.28125 99.152344 C 115.660156 98.78125 117.359375 99.046875 118.496094 99.777344 C 119.785156 100.601562 120.101562 102.1875 120.90625 103.394531 C 120.601562 106.929688 121.261719 110.101562 117.140625 112.582031 C 112.261719 115.519531 105.011719 111.894531 103.976562 107.433594 C 103.667969 106.105469 104.582031 104.746094 104.882812 103.402344 C 106.285156 102.414062 107.417969 101.019531 109.09375 100.441406 C 121.246094 96.269531 131.3125 108.125 134.855469 116.324219 C 135.933594 118.820312 136.148438 121.558594 136.796875 124.175781 C 136.246094 126.074219 136.527344 128.304688 135.144531 129.871094 C 133.914062 131.265625 131.707031 132.140625 129.707031 132.195312 C 120.53125 132.445312 110.386719 123.398438 106.835938 116.996094 C 105.351562 114.324219 105.035156 111.253906 104.136719 108.386719 C 104.570312 105.882812 104.320312 103.226562 105.4375 100.871094 C 108.980469 93.40625 118.5 91.480469 126.152344 94.996094 C 133.035156 98.15625 132.671875 100.738281 134.898438 106.503906 C 134.285156 108.480469 134.703125 110.945312 133.058594 112.433594 C 131.269531 114.050781 128.359375 114.6875 125.804688 114.734375 C 122.21875 114.796875 118.632812 113.941406 115.359375 112.75 C 107.496094 109.882812 101.242188 105.28125 97.191406 98.738281 C 95.425781 95.894531 94.96875 92.550781 93.859375 89.453125 C 94.191406 86.703125 93.808594 83.832031 94.847656 81.203125 C 96.386719 77.320312 100.800781 72.878906 106.023438 72.613281 C 110.703125 72.375 113.511719 76.292969 113.933594 79.6875 C 114.175781 81.652344 113.132812 83.605469 112.730469 85.566406 C 110.953125 87.03125 109.5625 88.972656 107.398438 89.960938 C 100.75 92.996094 90.472656 91.898438 86.421875 86.113281 C 85.382812 84.625 84.890625 82.695312 85.269531 80.957031 C 85.648438 79.210938 87.449219 77.914062 88.542969 76.394531 C 90.808594 75.875 93.035156 74.613281 95.339844 74.84375 C 102.539062 75.5625 108.628906 83.25 107.871094 89.3125 C 107.6875 90.769531 106.925781 92.335938 105.609375 93.28125 C 104.402344 94.148438 102.574219 93.898438 101.058594 94.207031 C 99.449219 93.496094 97.535156 93.148438 96.230469 92.074219 C 91.308594 88.011719 91.953125 81.816406 97.140625 77.949219 C 98.996094 76.566406 101.207031 75.292969 103.601562 74.949219 C 105.875 74.621094 108.09375 75.679688 110.339844 76.046875 C 111.796875 77.621094 113.855469 78.886719 114.714844 80.773438 C 115.597656 82.703125 115.78125 84.945312 115.347656 87.015625 C 114.222656 92.367188 110.765625 95.28125 104.761719 96.847656 C 96.773438 98.933594 93.164062 97.09375 85.640625 95.355469 C 81.117188 91.875 76.203125 89.953125 76.992188 83.589844 C 77.59375 78.75 83.589844 75.058594 88.410156 74.003906 C 97.304688 72.054688 99.003906 74.558594 106.074219 78.144531 C 107.683594 80.523438 109.972656 82.632812 110.902344 85.285156 C 113.898438 93.832031 108.402344 102.230469 98.199219 104.53125 C 89.210938 106.558594 86.636719 103.898438 79.410156 100.585938 C 77.847656 98.347656 75.4375 96.425781 74.71875 93.871094 C 71.734375 83.242188 86.101562 71.726562 98.019531 73.539062 C 100.820312 73.964844 103.023438 75.808594 105.523438 76.941406 C 106.984375 79.214844 109.132812 81.234375 109.910156 83.761719 C 112.28125 91.476562 107.789062 100.296875 99.117188 103.617188 C 91.789062 106.421875 88.078125 104.785156 80.875 103.574219 C 75.421875 100.515625 71.710938 100.007812 70.738281 93.746094 C 69.691406 87.019531 76.339844 80.519531 83.769531 79.367188 C 86.277344 78.980469 88.808594 79.742188 91.328125 79.929688 C 93.296875 81.296875 95.820312 82.222656 97.238281 84.035156 C 98.84375 86.085938 99.652344 88.617188 100.058594 91.089844 C 101.289062 98.535156 97.988281 107.644531 88.441406 109.863281 C 85.421875 110.566406 82.234375 109.792969 79.132812 109.757812 C 76.183594 108.582031 72.863281 107.929688 70.285156 106.234375 C 62.28125 100.953125 60.378906 92.5 67.382812 85.457031 C 73.34375 79.453125 77.800781 79.570312 85.992188 77.636719 C 89.132812 77.960938 92.410156 77.785156 95.410156 78.613281 C 97.914062 79.304688 100.261719 80.539062 102.144531 82.105469 C 107.445312 86.503906 105.015625 91.367188 97.535156 90.46875 C 94.824219 90.144531 92.386719 88.921875 89.8125 88.148438 C 87.367188 86.398438 84.601562 84.933594 82.46875 82.894531 C 79.324219 79.890625 75.207031 74.285156 75.480469 69.726562 C 75.578125 68.09375 76.542969 66.386719 77.941406 65.261719 C 81.890625 62.082031 86.078125 63.488281 90.542969 63.914062 C 92.609375 64.976562 95.011719 65.664062 96.742188 67.101562 C 101.695312 71.226562 102.421875 78.023438 96.125 81.859375 C 90.722656 85.152344 87.433594 83.742188 81.558594 83.089844 C 79.34375 81.804688 76.726562 80.925781 74.910156 79.234375 C 73.117188 77.570312 71.703125 75.5 71.007812 73.289062 C 69.390625 68.144531 70.90625 64.59375 76.136719 61.511719 C 82.359375 57.84375 85.765625 58.972656 92.558594 59.28125 C 94.570312 60.101562 96.832031 60.574219 98.597656 61.742188 C 100.023438 62.679688 102.882812 65.65625 99.894531 67.277344 C 97.492188 68.578125 93.425781 66.886719 91.789062 65.832031 C 90.386719 64.921875 89.457031 63.566406 88.289062 62.4375 C 87.851562 61.058594 87.03125 59.742188 86.980469 58.304688 C 86.792969 53.199219 93.183594 49.066406 98.699219 50.988281 C 99.5625 51.292969 100.082031 52.066406 100.773438 52.605469 C 100.636719 53.21875 100.832031 53.960938 100.367188 54.445312 C 97.609375 57.316406 91.152344 55.289062 88.402344 54.03125 C 86.804688 53.300781 85.320312 52.359375 84.039062 51.257812 C 82.894531 50.277344 82.152344 48.992188 81.210938 47.855469 C 81.269531 46.679688 80.859375 45.421875 81.390625 44.328125 C 81.980469 43.109375 83.117188 42.050781 84.386719 41.304688 C 89.738281 38.15625 97.28125 38.691406 102.808594 40.714844 C 104.75 41.425781 106.378906 42.640625 108.167969 43.601562 C 109.074219 44.832031 110.460938 45.871094 110.886719 47.289062 C 111.230469 48.421875 111.101562 49.816406 110.335938 50.8125 C 106.542969 55.753906 95.605469 53.84375 90.722656 52.628906 C 88.007812 51.949219 85.492188 50.796875 82.875 49.882812 C 79.761719 47.59375 75.445312 45.722656 75.445312 41.457031 C 75.445312 37.582031 79.847656 35.597656 83.320312 34.542969 C 90.234375 32.445312 94.117188 33.15625 101.265625 33.34375 C 104.167969 34.066406 107.214844 34.460938 109.972656 35.503906 C 114.273438 37.125 123.25 41.964844 119.554688 47.53125 C 116.933594 51.476562 112.167969 51.832031 107.773438 53.050781 C 99.296875 53.832031 90.410156 53.59375 82.585938 50.546875 C 79.96875 49.527344 76.082031 47.519531 75.765625 44.5 C 75.65625 43.480469 76.574219 42.550781 76.976562 41.578125 C 78.40625 40.792969 79.683594 39.726562 81.265625 39.21875 C 91.347656 35.984375 104.46875 39.121094 113.253906 43.367188 C 115.671875 44.535156 117.800781 46.09375 120.070312 47.453125 C 123.140625 50.792969 126.230469 52.726562 125.933594 57.457031 C 125.6875 61.371094 122.230469 64.554688 118.550781 66.417969 C 112.414062 69.527344 108.105469 69.257812 101.277344 69.90625 C 98.066406 69.527344 94.773438 69.46875 91.644531 68.769531 C 86.648438 67.648438 80.453125 65.257812 77.101562 61.609375 C 75.84375 60.238281 74.875 58.511719 74.761719 56.746094 C 74.664062 55.171875 75.335938 53.449219 76.507812 52.214844 C 77.960938 50.679688 80.304688 50 82.203125 48.894531 C 85.203125 48.542969 88.191406 47.808594 91.207031 47.835938 C 103.132812 47.957031 119.675781 53.300781 122.972656 64.410156 C 123.625 66.613281 122.910156 68.988281 122.875 71.28125 C 121.425781 73.484375 120.480469 76 118.523438 77.890625 C 109.914062 86.195312 94.375 87.621094 84.4375 81.007812 C 82.222656 79.535156 80.835938 77.3125 79.039062 75.460938 C 78.53125 73.269531 77.371094 71.132812 77.519531 68.886719 C 78.050781 60.9375 86.273438 56.40625 94.59375 55.621094 C 103.472656 54.78125 106.96875 56.761719 115.085938 59.222656 C 117.902344 61.058594 121.128906 62.503906 123.539062 64.734375 C 129.882812 70.613281 132.992188 79.546875 128.761719 87.316406 C 127.5625 89.515625 125.917969 91.699219 123.636719 93.125 C 121.34375 94.5625 118.3125 94.726562 115.648438 95.527344 C 112.839844 95.273438 109.921875 95.453125 107.222656 94.765625 C 103.699219 93.867188 98.492188 91.664062 98.980469 87.464844 C 99.167969 85.855469 100.429688 84.335938 101.816406 83.226562 C 106.824219 79.226562 110.964844 79.472656 117.308594 78.46875 C 120.230469 78.761719 123.25 78.675781 126.074219 79.351562 C 131.992188 80.765625 139.089844 84.964844 137.597656 91.273438 C 137.238281 92.789062 136.375 94.347656 135.007812 95.363281 C 133.34375 96.601562 131.003906 96.898438 129.003906 97.664062 C 126.246094 97.71875 123.46875 98.082031 120.738281 97.824219 C 114.941406 97.277344 108.898438 95.503906 104.074219 92.710938 C 101.199219 91.046875 97.105469 88.035156 97.535156 84.359375 C 97.6875 83.070312 99.089844 82.117188 99.867188 80.992188 C 101.628906 80.390625 103.292969 79.417969 105.15625 79.183594 C 112.949219 78.191406 119.960938 81.929688 123.519531 87.742188 C 126.914062 93.289062 126.027344 95.890625 125.972656 101.972656 C 124.054688 107.519531 123.898438 110.722656 118.792969 114.925781 C 112.957031 119.734375 104.257812 120.585938 97.011719 118.585938 C 94.871094 117.992188 93.042969 116.785156 91.054688 115.886719 C 89.945312 114.664062 88.332031 113.6875 87.726562 112.214844 C 85.425781 106.628906 93.90625 103.066406 98.480469 101.921875 C 101.128906 101.261719 103.898438 100.855469 106.632812 100.859375 C 109.511719 100.863281 112.304688 101.582031 115.136719 101.941406 C 121.105469 104.492188 124.359375 105 128.152344 110.039062 C 132.398438 115.679688 132.261719 123.378906 127.023438 128.796875 C 125.34375 130.53125 122.867188 131.539062 120.789062 132.910156 C 118.136719 133.445312 115.542969 134.414062 112.839844 134.511719 C 104.882812 134.808594 95.875 131.511719 92.382812 125.035156 C 91.492188 123.382812 90.988281 121.417969 91.378906 119.597656 C 91.789062 117.679688 93.5625 116.164062 94.65625 114.445312 C 96.875 113.234375 98.875 111.621094 101.320312 110.8125 C 104.054688 109.910156 107.011719 109.367188 109.910156 109.40625 C 118.898438 109.535156 127.851562 114.289062 129.855469 122.207031 C 130.484375 124.691406 129.664062 127.328125 129.566406 129.886719 C 128.097656 132.402344 127.222656 135.246094 125.15625 137.433594 C 116.152344 146.960938 98.375 148.988281 86.597656 143.269531 C 84.199219 142.101562 82.507812 140.09375 80.464844 138.503906 C 79.910156 136.605469 78.46875 134.765625 78.800781 132.808594 C 79.625 127.957031 85.820312 124.601562 90.222656 122.902344 C 96.605469 120.433594 104.167969 119.453125 111.015625 120.066406 C 114.167969 120.351562 117.128906 121.425781 120.1875 122.105469 C 122.289062 123.390625 124.855469 124.238281 126.496094 125.957031 C 131.585938 131.285156 127.691406 138.355469 122.648438 142.527344 C 117.1875 147.046875 114.210938 147.222656 107.359375 149.285156 C 99.769531 150.074219 93.15625 150.28125 87.726562 145.03125 C 86.570312 143.914062 85.417969 142.613281 85.152344 141.121094 C 84.4375 137.039062 88.195312 135.261719 91.039062 132.839844 C 93.527344 131.792969 95.882812 130.449219 98.5 129.695312 C 104.550781 127.953125 111.097656 127.5625 117.351562 127.875 C 121.632812 128.09375 128.46875 128.925781 132.289062 131.125 C 133.535156 131.839844 134.121094 133.171875 135.039062 134.199219 C 134.574219 135.292969 134.550781 136.613281 133.644531 137.480469 C 130.351562 140.617188 125.023438 141.425781 120.554688 141.574219 C 114.585938 141.773438 108.464844 140.898438 103.460938 137.992188 C 101.507812 136.859375 100.277344 135 98.683594 133.503906 C 99.097656 131.894531 98.859375 130.054688 99.925781 128.671875 C 105.558594 121.375 121.460938 120.402344 129.605469 123.859375 C 131.015625 124.457031 131.917969 125.691406 133.070312 126.605469 C 132.777344 127.445312 133.023438 128.625 132.183594 129.128906 C 128.46875 131.351562 121.394531 129.882812 118.199219 129.011719 C 111.5 127.1875 103.785156 123.523438 98.800781 119.257812 C 96.207031 117.039062 94.460938 114.179688 92.292969 111.636719 C 90.386719 105.710938 87.804688 102.765625 91.640625 96.796875 C 95.917969 90.128906 105.96875 87.570312 113.988281 88.828125 C 116.007812 89.144531 117.703125 90.300781 119.558594 91.035156 C 120.007812 92.15625 121.1875 93.222656 120.910156 94.398438 C 120.605469 95.679688 119.378906 96.863281 118.03125 97.472656 C 115.980469 98.398438 113.574219 98.746094 111.289062 98.738281 C 104.761719 98.71875 99.546875 97.109375 95.144531 92.878906 C 93.304688 91.113281 92.535156 88.683594 91.230469 86.585938 C 91.519531 84.453125 91.097656 82.167969 92.105469 80.191406 C 93.210938 78.007812 95.15625 76.109375 97.316406 74.621094 C 102.734375 70.875 113.878906 68.027344 120.152344 71.53125 C 121.519531 72.296875 121.910156 73.910156 122.789062 75.097656 C 121.929688 76.53125 121.597656 78.316406 120.207031 79.398438 C 115.417969 83.117188 107.472656 84.5 101.554688 84.734375 C 93.976562 85.03125 85.675781 83.976562 79.164062 80.480469 C 76.664062 79.136719 75.011719 76.878906 72.933594 75.078125 C 72.542969 73.0625 71.265625 71.054688 71.753906 69.035156 C 72.300781 66.777344 73.941406 64.671875 75.855469 63.039062 C 83.570312 56.445312 96.296875 54.878906 106.296875 56.570312 C 108.910156 57.011719 111.199219 58.316406 113.652344 59.1875 C 113.847656 60.1875 114.972656 61.371094 114.238281 62.179688 C 113.003906 63.527344 110.820312 64.082031 108.886719 64.40625 C 99.738281 65.925781 89.242188 63.167969 82.320312 58.105469 C 80.507812 56.777344 79.398438 54.863281 77.933594 53.246094 C 78.128906 51.839844 77.582031 50.207031 78.519531 49.03125 C 81.140625 45.738281 88.234375 44.945312 91.875 44.761719 C 97.316406 44.484375 104.265625 45.199219 109.386719 46.863281 C 111.179688 47.441406 112.675781 48.539062 114.320312 49.378906 C 114.289062 50.179688 114.910156 51.222656 114.234375 51.785156 C 111.578125 53.976562 104.019531 53.800781 101.550781 53.621094 C 96.621094 53.253906 88.96875 51.691406 84.746094 49.316406 C 82.871094 48.261719 81.671875 46.515625 80.132812 45.117188 C 79.960938 43.671875 78.945312 42.132812 79.617188 40.78125 C 80.339844 39.328125 82.128906 38.324219 83.808594 37.710938 C 90.542969 35.25 101.238281 36.679688 107.503906 39.238281 C 109.179688 39.921875 110.464844 41.148438 111.949219 42.105469 C 111.9375 43.144531 112.65625 44.390625 111.914062 45.222656 C 109.292969 48.15625 101.355469 48.535156 98.394531 48.589844 C 92.183594 48.703125 85.039062 47.820312 79.21875 45.988281 C 77.097656 45.320312 75.25 44.148438 73.265625 43.230469 C 72.738281 42.222656 71.226562 41.265625 71.675781 40.203125 C 72.933594 37.238281 83.46875 36.621094 84.160156 36.582031 C 92.339844 36.09375 100.472656 36.824219 108.34375 38.589844 C 112.34375 39.488281 116.125 40.953125 120.015625 42.136719 C 123.007812 43.769531 126.40625 44.949219 128.988281 47.03125 C 135.484375 52.269531 137.109375 60.652344 131.960938 67.382812 C 127.253906 73.527344 122.671875 74.222656 115.332031 77.15625 C 111.765625 77.667969 108.238281 78.585938 104.640625 78.695312 C 98.710938 78.875 91.34375 77.796875 86.34375 74.835938 C 82.605469 72.625 80.511719 69.746094 83.523438 66.03125 C 85.003906 64.207031 87.472656 63.167969 89.445312 61.738281 C 92.660156 60.789062 95.761719 59.425781 99.089844 58.894531 C 112.082031 56.816406 132.539062 59.265625 139.4375 70.238281 C 140.847656 72.476562 140.90625 75.199219 141.636719 77.683594 C 141.09375 80.046875 141.128906 82.554688 140.007812 84.773438 C 136.046875 92.628906 126.566406 96.9375 117.300781 98.09375 C 108.570312 99.179688 105.6875 97.972656 97.496094 96.394531 C 95.773438 95.667969 87.957031 93.242188 87.210938 90.308594 C 86.945312 89.257812 88.085938 88.089844 89.136719 87.476562 C 92.816406 85.328125 100.46875 84.789062 104.265625 85.023438 C 107.425781 85.21875 110.453125 86.121094 113.546875 86.671875 C 119.082031 89.441406 123.796875 90.589844 126.179688 96.308594 C 128.160156 101.058594 126.015625 106.167969 122.558594 109.996094 C 116.941406 116.207031 112.878906 116.605469 104.792969 119.601562 C 94.714844 120.855469 85.988281 122.558594 78.652344 115.179688 C 75.96875 112.484375 74.761719 109.324219 77.339844 105.996094 C 78.421875 104.601562 80.433594 103.957031 81.980469 102.9375 C 84.175781 102.753906 86.394531 102.128906 88.566406 102.382812 C 98.554688 103.554688 105.980469 112.441406 105.128906 121.058594 C 104.941406 122.953125 103.832031 124.714844 103.183594 126.542969 C 101.847656 127.90625 100.808594 129.539062 99.175781 130.632812 C 94.523438 133.742188 88.910156 133.335938 86.808594 128.289062 C 85.132812 124.265625 86.644531 122.972656 88.367188 119.261719 C 89.789062 118.191406 90.960938 116.789062 92.636719 116.046875 C 97.644531 113.820312 103.667969 115.410156 105.746094 119.941406 C 107.507812 123.78125 105.820312 125.324219 104.148438 128.890625 C 102.695312 130.117188 101.480469 131.59375 99.796875 132.566406 C 95.628906 134.96875 88.300781 136.691406 84.246094 133.261719 C 83.300781 132.464844 82.652344 131.296875 82.570312 130.144531 C 82.488281 128.953125 83.386719 127.839844 83.796875 126.6875 C 85.015625 125.667969 86.03125 124.417969 87.457031 123.628906 C 91.417969 121.4375 97.71875 120.570312 101.234375 123.8125 C 102.046875 124.5625 102.617188 125.640625 102.582031 126.683594 C 102.550781 127.734375 101.5625 128.609375 101.054688 129.570312 C 97.375 131.605469 96.558594 132.617188 91.847656 132.730469 C 88.0625 132.820312 81.710938 130.921875 83.9375 126.394531 C 84.53125 125.195312 85.902344 124.402344 86.882812 123.40625 C 90.210938 121.921875 91.351562 120.742188 95.050781 121.296875 C 95.835938 121.417969 96.664062 121.75 97.125 122.308594 C 97.378906 122.617188 97.210938 123.261719 96.8125 123.4375 C 94.6875 124.382812 91.597656 123.121094 89.832031 122.683594 C 88.519531 121.859375 86.933594 121.285156 85.890625 120.210938 C 82.6875 116.925781 83.585938 112.136719 87.644531 109.511719 C 91.386719 107.089844 93.625 107.761719 97.882812 107.828125 C 99.476562 108.402344 101.210938 108.75 102.660156 109.550781 C 104 110.289062 107.117188 112.679688 106.667969 114.695312 C 106.539062 115.269531 105.695312 115.828125 105.03125 115.753906 C 101.429688 115.359375 97.765625 111.300781 95.785156 109.621094 C 92.039062 105.015625 89.117188 102.582031 88.007812 96.800781 C 86.960938 91.347656 90.222656 86.09375 97.4375 87.109375 C 99.515625 87.398438 101.25 88.601562 103.15625 89.347656 C 105.9375 92.136719 109.167969 93.875 108.195312 98.191406 C 107.359375 101.914062 103.398438 103.652344 99.339844 103.425781 C 92.003906 103.015625 88.699219 99.523438 83.246094 95.875 C 81.199219 93.46875 78.710938 91.304688 77.109375 88.652344 C 73.214844 82.199219 72.203125 73.761719 80.222656 68.835938 C 86.132812 65.203125 90.453125 66.128906 97.09375 66.109375 C 99.730469 66.855469 102.601562 67.15625 105 68.34375 C 110.726562 71.179688 113.480469 77.238281 107.167969 81.386719 C 102.164062 84.679688 98.347656 83.679688 92.617188 83.582031 C 90.136719 82.734375 87.40625 82.296875 85.179688 81.042969 C 79.472656 77.828125 75.617188 71.277344 81.28125 66.097656 C 86.074219 61.714844 91.042969 61.601562 97.371094 60.257812 C 100.574219 60.363281 103.84375 60.066406 106.980469 60.582031 C 109.78125 61.042969 112.542969 61.886719 114.976562 63.144531 C 120.59375 66.046875 118.414062 70.082031 112.339844 69.445312 C 110.15625 69.214844 108.171875 68.292969 106.085938 67.714844 C 103.871094 66.65625 94.390625 61.507812 96.875 57.796875 C 98.527344 55.324219 103.761719 57.28125 105.027344 57.828125 C 107.191406 58.757812 108.984375 60.21875 110.964844 61.410156 C 112.53125 63.417969 114.097656 65.421875 115.664062 67.425781 C 115.710938 67.46875 116.398438 66.859375 116.351562 66.816406 C 114.683594 64.800781 113.019531 62.78125 111.355469 60.761719 C 107.527344 58.617188 104.546875 56.023438 99.578125 56.285156 C 98.417969 56.34375 97.042969 56.84375 96.480469 57.738281 C 94.84375 60.335938 98.476562 63.796875 100.023438 65.003906 C 101.765625 66.367188 103.949219 67.242188 105.910156 68.359375 C 108.082031 68.875 110.164062 69.773438 112.421875 69.90625 C 119.28125 70.308594 120.917969 65.425781 115.257812 62.316406 C 112.785156 60.957031 109.90625 60.101562 107.007812 59.628906 C 103.785156 59.097656 100.429688 59.441406 97.140625 59.347656 C 90.746094 60.816406 85.339844 61.0625 80.652344 65.742188 C 74.972656 71.414062 78.699219 78.367188 84.902344 81.8125 C 87.214844 83.097656 90.042969 83.523438 92.613281 84.378906 C 98.652344 84.375 102.507812 85.347656 107.675781 81.773438 C 114.246094 77.230469 111.398438 70.613281 105.246094 67.53125 C 102.777344 66.292969 99.800781 65.996094 97.082031 65.226562 C 90.011719 65.3125 85.839844 64.375 79.605469 68.292969 C 71.339844 73.488281 72.136719 82.632812 76.285156 89.421875 C 77.941406 92.132812 80.53125 94.316406 82.65625 96.765625 C 88.5 100.460938 91.78125 103.882812 99.515625 104.03125 C 103.691406 104.113281 108.042969 102.121094 108.847656 98.222656 C 109.832031 93.453125 106.515625 91.773438 103.398438 88.746094 C 101.382812 88.011719 99.53125 86.796875 97.351562 86.550781 C 89.519531 85.65625 86.140625 91.351562 87.210938 97.257812 C 88.296875 103.222656 91.351562 105.59375 95.296875 110.230469 C 97.152344 111.65625 98.800781 113.308594 100.863281 114.5 C 101.453125 114.84375 106.277344 117.519531 106.976562 114.535156 C 107.484375 112.371094 104.363281 109.886719 102.851562 109.050781 C 101.347656 108.222656 99.542969 107.875 97.886719 107.289062 C 93.410156 107.269531 91.148438 106.589844 87.25 109.179688 C 82.992188 112.015625 82.160156 117.207031 85.617188 120.644531 C 86.710938 121.734375 88.359375 122.285156 89.730469 123.105469 C 91.535156 123.476562 94.886719 124.722656 96.964844 123.488281 C 97.421875 123.21875 97.539062 122.476562 97.242188 122.082031 C 96.773438 121.457031 95.886719 121.070312 95.035156 120.921875 C 91.109375 120.226562 90.027344 121.476562 86.527344 123.085938 C 85.519531 124.164062 84.066406 125.027344 83.507812 126.320312 C 81.410156 131.167969 87.675781 133.386719 91.964844 133.246094 C 96.808594 133.09375 97.707031 131.953125 101.421875 129.765625 C 101.925781 128.664062 102.925781 127.640625 102.929688 126.46875 C 102.933594 125.351562 102.3125 124.210938 101.4375 123.40625 C 97.753906 120.03125 91.21875 120.875 87.097656 123.242188 C 85.621094 124.089844 84.601562 125.421875 83.351562 126.511719 C 82.96875 127.804688 82.070312 129.074219 82.199219 130.398438 C 82.316406 131.625 83.042969 132.84375 84.050781 133.695312 C 88.332031 137.296875 95.808594 135.621094 100.222656 133.023438 C 101.964844 132 103.210938 130.457031 104.707031 129.171875 C 106.503906 125.21875 108.1875 123.785156 106.148438 119.554688 C 103.882812 114.851562 97.46875 113.253906 92.261719 115.601562 C 90.515625 116.386719 89.300781 117.859375 87.820312 118.988281 C 85.949219 123.070312 84.414062 124.226562 86.417969 128.652344 C 88.769531 133.851562 94.773438 134.289062 99.652344 131.070312 C 101.363281 129.941406 102.457031 128.242188 103.855469 126.832031 C 104.554688 124.929688 105.765625 123.105469 105.957031 121.128906 C 106.816406 112.085938 99.089844 102.75 88.492188 101.726562 C 86.210938 101.507812 83.910156 102.210938 81.617188 102.457031 C 79.992188 103.5625 77.835938 104.261719 76.738281 105.78125 C 75.628906 107.308594 75.238281 109.257812 75.390625 111.035156 C 75.566406 113.058594 76.175781 115.226562 77.679688 116.757812 C 81.089844 120.234375 89.496094 121.71875 94.164062 121.796875 C 97.867188 121.855469 101.539062 121.007812 105.226562 120.613281 C 113.542969 117.425781 117.699219 116.984375 123.398438 110.484375 C 127.21875 106.121094 129.0625 100.941406 126.84375 95.695312 C 124.335938 89.765625 119.476562 88.597656 113.71875 85.734375 C 110.542969 85.207031 107.429688 84.289062 104.1875 84.148438 C 101.167969 84.015625 98.09375 84.335938 95.128906 84.929688 C 93.257812 85.308594 85.996094 87.019531 86.832031 90.71875 C 87.179688 92.25 88.902344 93.316406 90.347656 94.234375 C 92.449219 95.5625 94.980469 96.304688 97.300781 97.339844 C 105.777344 99.011719 108.523438 100.261719 117.578125 99.058594 C 127.027344 97.800781 137.023438 93.1875 140.925781 85.070312 C 142.105469 82.609375 142.003906 79.847656 142.546875 77.238281 C 141.75 74.648438 141.632812 71.808594 140.152344 69.472656 C 132.90625 58.0625 112.335938 55.46875 98.753906 57.941406 C 95.34375 58.5625 92.210938 60.066406 88.9375 61.128906 C 86.933594 62.691406 84.347656 63.839844 82.921875 65.824219 C 79.96875 69.929688 82 73.210938 86.011719 75.671875 C 91.128906 78.816406 98.6875 79.949219 104.820312 79.75 C 108.511719 79.628906 112.125 78.660156 115.777344 78.117188 C 123.472656 74.941406 127.941406 74.292969 132.816406 67.78125 C 138.144531 60.660156 136.277344 51.625 129.539062 46.066406 C 126.914062 43.902344 123.449219 42.652344 120.402344 40.945312 C 116.445312 39.738281 112.609375 38.222656 108.539062 37.332031 C 100.609375 35.597656 92.207031 34.953125 83.984375 35.734375 C 82.167969 35.90625 72.574219 36.898438 71.300781 40.445312 C 70.871094 41.644531 72.398438 42.722656 72.949219 43.859375 C 74.96875 44.875 76.820312 46.175781 79 46.90625 C 84.890625 48.871094 92.195312 49.71875 98.523438 49.4375 C 101.671875 49.296875 109.859375 48.546875 112.34375 45.296875 C 113.136719 44.257812 112.300781 42.839844 112.28125 41.613281 C 110.765625 40.5625 109.472656 39.210938 107.730469 38.460938 C 101.273438 35.691406 90.324219 34.464844 83.441406 37.269531 C 81.648438 38 79.734375 39.128906 79.015625 40.722656 C 78.308594 42.285156 79.4375 44.015625 79.644531 45.660156 C 81.242188 47.152344 82.472656 49.015625 84.433594 50.136719 C 90.6875 53.726562 102.191406 55.355469 109.640625 53.894531 C 111.410156 53.546875 113.386719 53.054688 114.574219 51.847656 C 115.332031 51.078125 114.597656 49.851562 114.609375 48.851562 C 112.933594 47.914062 111.433594 46.6875 109.578125 46.042969 C 102.15625 43.457031 90.96875 42.773438 83.3125 45.515625 C 81.277344 46.246094 79.117188 47.261719 77.953125 48.882812 C 76.941406 50.289062 77.5625 52.152344 77.367188 53.785156 C 78.863281 55.507812 79.976562 57.542969 81.859375 58.953125 C 88.894531 64.210938 99.84375 66.996094 109.164062 64.941406 C 111.210938 64.492188 113.546875 63.753906 114.683594 62.203125 C 115.488281 61.105469 114.195312 59.683594 113.953125 58.421875 C 111.414062 57.445312 109.070312 55.996094 106.339844 55.496094 C 95.976562 53.609375 82.914062 55.570312 75.128906 62.558594 C 73.144531 64.335938 71.417969 66.585938 70.902344 68.996094 C 70.417969 71.285156 71.839844 73.535156 72.308594 75.804688 C 74.46875 77.71875 76.171875 80.113281 78.785156 81.542969 C 85.484375 85.210938 93.921875 86.265625 101.769531 85.816406 C 107.742188 85.472656 116.152344 83.789062 120.753906 79.707031 C 122.210938 78.414062 122.394531 76.398438 123.214844 74.742188 C 122.253906 73.449219 121.804688 71.714844 120.324219 70.863281 C 111.765625 65.9375 95.0625 71.910156 91.261719 79.972656 C 90.207031 82.207031 90.746094 84.746094 90.488281 87.132812 C 91.871094 89.320312 92.691406 91.863281 94.636719 93.691406 C 96.761719 95.683594 99.457031 97.304688 102.382812 98.300781 C 106.78125 99.796875 120.0625 100.824219 121.328125 94.164062 C 121.578125 92.851562 120.316406 91.6875 119.8125 90.445312 C 117.867188 89.632812 116.113281 88.355469 113.980469 88 C 105.699219 86.625 95.027344 89.523438 90.753906 96.476562 C 86.742188 103.007812 89.371094 106.066406 91.414062 112.453125 C 93.65625 115.0625 95.457031 118.011719 98.144531 120.28125 C 103.289062 124.628906 111.128906 128.234375 118.085938 129.886719 C 121.363281 130.664062 128.933594 131.871094 132.519531 129.261719 C 133.453125 128.582031 133.105469 127.222656 133.398438 126.207031 C 132.195312 125.183594 131.292969 123.816406 129.796875 123.136719 C 121.496094 119.378906 104.640625 120.660156 99.285156 128.460938 C 98.15625 130.105469 98.539062 132.203125 98.164062 134.070312 C 99.824219 135.65625 101.097656 137.621094 103.140625 138.820312 C 108.265625 141.828125 114.585938 142.703125 120.710938 142.367188 C 125.179688 142.121094 130.953125 141.039062 134.066406 137.667969 C 135.03125 136.625 134.960938 135.125 135.40625 133.855469 C 134.449219 132.722656 133.855469 131.273438 132.535156 130.460938 C 128.691406 128.101562 121.730469 127.164062 117.324219 126.933594 C 110.90625 126.59375 104.308594 127.058594 98.136719 128.953125 C 95.464844 129.777344 93.085938 131.210938 90.558594 132.339844 C 88.953125 133.792969 86.875 134.945312 85.742188 136.695312 C 84.824219 138.121094 84.421875 139.878906 84.671875 141.46875 C 85.597656 147.34375 93.644531 150.132812 99.492188 150.546875 C 102.195312 150.738281 104.921875 150.246094 107.640625 150.09375 C 114.699219 147.953125 117.730469 147.792969 123.304688 143.054688 C 128.6875 138.480469 132.261719 130.910156 126.933594 125.265625 C 125.238281 123.464844 122.585938 122.539062 120.410156 121.175781 C 117.265625 120.457031 114.222656 119.316406 110.980469 119.019531 C 107.390625 118.691406 103.707031 118.804688 100.125 119.324219 C 92.035156 120.5 79.328125 124.535156 78.097656 133.148438 C 77.800781 135.242188 79.3125 137.1875 79.917969 139.203125 C 82.042969 140.882812 83.785156 143.007812 86.289062 144.238281 C 98.484375 150.238281 116.855469 147.890625 126.066406 137.972656 C 128.195312 135.679688 129.082031 132.710938 130.589844 130.078125 C 130.609375 127.265625 131.394531 124.359375 130.652344 121.636719 C 128.4375 113.480469 119.054688 108.578125 109.742188 108.558594 C 106.746094 108.554688 103.699219 109.15625 100.894531 110.136719 C 98.363281 111.023438 96.320312 112.746094 94.03125 114.054688 C 92.894531 115.886719 91.011719 117.515625 90.617188 119.554688 C 90.226562 121.59375 90.816406 123.761719 91.800781 125.609375 C 95.398438 132.351562 104.78125 135.699219 113.027344 135.300781 C 115.835938 135.164062 118.519531 134.136719 121.265625 133.554688 C 123.421875 132.109375 125.992188 131.039062 127.734375 129.226562 C 133.261719 123.476562 133.25 115.3125 128.710938 109.386719 C 124.726562 104.191406 121.457031 103.714844 115.246094 101.089844 C 112.332031 100.746094 109.457031 100.027344 106.503906 100.058594 C 99.953125 100.121094 83.847656 104.070312 87.296875 112.625 C 87.921875 114.179688 89.601562 115.222656 90.753906 116.519531 C 92.804688 117.457031 94.6875 118.726562 96.90625 119.339844 C 104.421875 121.417969 113.429688 120.398438 119.472656 115.457031 C 124.792969 111.109375 124.929688 107.894531 126.945312 102.140625 C 126.878906 95.726562 127.792969 92.867188 124.121094 87.132812 C 120.324219 81.203125 112.976562 77.410156 104.941406 78.652344 C 102.984375 78.957031 101.273438 80.03125 99.441406 80.71875 C 98.632812 82.019531 97.171875 83.164062 97.011719 84.625 C 96.585938 88.488281 100.621094 91.703125 103.707031 93.523438 C 108.625 96.425781 114.8125 98.195312 120.773438 98.644531 C 123.589844 98.855469 126.441406 98.390625 129.277344 98.265625 C 131.351562 97.402344 133.78125 97.007812 135.503906 95.675781 C 136.925781 94.578125 137.890625 92.945312 138.242188 91.335938 C 139.703125 84.632812 132.605469 80.023438 126.167969 78.476562 C 123.261719 77.777344 120.148438 77.890625 117.140625 77.601562 C 110.78125 78.71875 106.140625 78.570312 101.28125 82.894531 C 99.8125 84.199219 98.605469 85.972656 98.457031 87.773438 C 98.082031 92.238281 103.199219 94.617188 107.148438 95.613281 C 109.957031 96.324219 113.003906 96.089844 115.929688 96.328125 C 118.726562 95.449219 121.90625 95.21875 124.320312 93.695312 C 126.691406 92.199219 128.472656 89.957031 129.691406 87.648438 C 134.035156 79.417969 130.914062 70 124.152344 63.800781 C 121.664062 61.515625 118.332031 60.050781 115.417969 58.175781 C 107.019531 55.71875 103.46875 53.722656 94.320312 54.746094 C 85.265625 55.761719 77.148438 60.722656 76.710938 69.246094 C 76.589844 71.601562 77.835938 73.828125 78.402344 76.117188 C 80.285156 78.035156 81.742188 80.339844 84.058594 81.863281 C 94.390625 88.667969 110.503906 87.097656 119.316406 78.40625 C 121.34375 76.402344 122.300781 73.761719 123.796875 71.441406 C 123.777344 68.90625 124.472656 66.28125 123.746094 63.84375 C 120.328125 52.375 103.46875 46.785156 91.070312 46.949219 C 87.949219 46.988281 84.894531 47.859375 81.808594 48.3125 C 79.847656 49.53125 77.375 50.292969 75.925781 51.964844 C 74.679688 53.402344 74.058594 55.339844 74.175781 57.109375 C 74.300781 58.984375 75.304688 60.816406 76.621094 62.28125 C 80.054688 66.109375 86.308594 68.578125 91.53125 69.730469 C 94.730469 70.4375 98.101562 70.457031 101.386719 70.816406 C 108.476562 70.070312 112.734375 70.335938 119.039062 66.976562 C 125.34375 63.613281 128.492188 57.640625 125.097656 51.765625 C 123.988281 49.847656 122.050781 48.398438 120.527344 46.714844 C 118.21875 45.316406 116.0625 43.714844 113.597656 42.523438 C 104.609375 38.167969 91.195312 35.125 80.984375 38.785156 C 79.347656 39.371094 78.0625 40.535156 76.601562 41.410156 C 76.191406 42.53125 75.257812 43.613281 75.378906 44.769531 C 75.703125 47.964844 79.539062 50.140625 82.363281 51.300781 C 90.3125 54.558594 99.367188 54.75 108.015625 53.773438 C 112.503906 52.402344 117.570312 51.871094 120.101562 47.671875 C 123.75 41.625 115.164062 36.507812 110.207031 34.617188 C 107.382812 33.542969 104.257812 33.148438 101.285156 32.414062 C 93.894531 32.292969 90.054688 31.566406 82.972656 33.945312 C 78.929688 35.304688 74.890625 37.488281 74.910156 41.773438 C 74.933594 46.332031 79.214844 48.171875 82.574219 50.691406 C 89.277344 53.015625 91.777344 54.492188 99.238281 54.636719 C 102.921875 54.710938 108.46875 54.277344 110.804688 50.9375 C 113.136719 47.601562 110.265625 45.472656 108.488281 43.027344 C 106.648438 42.035156 104.972656 40.773438 102.964844 40.050781 C 97.214844 37.972656 89.46875 37.59375 84.023438 40.980469 C 82.703125 41.800781 81.496094 42.925781 80.914062 44.234375 C 80.359375 45.484375 80.847656 46.886719 80.816406 48.214844 C 81.789062 49.390625 82.542969 50.726562 83.730469 51.738281 C 85.050781 52.863281 86.589844 53.820312 88.242188 54.546875 C 91.101562 55.800781 97.964844 57.683594 100.613281 54.519531 C 101.109375 53.925781 100.84375 53.082031 100.960938 52.363281 C 100.222656 51.78125 99.667969 50.949219 98.742188 50.617188 C 94.832031 49.222656 89.480469 51.007812 87.515625 54.34375 C 85.410156 57.917969 86.761719 59.421875 87.90625 62.855469 C 89.136719 64.003906 90.121094 65.402344 91.605469 66.304688 C 93.335938 67.355469 97.800781 68.976562 100.195312 67.441406 C 103.21875 65.5 100.675781 62.347656 98.878906 61.105469 C 97.058594 59.847656 94.6875 59.332031 92.59375 58.445312 C 85.464844 58.15625 81.988281 56.980469 75.515625 60.945312 C 69.808594 64.441406 68.460938 68.179688 70.3125 73.828125 C 71.0625 76.121094 72.585938 78.257812 74.484375 79.964844 C 76.40625 81.695312 79.144531 82.574219 81.476562 83.875 C 87.679688 84.453125 91.039062 85.851562 96.65625 82.300781 C 103.160156 78.191406 102.371094 70.722656 97.09375 66.433594 C 95.277344 64.960938 92.765625 64.285156 90.605469 63.210938 C 85.984375 62.875 81.359375 61.507812 77.371094 64.945312 C 75.824219 66.277344 74.824219 68.230469 74.6875 70.09375 C 74.34375 74.867188 78.515625 80.601562 81.886719 83.722656 C 84.113281 85.78125 87.011719 87.203125 89.578125 88.945312 C 92.261719 89.644531 94.828125 90.828125 97.636719 91.039062 C 105.761719 91.640625 108.015625 86.023438 102.542969 81.378906 C 100.585938 79.71875 98.132812 78.40625 95.515625 77.667969 C 92.398438 76.785156 88.980469 76.96875 85.710938 76.621094 C 77.15625 78.699219 72.640625 78.5625 66.496094 84.9375 C 59.175781 92.539062 61.277344 101.617188 69.902344 107.164062 C 72.597656 108.894531 76.058594 109.515625 79.136719 110.691406 C 82.390625 110.667969 85.753906 111.402344 88.90625 110.621094 C 99.085938 108.101562 102.4375 98.578125 100.902344 90.605469 C 100.410156 88.042969 99.4375 85.453125 97.699219 83.367188 C 96.144531 81.5 93.488281 80.566406 91.382812 79.167969 C 88.734375 78.996094 86.070312 78.226562 83.445312 78.65625 C 75.289062 79.984375 68.796875 86.976562 70.039062 94.210938 C 71.160156 100.75 75 101.296875 80.714844 104.496094 C 88.304688 105.714844 91.988281 107.367188 99.664062 104.355469 C 109.019531 100.6875 113.449219 91.421875 110.707031 83.148438 C 109.835938 80.523438 107.503906 78.472656 105.902344 76.136719 C 103.238281 74.96875 100.875 73.070312 97.914062 72.636719 C 84.757812 70.707031 70.527344 83.0625 73.933594 94.503906 C 74.730469 97.179688 77.296875 99.167969 78.976562 101.5 C 86.617188 104.921875 89.269531 107.679688 98.703125 105.40625 C 105.097656 103.867188 111.015625 99.195312 112.460938 93.414062 C 113.183594 90.519531 112.753906 87.40625 111.734375 84.625 C 110.726562 81.867188 108.269531 79.710938 106.535156 77.253906 C 99.089844 73.640625 97.199219 71.023438 87.972656 73.21875 C 82.371094 74.554688 76.71875 78.570312 76.167969 84.007812 C 75.496094 90.660156 80.640625 92.683594 85.40625 96.324219 C 93.277344 98.070312 96.898438 99.9375 105.199219 97.59375 C 111.265625 95.882812 115.203125 92.648438 116.199219 87.097656 C 116.613281 84.800781 116.292969 82.332031 115.257812 80.222656 C 114.292969 78.25 112.054688 76.976562 110.453125 75.355469 C 108.050781 75.003906 105.667969 73.921875 103.25 74.300781 C 99.089844 74.949219 93.949219 78.910156 92.671875 82.457031 C 91.375 86.058594 92.882812 90.183594 96.003906 92.589844 C 97.417969 93.679688 99.449219 93.976562 101.171875 94.667969 C 102.8125 94.304688 104.769531 94.503906 106.089844 93.570312 C 107.515625 92.5625 108.46875 90.925781 108.675781 89.359375 C 109.542969 82.800781 103.003906 74.710938 95.148438 74.160156 C 92.683594 73.988281 90.363281 75.394531 87.972656 76.011719 C 86.855469 77.753906 84.992188 79.285156 84.628906 81.238281 C 84.28125 83.097656 84.84375 85.132812 85.96875 86.710938 C 90.296875 92.789062 100.945312 93.855469 107.914062 90.527344 C 110.191406 89.441406 111.636719 87.371094 113.496094 85.792969 C 113.84375 83.625 114.886719 81.4375 114.539062 79.285156 C 113.945312 75.625 110.625 71.707031 105.730469 71.953125 C 100.324219 72.21875 95.371094 76.851562 93.765625 80.929688 C 92.625 83.839844 93.082031 87.011719 92.738281 90.050781 C 93.90625 93.261719 94.382812 96.734375 96.234375 99.675781 C 100.457031 106.390625 106.9375 111.089844 115.167969 113.8125 C 118.605469 114.949219 122.378906 115.683594 126.085938 115.464844 C 128.847656 115.304688 131.96875 114.539062 133.820312 112.722656 C 135.582031 110.996094 135.070312 108.277344 135.695312 106.058594 C 133.253906 100.058594 133.597656 97.363281 126.324219 94.167969 C 118.433594 90.703125 108.039062 92.921875 104.460938 100.589844 C 103.242188 103.199219 103.550781 106.132812 103.09375 108.90625 C 104.042969 111.875 104.378906 115.054688 105.941406 117.808594 C 109.789062 124.574219 120.273438 133.375 129.980469 132.753906 C 132.164062 132.613281 134.554688 131.683594 135.878906 130.148438 C 137.410156 128.371094 137.132812 125.878906 137.757812 123.746094 C 137.09375 121.042969 136.902344 118.214844 135.769531 115.644531 C 132.015625 107.117188 121.152344 95.363281 108.742188 100.003906 C 106.984375 100.660156 105.816406 102.160156 104.355469 103.234375 C 104.074219 104.761719 103.136719 106.316406 103.511719 107.8125 C 104.703125 112.617188 112.550781 116.082031 117.65625 112.964844 C 122.140625 110.226562 121.183594 106.894531 121.328125 103.054688 C 120.40625 101.816406 119.964844 100.171875 118.5625 99.339844 C 112.246094 95.570312 106.136719 104.09375 104.988281 108.171875 C 104.257812 110.761719 104.085938 113.539062 104.679688 116.125 C 105.257812 118.648438 107.164062 120.773438 108.40625 123.09375 C 113.410156 125.648438 117.15625 129.019531 123.710938 127.050781 C 125.710938 126.449219 127.382812 124.867188 128.3125 123.214844 C 130.242188 119.785156 128.347656 115.953125 124.96875 114.066406 C 122.960938 112.941406 120.367188 112.871094 118.0625 112.273438 C 115.179688 112.847656 112.113281 112.933594 109.410156 114 C 98.425781 118.339844 88.222656 131.238281 96.878906 140.910156 C 98.574219 142.804688 101.339844 143.746094 103.574219 145.164062 C 110.050781 145.773438 112.84375 147.257812 118.472656 143.304688 C 121.757812 140.996094 123.371094 137.222656 120.859375 133.984375 C 117.730469 129.945312 113.402344 130.625 108.578125 130.234375 C 106.304688 131.046875 103.703125 131.355469 101.761719 132.671875 C 95.414062 136.984375 95.679688 144.84375 101.175781 149.316406 C 106.328125 153.511719 109.289062 152.605469 115.761719 152.785156 C 117.722656 151.800781 120.25 151.386719 121.644531 149.839844 C 123.039062 148.292969 123.511719 146.144531 123.492188 144.210938 C 123.4375 137.792969 117.042969 132.347656 109.664062 132.363281 C 107.371094 132.367188 105.21875 133.4375 102.992188 133.976562 C 101.449219 135.410156 99.332031 136.507812 98.359375 138.273438 C 93.859375 146.4375 102.097656 156.8125 112.082031 156.886719 C 114.117188 156.902344 116.007812 155.851562 117.96875 155.335938 C 119.027344 153.835938 120.765625 152.550781 121.144531 150.835938 C 122.898438 142.890625 113.683594 132.609375 104.339844 132.429688 C 102.992188 132.40625 101.796875 133.269531 100.523438 133.6875 C 100.566406 134.789062 100.007812 136.054688 100.65625 136.988281 C 103.429688 140.980469 112.171875 144.671875 117.328125 141.347656 C 121.613281 138.582031 119.257812 135.316406 118.378906 132.015625 C 117.132812 130.167969 116.117188 128.179688 114.636719 126.464844 C 112.035156 123.457031 108.632812 120.570312 104.394531 119.300781 C 102.507812 118.734375 99.289062 118.59375 99.882812 121.4375 C 100.160156 122.753906 101.316406 123.785156 102.035156 124.957031 C 105.347656 127.601562 107.148438 129.726562 111.78125 130.710938 C 113.257812 131.027344 115.042969 131.273438 116.367188 130.585938 C 119.964844 128.703125 116.8125 123.773438 115.765625 122.363281 C 114.105469 120.136719 111.765625 118.359375 109.765625 116.359375 C 104.042969 112.761719 100.324219 109.703125 93.441406 107.949219 C 91.882812 107.550781 85.460938 106.332031 87.519531 110.582031 C 88.289062 112.171875 89.835938 113.445312 91.414062 114.488281 C 93.578125 115.921875 96.195312 116.765625 98.589844 117.902344 C 104.847656 119.160156 108.953125 120.902344 115.457031 118.773438 C 120.746094 117.039062 122.394531 114.222656 121.789062 109.589844 C 121.539062 107.675781 120.6875 105.792969 119.449219 104.214844 C 118.074219 102.457031 115.910156 101.289062 114.136719 99.824219 C 107.84375 97.433594 106 95.929688 98.773438 96.386719 C 94.195312 96.679688 89.054688 98.101562 86.636719 101.980469 C 83.539062 106.949219 85.953125 109.910156 87.648438 114.628906 C 89.628906 116.660156 91.234375 119.027344 93.597656 120.722656 C 100.828125 125.910156 111.679688 128.390625 120.902344 125.207031 C 123.351562 124.359375 125.785156 123.046875 127.363281 121.203125 C 128.761719 119.566406 128.667969 117.3125 129.324219 115.371094 C 128.785156 113.539062 128.804688 111.503906 127.710938 109.882812 C 122.449219 102.082031 108.398438 102.046875 100.691406 107.351562 C 98.855469 108.613281 97.800781 110.546875 96.355469 112.148438 C 96.109375 114.015625 95.265625 115.914062 95.621094 117.757812 C 95.960938 119.554688 97.167969 121.160156 98.363281 122.640625 C 102.042969 127.210938 108.207031 129.9375 114.5625 130.449219 C 114.570312 130.449219 114.53125 130.347656 114.523438 130.351562 Z M 114.523438 130.351562 " fill-opacity="1" fill-rule="nonzero"/></g></g></g></g><g clip-path="url(#9a37c8ffca)"><g clip-path="url(#a6e6d0f745)"><g clip-path="url(#2a6d55b523)"><g clip-path="url(#9215ad07ce)"><path fill="#000000" d="M 150.582031 73.160156 C 151.851562 74.859375 153.53125 76.761719 155.789062 77.007812 C 156.273438 77.0625 156.765625 76.964844 157.253906 76.945312 C 157.703125 76.75 158.199219 76.636719 158.597656 76.359375 C 160.46875 75.066406 161.347656 72.339844 160.800781 70.160156 C 160.65625 69.574219 160.320312 69.054688 160.078125 68.5 C 159.714844 68.089844 159.410156 67.617188 158.980469 67.277344 C 157.179688 65.847656 154.617188 65.722656 152.667969 66.914062 C 152.238281 67.175781 151.910156 67.570312 151.53125 67.894531 C 151.289062 68.3125 150.972656 68.691406 150.804688 69.140625 C 150.167969 70.832031 150.625 72.855469 151.765625 74.210938 C 151.984375 74.472656 152.257812 74.683594 152.507812 74.917969 C 153.269531 75.636719 153.988281 75.632812 154.972656 75.582031 C 154.984375 75.578125 154.96875 75.367188 154.953125 75.371094 C 153.992188 75.453125 153.355469 75.476562 152.636719 74.734375 C 151.210938 73.273438 150.304688 71.429688 151.050781 69.335938 C 151.203125 68.910156 151.5 68.554688 151.722656 68.164062 C 152.078125 67.859375 152.394531 67.5 152.796875 67.257812 C 154.636719 66.144531 157.042969 66.195312 158.753906 67.558594 C 159.160156 67.878906 159.4375 68.332031 159.777344 68.722656 C 159.992188 69.183594 160.289062 69.613281 160.417969 70.105469 C 160.949219 72.128906 160.207031 74.792969 158.480469 76.0625 C 158.113281 76.332031 157.648438 76.433594 157.230469 76.621094 C 156.769531 76.648438 156.304688 76.746094 155.847656 76.699219 C 153.648438 76.484375 152.085938 74.546875 150.679688 73.054688 C 150.671875 73.050781 150.574219 73.152344 150.582031 73.160156 Z M 150.582031 73.160156 " fill-opacity="1" fill-rule="nonzero"/></g></g></g></g><g clip-path="url(#c1ab277a04)"><g clip-path="url(#152bb7b2cf)"><g clip-path="url(#12389f61c9)"><g clip-path="url(#337cb6622b)"><path fill="#000000" d="M 161.917969 65.855469 C 162.859375 67.414062 164.320312 68.828125 166.265625 68.839844 C 166.660156 68.84375 167.050781 68.722656 167.441406 68.660156 C 167.761719 68.492188 168.132812 68.394531 168.398438 68.148438 C 169.910156 66.730469 168.796875 64.398438 167.640625 63.183594 C 167.253906 62.773438 166.761719 62.476562 166.320312 62.121094 C 164.824219 61.414062 162.441406 60.574219 161.101562 62.132812 C 160.488281 62.847656 160.609375 63.417969 160.558594 64.289062 C 161.003906 66.746094 162.035156 68.007812 164.210938 69.144531 C 164.226562 69.148438 164.320312 68.917969 164.304688 68.910156 C 162.402344 67.839844 161.242188 66.550781 160.804688 64.351562 C 160.816406 63.582031 160.679688 62.984375 161.222656 62.335938 C 162.445312 60.882812 164.789062 61.832031 166.128906 62.445312 C 166.550781 62.777344 167.015625 63.0625 167.394531 63.445312 C 168.417969 64.492188 169.675781 66.613281 168.296875 67.933594 C 168.054688 68.167969 167.699219 68.246094 167.402344 68.402344 C 167.03125 68.460938 166.664062 68.574219 166.289062 68.578125 C 164.402344 68.585938 163.058594 67.164062 162.003906 65.773438 C 161.996094 65.769531 161.914062 65.847656 161.917969 65.855469 Z M 161.917969 65.855469 " fill-opacity="1" fill-rule="nonzero"/></g></g></g></g><g clip-path="url(#139e0f2e8a)"><g clip-path="url(#b13d95c85c)"><g clip-path="url(#487ffe3cfa)"><g clip-path="url(#1306797de2)"><path fill="#000000" d="M 167.636719 60.203125 C 168.929688 61.441406 170.496094 62.972656 172.4375 62.925781 C 172.792969 62.917969 173.132812 62.777344 173.480469 62.703125 C 173.734375 62.515625 174.085938 62.410156 174.25 62.136719 C 175.175781 60.601562 173.394531 58.257812 172.175781 57.484375 C 171.777344 57.234375 171.3125 57.113281 170.882812 56.925781 C 170.453125 56.90625 170.011719 56.785156 169.589844 56.867188 C 168.359375 57.105469 167.609375 58.328125 167.636719 59.523438 C 167.648438 59.972656 167.84375 60.398438 167.949219 60.832031 C 167.957031 60.851562 168.203125 60.71875 168.195312 60.703125 C 168.09375 60.34375 167.917969 59.996094 167.894531 59.625 C 167.832031 58.523438 168.410156 57.359375 169.585938 57.148438 C 169.980469 57.078125 170.386719 57.195312 170.785156 57.21875 C 171.191406 57.398438 171.628906 57.515625 172 57.757812 C 172.992188 58.394531 174.867188 60.636719 174.140625 61.960938 C 174 62.214844 173.667969 62.304688 173.433594 62.476562 C 173.109375 62.539062 172.792969 62.667969 172.460938 62.671875 C 170.582031 62.691406 169.089844 61.152344 167.695312 60.113281 C 167.6875 60.109375 167.628906 60.199219 167.636719 60.203125 Z M 167.636719 60.203125 " fill-opacity="1" fill-rule="nonzero"/></g></g></g></g><g clip-path="url(#6ad110dc30)"><path fill="#ffffff" d="M 279.121094 -14.238281 L 319.738281 -14.238281 L 319.738281 26.378906 L 279.121094 26.378906 Z M 279.121094 -14.238281 " fill-opacity="1" fill-rule="nonzero"/></g><g clip-path="url(#4101e7e1d0)"><path fill="#ffffff" d="M 319.738281 26.65625 L 279.121094 26.65625 C 278.96875 26.65625 278.847656 26.535156 278.847656 26.378906 L 278.847656 -14.238281 C 278.847656 -14.390625 278.96875 -14.511719 279.121094 -14.511719 L 319.738281 -14.511719 C 319.894531 -14.511719 320.015625 -14.390625 320.015625 -14.238281 L 320.015625 26.378906 C 320.015625 26.535156 319.894531 26.65625 319.738281 26.65625 Z M 279.394531 26.105469 L 319.464844 26.105469 L 319.464844 -13.964844 L 279.394531 -13.964844 Z M 279.394531 26.105469 " fill-opacity="1" fill-rule="nonzero"/></g></svg>